<svg width="8" height="13" viewBox="0 0 8 13" fill="none" xmlns="http://www.w3.org/2000/svg">
<path d="M1.74019 12.26L7.7002 6.5L1.74019 0.739999C1.57775 0.583521 1.3598 0.497983 1.13428 0.502203C0.908772 0.506423 0.694173 0.600054 0.537695 0.762499C0.381217 0.924944 0.29568 1.1429 0.299899 1.36841C0.304119 1.59392 0.39775 1.80852 0.560195 1.965L5.2552 6.5L0.560195 11.04C0.397749 11.1965 0.304118 11.4111 0.299899 11.6366C0.295679 11.8621 0.381217 12.0801 0.537694 12.2425C0.694172 12.4049 0.908772 12.4986 1.13428 12.5028C1.3598 12.507 1.57775 12.4215 1.74019 12.265L1.74019 12.26Z" fill="#4F4F4F"/>
</svg>
