<svg width="31" height="31" viewBox="0 0 31 31" fill="none" xmlns="http://www.w3.org/2000/svg">
<path opacity="0.15" d="M27.1242 21.2824V24.7824C27.1297 26.1205 25.9266 27.2378 24.5758 27.1158C12.9167 27.125 3.87501 17.9994 3.88413 6.41853C3.76246 5.07489 4.87421 3.87637 6.21048 3.87511H9.71754C10.2849 3.86953 10.8349 4.07004 11.265 4.43925C12.488 5.48892 13.2746 9.0517 12.972 10.468C12.7357 11.5738 11.621 12.3474 10.8632 13.1037C12.5273 16.0247 14.9505 18.4431 17.8773 20.104C18.6351 19.3476 19.4103 18.2352 20.5183 17.9994C21.9396 17.6969 25.5253 18.4845 26.5707 19.716C26.9415 20.1527 27.1384 20.7102 27.1242 21.2824Z" fill="#001A72"/>
<path d="M27.1242 21.2824V24.7824C27.1297 26.1205 25.9266 27.2378 24.5758 27.1158C12.9167 27.125 3.87501 17.9994 3.88413 6.41853C3.76246 5.07489 4.87421 3.87637 6.21048 3.87511H9.71754C10.2849 3.86953 10.8349 4.07004 11.265 4.43925C12.488 5.48892 13.2746 9.0517 12.972 10.468C12.7357 11.5738 11.621 12.3474 10.8632 13.1037C12.5273 16.0247 14.9505 18.4431 17.8773 20.104C18.6351 19.3476 19.4103 18.2352 20.5183 17.9994C21.9396 17.6969 25.5253 18.4845 26.5708 19.716C26.9415 20.1527 27.1384 20.7102 27.1242 21.2824Z" stroke="#001A72" stroke-width="1.5" stroke-linecap="round" stroke-linejoin="round"/>
</svg>
