<svg width="37" height="36" viewBox="0 0 37 36" fill="none" xmlns="http://www.w3.org/2000/svg">
<path d="M5.81073 32.6717C5.54675 32.6717 5.2803 32.6157 5.0294 32.5009C4.34851 32.1894 3.93703 31.5161 3.98097 30.7852L4.21699 26.863H2.40832C1.08037 26.863 0 25.8119 0 24.5198V11.7484C0 10.4563 1.08037 9.40521 2.40832 9.40521H22.924C24.252 9.40521 25.3323 10.4564 25.3323 11.7484V24.5198C25.3323 25.8119 24.2519 26.863 22.924 26.863H20.655C20.1035 26.863 19.6565 26.4281 19.6565 25.8915C19.6565 25.355 20.1035 24.92 20.655 24.92H22.924C23.1509 24.92 23.3354 24.7405 23.3354 24.5197V11.7484C23.3354 11.5277 23.1509 11.3482 22.924 11.3482H2.40832C2.18155 11.3482 1.99692 11.5277 1.99692 11.7484V24.5198C1.99692 24.7404 2.18141 24.9201 2.40832 24.9201H5.27568C5.55058 24.9201 5.81334 25.0303 6.00209 25.225C6.19071 25.4197 6.28855 25.6814 6.27251 25.9484L5.99891 30.4945L11.8563 25.181C12.0413 25.0133 12.2845 24.9201 12.5372 24.9201H16.0534C16.6048 24.9201 17.0519 25.355 17.0519 25.8916C17.0519 26.4282 16.6048 26.8631 16.0534 26.8631H12.9304L7.05602 32.1919C6.70863 32.5071 6.26319 32.6717 5.81073 32.6717Z" fill="#211E48"/>
<path d="M34.5916 4.2999H14.0759C13.2973 4.2999 12.666 4.91408 12.666 5.67162V10.3768H22.9239C23.7025 10.3768 24.3337 10.991 24.3337 11.7486V19.8148H24.4627L30.6246 25.4044C31.1735 25.9023 32.0659 25.4941 32.0221 24.7651L31.7241 19.8146H34.5915C35.3701 19.8146 36.0013 19.2005 36.0013 18.4429V5.67162C36.0014 4.91401 35.3702 4.2999 34.5916 4.2999Z" fill="#2C4EA6"/>
<path d="M31.1859 26.5952C30.7262 26.5952 30.2852 26.4247 29.9437 26.115L24.0128 20.735C23.6188 20.605 23.3351 20.242 23.3351 19.8147V11.7485C23.3351 11.5279 23.1506 11.3482 22.9237 11.3482H12.666C12.1145 11.3482 11.6675 10.9133 11.6675 10.3767V5.6716C11.6675 4.37947 12.7479 3.32837 14.0758 3.32837H34.5914C35.9194 3.32837 36.9997 4.37954 36.9997 5.6716V18.443C36.9997 19.735 35.9194 20.7862 34.5914 20.7862H32.7827L33.0187 24.7084C33.0486 25.2043 32.8745 25.674 32.5287 26.0308C32.1811 26.3895 31.6916 26.5952 31.1859 26.5952ZM25.3322 19.2753L31.0009 24.4175L30.7273 19.8715C30.7113 19.6044 30.8091 19.3428 30.9977 19.1481C31.1864 18.9535 31.4492 18.8432 31.7241 18.8432H34.5915C34.8183 18.8432 35.0029 18.6637 35.0029 18.4429V5.6716C35.0029 5.45096 34.8184 5.27131 34.5915 5.27131H14.0758C13.849 5.27131 13.6644 5.45082 13.6644 5.6716V9.40527H22.9238C24.2517 9.40527 25.3321 10.4564 25.3321 11.7485V19.2753H25.3322Z" fill="#211E48"/>
<path d="M18.4999 16.9049H6.51803C5.96657 16.9049 5.51953 16.4699 5.51953 15.9334C5.51953 15.3968 5.96657 14.9619 6.51803 14.9619H18.4999C19.0513 14.9619 19.4984 15.3968 19.4984 15.9334C19.4984 16.4699 19.0513 16.9049 18.4999 16.9049Z" fill="#211E48"/>
<path d="M16.919 21.8864H8.09908C7.54762 21.8864 7.10059 21.4514 7.10059 20.9149C7.10059 20.3783 7.54762 19.9434 8.09908 19.9434H16.919C17.4705 19.9434 17.9175 20.3783 17.9175 20.9149C17.9175 21.4514 17.4705 21.8864 16.919 21.8864Z" fill="#211E48"/>
</svg>
