<svg width="17" height="16" viewBox="0 0 17 16" fill="none" xmlns="http://www.w3.org/2000/svg">
<path d="M8.49967 10.6667C9.97243 10.6667 11.1663 9.47277 11.1663 8.00001C11.1663 6.52725 9.97243 5.33334 8.49967 5.33334C7.02692 5.33334 5.83301 6.52725 5.83301 8.00001C5.83301 9.47277 7.02692 10.6667 8.49967 10.6667Z" fill="#40AD93"/>
<path d="M9.16634 2.71268V1.33334H7.83301V2.71268C6.65987 2.86246 5.56965 3.39746 4.73339 4.23372C3.89712 5.06999 3.36213 6.16021 3.21234 7.33334H1.83301V8.66668H3.21234C3.36191 9.8399 3.89683 10.9302 4.73314 11.7665C5.56945 12.6029 6.65979 13.1378 7.83301 13.2873V14.6667H9.16634V13.2873C10.3396 13.1379 11.43 12.603 12.2663 11.7667C13.1027 10.9303 13.6375 9.83994 13.787 8.66668H15.1663V7.33334H13.787C13.6374 6.16012 13.1025 5.06978 12.2662 4.23347C11.4299 3.39717 10.3396 2.86225 9.16634 2.71268ZM8.49967 12C6.29367 12 4.49967 10.206 4.49967 8.00001C4.49967 5.79401 6.29367 4.00001 8.49967 4.00001C10.7057 4.00001 12.4997 5.79401 12.4997 8.00001C12.4997 10.206 10.7057 12 8.49967 12Z" fill="#40AD93"/>
</svg>
