<svg width="16" height="15" viewBox="0 0 16 15" fill="none" xmlns="http://www.w3.org/2000/svg">
<path d="M7.99968 13.1918C7.15763 12.5424 6.37714 11.8305 5.66634 11.0635C4.59968 9.91168 3.33301 8.19628 3.33301 6.56165C3.33255 5.72683 3.60601 4.91065 4.1188 4.2164C4.63159 3.52216 5.36066 2.98105 6.21372 2.66156C7.06679 2.34207 8.00551 2.25856 8.91109 2.42161C9.81666 2.58465 10.6484 2.98691 11.301 3.57748C11.7355 3.96858 12.0799 4.4337 12.3143 4.94593C12.5486 5.45816 12.6683 6.00733 12.6663 6.56165C12.6663 8.19628 11.3997 9.91168 10.333 11.0635C9.62221 11.8305 8.84171 12.5424 7.99968 13.1918ZM7.99968 4.75343C7.46924 4.75343 6.96053 4.94394 6.58546 5.28304C6.21039 5.62215 5.99968 6.08208 5.99968 6.56165C5.99968 7.04122 6.21039 7.50115 6.58546 7.84025C6.96053 8.17936 7.46924 8.36987 7.99968 8.36987C8.53011 8.36987 9.03882 8.17936 9.41389 7.84025C9.78896 7.50115 9.99968 7.04122 9.99968 6.56165C9.99968 6.08208 9.78896 5.62215 9.41389 5.28304C9.03882 4.94394 8.53011 4.75343 7.99968 4.75343Z" fill="#C4C4C4"/>
</svg>
