<svg width="17" height="16" viewBox="0 0 17 16" fill="none" xmlns="http://www.w3.org/2000/svg">
<path d="M7.16667 2H3.16667C2.98986 2 2.82029 2.07024 2.69526 2.19526C2.57024 2.32029 2.5 2.48986 2.5 2.66667V6.66667C2.5 6.84348 2.57024 7.01305 2.69526 7.13807C2.82029 7.2631 2.98986 7.33333 3.16667 7.33333H7.16667C7.34348 7.33333 7.51305 7.2631 7.63807 7.13807C7.7631 7.01305 7.83333 6.84348 7.83333 6.66667V2.66667C7.83333 2.48986 7.7631 2.32029 7.63807 2.19526C7.51305 2.07024 7.34348 2 7.16667 2V2ZM13.8333 8.66667H9.83333C9.65652 8.66667 9.48695 8.7369 9.36193 8.86193C9.2369 8.98695 9.16667 9.15652 9.16667 9.33333V13.3333C9.16667 13.5101 9.2369 13.6797 9.36193 13.8047C9.48695 13.9298 9.65652 14 9.83333 14H13.8333C14.0101 14 14.1797 13.9298 14.3047 13.8047C14.4298 13.6797 14.5 13.5101 14.5 13.3333V9.33333C14.5 9.15652 14.4298 8.98695 14.3047 8.86193C14.1797 8.7369 14.0101 8.66667 13.8333 8.66667ZM11.8333 2C10.3627 2 9.16667 3.196 9.16667 4.66667C9.16667 6.13733 10.3627 7.33333 11.8333 7.33333C13.304 7.33333 14.5 6.13733 14.5 4.66667C14.5 3.196 13.304 2 11.8333 2ZM5.16667 8.66667C3.696 8.66667 2.5 9.86267 2.5 11.3333C2.5 12.804 3.696 14 5.16667 14C6.63733 14 7.83333 12.804 7.83333 11.3333C7.83333 9.86267 6.63733 8.66667 5.16667 8.66667Z" fill="white"/>
</svg>
