<svg width="32" height="33" viewBox="0 0 32 33" fill="none" xmlns="http://www.w3.org/2000/svg">
<path d="M18.8287 5.39607C18.4573 5.02452 18.0163 4.72979 17.5309 4.5287C17.0455 4.32762 16.5253 4.22412 15.9999 4.22412C15.4746 4.22412 14.9543 4.32762 14.469 4.5287C13.9836 4.72979 13.5426 5.02452 13.1711 5.39607L4.89753 13.6713C4.52599 14.0427 4.23125 14.4837 4.03017 14.9691C3.82908 15.4545 3.72559 15.9747 3.72559 16.5001C3.72559 17.0254 3.82908 17.5457 4.03017 18.031C4.23125 18.5164 4.52599 18.9574 4.89753 19.3289L13.1711 27.6025C13.5426 27.974 13.9836 28.2687 14.469 28.4698C14.9543 28.6709 15.4746 28.7744 15.9999 28.7744C16.5253 28.7744 17.0455 28.6709 17.5309 28.4698C18.0163 28.2687 18.4573 27.974 18.8287 27.6025L27.1023 19.3289C27.4739 18.9574 27.7686 18.5164 27.9697 18.031C28.1708 17.5457 28.2743 17.0254 28.2743 16.5001C28.2743 15.9747 28.1708 15.4545 27.9697 14.9691C27.7686 14.4837 27.4739 14.0427 27.1023 13.6713L18.8287 5.39607ZM17.0351 10.3337C17.1852 10.1837 17.3886 10.0994 17.6007 10.0994C17.8129 10.0994 18.0163 10.1837 18.1663 10.3337L20.5663 12.7337C20.7163 12.8837 20.8006 13.0871 20.8006 13.2993C20.8006 13.5114 20.7163 13.7148 20.5663 13.8649L18.1663 16.2649C18.0154 16.4106 17.8134 16.4912 17.6036 16.4894C17.3939 16.4876 17.1932 16.4034 17.0449 16.2551C16.8966 16.1068 16.8124 15.9061 16.8106 15.6964C16.8088 15.4866 16.8894 15.2845 17.0351 15.1337L18.0687 14.1001H16.7999C16.1634 14.1001 15.553 14.3529 15.1029 14.803C14.6528 15.2531 14.3999 15.8635 14.3999 16.5001V20.5001C14.3999 20.7122 14.3156 20.9157 14.1656 21.0658C14.0156 21.2158 13.8121 21.3001 13.5999 21.3001C13.3878 21.3001 13.1843 21.2158 13.0342 21.0658C12.8842 20.9157 12.7999 20.7122 12.7999 20.5001V16.5001C12.7999 15.4392 13.2214 14.4218 13.9715 13.6716C14.7217 12.9215 15.7391 12.5001 16.7999 12.5001H18.0687L17.0351 11.4649C16.8852 11.3148 16.8009 11.1114 16.8009 10.8993C16.8009 10.6871 16.8852 10.4837 17.0351 10.3337Z" fill="white"/>
</svg>
