<svg width="65" height="65" viewBox="0 0 65 65" fill="none" xmlns="http://www.w3.org/2000/svg">
<g clip-path="url(#clip0_669_1844)">
<path d="M32.4984 16.3613C25.3591 16.3613 19.2945 21.0313 17.1578 27.4669H21.1497C22.1477 27.4669 22.9537 28.273 22.9537 29.2709C22.9537 30.2689 22.1477 31.075 21.1497 31.075H16.4029C16.3646 31.5484 16.3262 32.0218 16.3262 32.5079C16.3262 32.9941 16.3518 33.4675 16.4029 33.9409H19.7423C20.7403 33.9409 21.5463 34.747 21.5463 35.7449C21.5463 36.7429 20.7403 37.549 19.7423 37.549H17.1578C19.2817 43.9846 25.3463 48.6546 32.4984 48.6546C41.4033 48.6546 48.6578 41.4129 48.6578 32.4951C48.6578 23.5774 41.4033 16.3613 32.4984 16.3613Z" fill="#56ACE0"/>
<path d="M32.4979 12.7405C21.597 12.7405 12.7305 21.607 12.7305 32.5079C12.7305 43.4088 21.597 52.2882 32.4979 52.2882C43.3988 52.2882 52.2654 43.4216 52.2654 32.5207C52.2654 21.6198 43.3988 12.7405 32.4979 12.7405ZM32.4979 48.6673C25.3586 48.6673 19.294 43.9974 17.1574 37.5617H19.7418C20.7398 37.5617 21.5459 36.7557 21.5459 35.7577C21.5459 34.7598 20.7398 33.9537 19.7418 33.9537H16.4025C16.3641 33.4803 16.3257 33.0069 16.3257 32.5207C16.3257 32.0345 16.3513 31.5611 16.4025 31.0877H21.1492C22.1472 31.0877 22.9533 30.2817 22.9533 29.2837C22.9533 28.2858 22.1472 27.4797 21.1492 27.4797H17.1574C19.2812 21.0441 25.3458 16.3741 32.4979 16.3741C41.4029 16.3741 48.6573 23.6158 48.6573 32.5335C48.6573 41.4513 41.4029 48.6673 32.4979 48.6673Z" fill="#194F82"/>
<path d="M32.4982 25.0871C34.0463 25.0871 35.313 26.3538 35.313 27.9019C35.313 28.8999 36.119 29.7059 37.117 29.7059C38.115 29.7059 38.921 28.8999 38.921 27.9019C38.921 24.9848 36.9635 22.5154 34.2894 21.735V20.4683C34.2894 19.4704 33.4834 18.6643 32.4854 18.6643C31.4874 18.6643 30.6814 19.4704 30.6814 20.4683V21.735C28.0074 22.5154 26.0498 24.9848 26.0498 27.9019C26.0498 31.446 28.9286 34.3375 32.4854 34.3375C32.4342 34.3503 32.4854 34.3375 32.4982 34.3375C33.9312 34.4655 35.3002 35.6554 35.3002 37.1267C35.3002 38.6876 34.0335 39.9415 32.4854 39.9415C30.9373 39.9415 29.6706 38.6749 29.6706 37.1267C29.6706 36.1288 28.8646 35.3227 27.8666 35.3227C26.8686 35.3227 26.0626 36.1288 26.0626 37.1267C26.0626 40.0439 28.0201 42.5132 30.6942 43.2937V44.5475C30.6942 45.5455 31.5002 46.3515 32.4982 46.3515C33.4962 46.3515 34.3022 45.5455 34.3022 44.5475V43.2937C36.9763 42.5132 38.9338 40.0439 38.9338 37.1267C38.9338 33.5827 35.812 30.7167 32.2551 30.7167C32.3063 30.7039 32.2551 30.7167 32.2423 30.7167C30.8093 30.5887 29.6834 29.3733 29.6834 27.9147C29.6834 26.3538 30.9373 25.0871 32.4982 25.0871Z" fill="#194F82"/>
<path d="M62.9999 40.4405C62.0531 40.1334 61.0295 40.6452 60.7225 41.592C55.7198 56.7279 39.3429 64.9675 24.207 59.9649C9.07119 54.9494 0.831548 38.5725 5.83419 23.4366C10.8368 8.31358 27.2137 0.0739407 42.3496 5.07658C47.2115 6.68868 51.4209 9.49067 54.7602 13.2267L49.1691 13.393C48.1711 13.2267 47.2499 13.892 47.0963 14.8771C46.93 15.8623 47.5953 16.7963 48.5805 16.9498L58.7265 17.5384C59.7629 17.7047 60.6329 17.0266 60.7992 16.0542L62.4241 6.13852C62.5905 5.15335 61.9251 4.21935 60.94 4.06582C59.942 3.89949 59.0208 4.5648 58.8673 5.54997L57.9077 11.3331C54.0821 6.89339 49.0923 3.50286 43.4755 1.64766C26.4589 -3.98191 8.03483 5.28129 2.40527 22.3107C-3.2243 39.3274 6.00052 57.9177 23.0683 63.3938C40.6479 69.0233 58.509 59.3123 64.1514 42.7307C64.4712 41.7711 63.9467 40.7476 62.9999 40.4405Z" fill="#194F82"/>
</g>
<defs>
<clipPath id="clip0_669_1844">
<rect width="65" height="65" fill="white"/>
</clipPath>
</defs>
</svg>
