<svg width="164" height="164" viewBox="0 0 164 164" fill="none" xmlns="http://www.w3.org/2000/svg">
<path d="M25.1021 10.8775V54.3877V66.8735L82 99.5714L138.898 66.8735V54.3877V10.8775H25.1021Z" fill="white"/>
<path d="M25.1023 54.3877V66.8735L3.34717 54.3877H25.1023Z" fill="#FAD792"/>
<path d="M160.654 54.3877L138.898 66.8735V54.3877H160.654Z" fill="#FAD792"/>
<path d="M138.898 66.8735L160.653 54.3877V153.122H3.34717V54.3877L25.1023 66.8735L82.0002 99.5714L138.898 66.8735Z" fill="#FAD792"/>
<path d="M162.33 51.4913C161.812 51.1914 161.233 51.0415 160.653 51.0415V51.0408H142.245V10.8775C142.245 9.02937 140.746 7.53061 138.898 7.53061H25.102C23.2539 7.53061 21.7551 9.02937 21.7551 10.8775V51.0408H3.34694V51.0415C2.76758 51.0415 2.18823 51.1911 1.66979 51.4913C0.636253 52.0897 0 53.1936 0 54.3877V153.122C0 154.971 1.49842 156.469 3.34694 156.469H160.653C162.501 156.469 164 154.971 164 153.122V54.3877C164 53.1936 163.364 52.0897 162.33 51.4913ZM148.097 57.7347L142.245 61.0937V57.7347H148.097ZM135.551 14.2245V64.937L82 95.7114L28.449 64.9366V14.2245H135.551ZM21.7551 61.0937L15.9026 57.7347H21.7551V61.0937ZM157.306 149.775H6.69388V143.082H148.939V136.388H6.69388V60.1676L23.4346 69.7753L80.3326 102.473C81.3648 103.067 82.6356 103.067 83.6678 102.473L140.564 69.7763L157.306 60.1676V149.775Z" fill="#231F20"/>
<path d="M51.8778 20.9184H35.1431V27.6122H51.8778V20.9184Z" fill="#231F20"/>
<path d="M128.857 37.653H35.1431V44.3469H128.857V37.653Z" fill="#231F20"/>
<path d="M118.816 51.0408H45.1836V57.7347H118.816V51.0408Z" fill="#231F20"/>
<path d="M103.755 64.4286H60.2451V71.1224H103.755V64.4286Z" fill="#231F20"/>
<path d="M66.9386 20.9184H58.5713V27.6122H66.9386V20.9184Z" fill="#231F20"/>
</svg>
