<svg width="214" height="200" viewBox="0 0 214 200" fill="none" xmlns="http://www.w3.org/2000/svg">
<path fill-rule="evenodd" clip-rule="evenodd" d="M15.0548 95.5265C15.0548 95.5265 6.00082 87.7922 18.7029 61.0878C31.4049 34.3835 57.1289 40.2366 73.5716 29.7328C97.8664 14.213 87.9085 2.06758 118.202 0.109856C156.344 -2.35507 158.504 37.4784 177.587 37.4784C178.842 37.4784 208.558 25.5382 212.907 58.225C215.098 74.6863 177.587 99.7888 177.587 99.7888C177.587 99.7888 161.975 113.94 161.118 120.927C157.522 150.233 165.021 183.797 80.994 199.249C70.1268 201.247 52.082 194.019 42.1268 180.666C34.3275 170.205 3.04164 177.627 0.121196 143.234C-1.35077 125.899 15.0548 95.5265 15.0548 95.5265Z" fill="#DCE0E4"/>
<path d="M71.1027 72.2916C71.3861 72.1244 71.7513 72.2186 71.9185 72.502L72.5929 73.6398C75.271 78.1329 76.3422 79.5919 77.4806 80.2515C78.4163 80.7937 79.3838 80.6254 81.1548 79.5868L81.3914 79.4447C82.5052 78.7505 87.6021 75.2493 89.5728 73.9922C89.8501 73.8152 90.2185 73.8966 90.3954 74.174C90.5724 74.4514 90.491 74.8197 90.2136 74.9967L89.9103 75.1919C87.7143 76.6154 82.7811 80.0034 81.9078 80.5256C79.7636 81.8077 78.3735 82.0958 76.9805 81.3371L76.8833 81.2825C75.3867 80.4154 74.2226 78.7519 70.8923 73.1075C70.7251 72.8241 70.8193 72.4588 71.1027 72.2916Z" fill="white"/>
<path d="M80.7511 79.1779C81.0773 79.1343 81.377 79.3632 81.4207 79.6894C81.6236 81.2048 82.1096 82.7245 82.8811 84.2499C83.0296 84.5435 82.912 84.9019 82.6184 85.0504C82.3248 85.1989 81.9664 85.0813 81.8179 84.7876C80.9876 83.1462 80.4608 81.4989 80.2397 79.8475C80.1961 79.5213 80.425 79.2216 80.7511 79.1779Z" fill="white"/>
<path fill-rule="evenodd" clip-rule="evenodd" d="M150.156 115.565C150.06 115.809 149.849 116.145 149.605 116.464L149.815 116.683L150.06 116.943L150.114 116.995C150.138 117.016 150.156 117.029 150.17 117.032C150.249 117.044 150.304 117.117 150.293 117.196C150.282 117.274 150.209 117.33 150.131 117.319C150.059 117.317 149.799 117.216 149.489 116.964C149.433 116.919 149.377 116.866 149.32 116.808C149.141 117.008 148.961 117.179 148.805 117.285C148.575 117.444 148.377 117.456 148.282 117.392C148.188 117.33 148.099 117.12 148.251 116.696C148.274 116.619 148.356 116.579 148.432 116.603C148.508 116.627 148.549 116.708 148.526 116.784C148.503 116.863 148.499 116.935 148.499 116.992L148.587 116.932C148.618 116.91 148.65 116.885 148.679 116.855C148.786 116.751 148.905 116.623 149.024 116.485C148.835 116.266 148.642 116.008 148.486 115.71C148.41 115.565 148.35 115.411 148.292 115.249C148.252 115.158 148.293 115.052 148.384 115.012C148.475 114.972 148.581 115.013 148.621 115.104C148.795 115.467 149.016 115.781 149.235 116.049L149.308 116.137C149.508 115.876 149.679 115.612 149.757 115.411C149.8 115.301 149.924 115.246 150.034 115.288C150.145 115.332 150.199 115.456 150.156 115.565Z" fill="white"/>
<path fill-rule="evenodd" clip-rule="evenodd" d="M61.5113 40.408L61.1482 40.3423C59.1205 39.9653 57.5657 39.5025 54.6613 38.4955C54.3282 38.3801 54.1518 38.0164 54.2673 37.6834C54.3828 37.3503 54.7464 37.1739 55.0795 37.2894L55.8033 37.5385C58.3511 38.408 59.7807 38.8066 61.733 39.1508C68.3025 40.3092 73.2213 36.9364 73.6237 30.504C73.6458 30.1522 73.9488 29.8848 74.3007 29.9068C74.6525 29.9288 74.9199 30.2319 74.8979 30.5837C74.4452 37.8179 68.7949 41.6923 61.5113 40.408Z" fill="#00160A"/>
<path fill-rule="evenodd" clip-rule="evenodd" d="M77.9262 47.2968L78.2928 48.1113L79.1284 48.3511C79.1735 48.3641 79.1996 48.4112 79.1867 48.4564C79.1827 48.4703 79.1752 48.483 79.1649 48.4932L78.5301 49.1252L78.5656 50.0348C78.5675 50.0817 78.5309 50.1213 78.4839 50.1231C78.468 50.1238 78.4523 50.1199 78.4385 50.112L77.7198 49.7027C77.6973 49.6899 77.6703 49.688 77.6462 49.6976L76.8775 50.0029C76.8339 50.0202 76.7844 49.9989 76.767 49.9552C76.7612 49.9404 76.7596 49.9243 76.7624 49.9087L76.9242 49.0129L76.3835 48.2987C76.3551 48.2613 76.3625 48.2079 76.4 48.1795C76.4115 48.1708 76.4251 48.1651 76.4395 48.1631L77.3003 48.0419L77.7766 47.2863C77.8017 47.2465 77.8542 47.2346 77.894 47.2597C77.9082 47.2686 77.9194 47.2815 77.9262 47.2968Z" fill="#00160A"/>
<path d="M161.89 26.8239C162.218 26.8005 162.504 27.0476 162.527 27.3758C162.55 27.704 162.303 27.989 161.975 28.0124C159.624 28.1801 157.778 29.0911 156.958 31.3447C156.908 31.4803 156.867 31.6112 156.834 31.7357L156.812 31.8212L156.848 31.7461C157.881 29.6375 159.872 28.1724 162.181 27.8005L162.332 27.7778C162.657 27.7324 162.959 27.9596 163.004 28.2855C163.05 28.6114 162.822 28.9124 162.496 28.9579C160.352 29.2572 158.518 30.6823 157.718 32.7263L157.666 32.8635C157.286 33.9082 156.373 34.4091 155.785 33.5151C155.427 32.9698 155.451 32.0013 155.838 30.9372C156.82 28.238 159.075 27.0248 161.89 26.8239Z" fill="white"/>
<path d="M159.177 22.3856C159.505 22.3622 159.79 22.6093 159.813 22.9375C159.837 23.2657 159.59 23.5507 159.261 23.5741C155.522 23.8409 152.243 26.2695 150.938 29.8542C150.551 30.9169 150.479 31.8254 150.618 32.2855L150.635 32.3369L150.661 32.2989C150.728 32.198 150.802 32.053 150.876 31.8651L150.907 31.782C152.285 27.9955 155.627 25.3438 159.546 24.7967C159.872 24.7512 160.173 24.9785 160.218 25.3044C160.264 25.6302 160.037 25.9313 159.711 25.9768C156.282 26.4553 153.352 28.7434 152.09 32.0219L152.027 32.1895C151.516 33.5936 150.411 34.2002 149.704 33.125C149.22 32.3882 149.254 30.9974 149.818 29.4467C151.285 25.4163 154.972 22.6856 159.177 22.3856Z" fill="white"/>
<path d="M155.52 16.4677C155.848 16.4443 156.133 16.6914 156.156 17.0196C156.18 17.3478 155.933 17.6328 155.604 17.6562C150.271 18.0367 145.594 21.5006 143.733 26.6135C143.099 28.3535 143.047 29.8283 143.393 30.4413L143.424 30.4932C143.475 30.5711 143.458 30.5734 143.471 30.5626L143.479 30.5574C143.654 30.4612 143.886 30.1335 144.097 29.59L144.139 29.4784C146.04 24.2563 150.648 20.5993 156.053 19.8448C156.379 19.7993 156.68 20.0266 156.726 20.3524C156.771 20.6783 156.544 20.9793 156.218 21.0248C151.31 21.7099 147.117 24.9954 145.328 29.6995L145.259 29.886C144.598 31.7027 143.271 32.4305 142.428 31.1475C141.8 30.1909 141.845 28.3152 142.613 26.206C144.636 20.6475 149.721 16.8814 155.52 16.4677Z" fill="white"/>
<path d="M148.991 10.9061C149.314 10.8429 149.627 11.0533 149.69 11.3762C149.754 11.6991 149.543 12.0121 149.22 12.0754C144.392 13.021 140.509 16.709 139.382 21.5873C139.001 23.2382 139.117 24.5807 139.491 25.0928L139.54 25.157L139.544 25.166L139.551 25.1606C139.685 25.0397 139.842 24.7309 139.963 24.2522L139.988 24.1471C141.147 19.1299 144.972 15.2463 149.857 13.9421C150.175 13.8573 150.502 14.0462 150.587 14.3641C150.672 14.682 150.483 15.0084 150.165 15.0933C145.763 16.2683 142.305 19.7338 141.195 24.2247L141.149 24.4151C140.741 26.1846 139.568 27.0293 138.618 25.9092C137.923 25.0899 137.752 23.3516 138.221 21.3192C139.454 15.9789 143.706 11.9413 148.991 10.9061Z" fill="white"/>
<path d="M82.9512 84.3812L83.2951 84.2561C86.5455 83.0897 89.2881 82.5749 89.9847 83.2838C90.5956 83.9054 91.1401 85.0311 91.6562 86.6822C91.7544 86.9962 91.5794 87.3303 91.2654 87.4285C90.9513 87.5267 90.6172 87.3517 90.519 87.0376C90.0726 85.6097 89.6172 84.6487 89.1865 84.1736L89.1687 84.155L89.1534 84.1558C89.0718 84.1392 88.9496 84.1308 88.7938 84.1338C88.4505 84.1404 87.9812 84.201 87.4207 84.312C86.2679 84.5404 84.8106 84.9653 83.3635 85.4991C80.9439 86.3917 78.9282 87.4403 77.8147 88.3876C77.4059 88.7354 76.6595 87.7667 77.3778 87.2117C78.6701 86.2131 80.6302 85.2374 82.9512 84.3812Z" fill="white"/>
<path d="M81.3154 73.1266C81.3154 75.1138 83.4169 77.2654 83.8641 77.3878C84.1814 77.4747 78.7139 81.0371 78.7139 81.0371C76.7382 81.2971 75.5781 79.6272 75.5781 77.1395C75.5781 76.8105 81.3154 72.7976 81.3154 73.1266Z" fill="white"/>
<path fill-rule="evenodd" clip-rule="evenodd" d="M74.8691 74.1709C75.5612 74.0364 76.0314 73.4598 75.9193 72.8831C75.8072 72.3063 75.1553 71.9478 74.4632 72.0824C73.7711 72.2169 73.3009 72.7935 73.413 73.3702C73.5251 73.947 74.1771 74.3055 74.8691 74.1709Z" fill="#ADB1B6"/>
<path d="M145.388 7.60249C145.712 7.54603 146.02 7.76303 146.077 8.08717C146.133 8.41131 145.916 8.71985 145.592 8.77631C144.051 9.04484 142.496 9.97797 140.893 11.4622C138.812 13.3895 137.437 16.0526 136.679 19.6032C136.068 22.4639 136.632 26.0385 138.228 29.1809C140.044 32.7559 143.257 33.6395 147.003 34.3237C150.849 35.0261 151.911 34.5923 155.545 33.3005L155.88 33.179C156.376 32.9909 158.698 32.0824 159.256 31.9136C160.431 31.5583 161.233 31.588 161.814 32.2072C162.039 32.4472 162.027 32.8242 161.787 33.0493C161.562 33.2604 161.217 33.2631 160.989 33.0649L160.945 33.0226C160.773 32.8399 160.419 32.8188 159.706 33.0233L159.601 33.0541C159.064 33.2164 156.546 34.2047 156.22 34.3237C152.295 35.7564 150.964 36.2585 146.789 35.4958C142.651 34.7401 139.141 33.6088 137.166 29.7205C135.449 26.3413 134.844 22.4898 135.514 19.3545C136.323 15.5649 137.821 12.683 140.084 10.5879C141.855 8.94796 143.619 7.91054 145.388 7.60249Z" fill="white"/>
<path d="M173.414 55.0064C170.018 54.8328 167.344 57.4558 167.316 60.9769C167.292 63.9436 168.963 66.3865 171.259 66.8597C172.187 67.0511 173.969 66.8209 175.291 66.0796C177.298 65.0031 178.832 62.79 179.026 60.9044C179.341 57.8323 176.854 55.1823 173.414 55.0064Z" fill="white"/>
<path d="M111.872 54.386C112.957 56.5771 114.641 61.6378 113.912 61.6135C111.889 61.5459 109.181 58.4354 107.287 54.2299L107.137 53.8916C105.484 50.0732 104.494 47.6744 105.643 47.2149C106.833 46.7396 109.633 49.864 111.872 54.386Z" fill="white"/>
<path fill-rule="evenodd" clip-rule="evenodd" d="M105.644 47.1672C106.833 46.6919 109.674 49.6736 111.913 54.1956C112.998 56.3866 113.734 58.4885 113.926 59.9957C113.926 59.9957 110.262 52.2762 108.028 49.4487C107.169 48.3626 105.644 47.1672 105.644 47.1672Z" fill="#E7EAEE"/>
<path d="M105.02 66.6082C105.107 66.291 105.435 66.1045 105.752 66.1918C106.07 66.279 106.256 66.607 106.169 66.9242C106.057 67.3323 104.479 68.4027 101.035 70.5252L98.8621 71.8552C94.5716 74.4671 91.7088 76.1384 91.3508 76.1384C88.982 76.1384 86.8473 73.9037 85.2889 70.3776C83.9282 67.2988 83.2217 63.634 83.5407 61.2324C83.6403 60.4828 86.1376 58.5424 89.9937 55.9428L90.546 55.5726C93.9574 53.3 96.8733 51.6145 97.9282 51.4017C98.2508 51.3366 98.565 51.5453 98.6301 51.8678C98.6708 52.0696 89.2676 59.9957 88.3491 65.2564C87.7271 68.8183 90.0784 74.8895 91.2454 74.9444L91.3508 74.9469C91.256 74.9469 91.2864 74.9248 91.2975 74.9185L91.405 74.8631C91.4841 74.8216 91.578 74.7709 91.6862 74.7115L92.1819 74.4342C92.3715 74.3268 92.5829 74.2057 92.814 74.0722L93.4053 73.7288C94.5342 73.0698 95.9427 72.2306 97.3792 71.3614L98.7456 70.5307C100.407 69.5155 101.908 68.5795 103.037 67.8526L103.618 67.475C103.978 67.2389 104.282 67.0346 104.525 66.8652L104.613 66.8033C104.747 66.7088 104.859 66.6275 104.946 66.5607C104.946 66.5607 105.044 66.5219 105.02 66.6082Z" fill="white"/>
<path fill-rule="evenodd" clip-rule="evenodd" d="M106.2 54.7192C104.761 51.5227 104.125 48.5935 104.607 46.8198C103.736 47.0966 102.647 47.5941 101.566 48.2142C100.129 49.0386 98.9886 49.9599 98.9621 50.1599C98.6843 52.2507 99.7502 56.3182 101.522 59.9445C103.416 63.8234 105.671 66.3148 107.416 66.3148C107.583 66.3148 108.061 66.2162 108.54 66.0488C109.222 65.8106 109.86 65.4637 110.383 65.0092C110.644 64.7832 110.913 64.5277 111.194 64.2426L111.533 63.8924C111.733 63.6811 111.939 63.4535 112.261 63.093L112.709 62.5923L112.729 62.5711C110.484 61.7508 108.136 58.8594 106.38 55.1099L106.2 54.7192ZM97.7809 50.003C97.9662 48.6082 103.188 45.5933 105.571 45.3986C105.671 45.336 105.778 45.2818 105.891 45.2364C107.955 44.4117 111.1 47.9442 113.622 52.9146L113.795 53.2597C114.934 55.5592 115.71 57.778 115.922 59.4377C116.175 61.4211 115.601 62.736 114.095 62.8033C114.055 62.9596 113.953 63.0902 113.817 63.169L113.794 63.1809L113.735 63.2396C113.676 63.3002 113.607 63.3755 113.499 63.4948L112.759 64.3211C112.491 64.6171 112.3 64.8179 112.042 65.0794C111.741 65.385 111.45 65.661 111.165 65.9086C110.012 66.9105 108.306 67.5063 107.416 67.5063C106.943 67.5063 106.465 67.3964 105.987 67.1866C105.475 67.7201 103.902 68.758 101.035 70.5253L98.8614 71.8553C94.5709 74.4672 91.7081 76.1385 91.3501 76.1385C90.5388 76.1385 89.755 75.8764 89.0124 75.39C89.0056 75.3948 88.9986 75.3995 88.9915 75.404L88.6881 75.5992C87.6326 76.2835 85.9448 77.4215 84.3793 78.4771L84.3791 78.4772L84.2814 78.5431C84.4841 79.9898 84.9448 81.4404 85.6655 82.8962C88.2242 82.1049 90.251 81.8376 90.8359 82.4327C91.4468 83.0543 91.9913 84.18 92.5074 85.8311C92.6056 86.1452 92.4306 86.4793 92.1166 86.5775C91.8025 86.6756 91.4684 86.5006 91.3702 86.1866C90.9238 84.7587 90.4684 83.7977 90.0377 83.3226L90.0199 83.304L90.0046 83.3048C89.923 83.2881 89.8008 83.2797 89.645 83.2828C89.3017 83.2894 88.8324 83.3499 88.272 83.461C87.1191 83.6894 85.6618 84.1143 84.2147 84.6481C80.9068 85.8683 78.3537 87.3804 77.829 88.5263C77.6755 88.8616 77.6951 89.3524 77.8787 90.104L77.9128 90.2393C77.9404 90.3458 77.9692 90.4513 78.0068 90.5849L78.222 91.3462C78.2309 91.3796 78.2398 91.4136 78.2509 91.4565C78.3336 91.775 78.1424 92.1002 77.8239 92.1828C77.5055 92.2655 77.1803 92.0744 77.0976 91.7559L76.9919 91.3706L76.8156 90.7488C76.7955 90.6753 76.7774 90.6073 76.7595 90.5384C76.4804 89.462 76.4355 88.7077 76.7457 88.0302C77.2717 86.8815 78.9172 85.6915 81.2085 84.6095L80.7102 83.3222L80.5871 82.9967C80.3984 82.4891 80.1787 81.8008 80.0441 81.2986C78.2541 82.2634 77.0074 82.4247 75.7584 81.7445L75.6612 81.6898C75.4142 81.5467 75.1762 81.3819 74.9361 81.1811L67.9538 85.422C68.0186 85.5619 68.0842 85.7028 68.1504 85.845C68.4637 86.5169 67.9111 86.9926 67.0636 87.3627L66.9722 87.4016C66.2438 87.7033 65.5864 87.7725 65.1951 87.343C63.5714 85.5608 61.8526 81.2979 62.7773 80.3229C62.9548 80.1356 63.4236 79.8569 64.31 79.3919L64.3808 79.3551C64.3989 79.3426 64.4178 79.331 64.4375 79.3203L70.9644 75.7841C70.9794 75.776 70.9946 75.7686 71.0099 75.7619C70.6067 75.0953 70.1648 74.3531 69.6762 73.525C69.6032 73.407 69.5754 73.2694 69.5923 73.1366C69.6041 73.0436 69.6378 72.9531 69.6932 72.8732C69.7184 72.8367 69.7479 72.8027 69.7815 72.7721C71.1233 71.4994 72.952 70.1724 75.2458 68.7434L75.5239 68.5711C76.5166 67.9591 78.53 66.8107 80.2404 65.8352L80.2405 65.8351C81.5671 65.0785 82.7116 64.4258 83.0562 64.2078L83.1397 64.1524C83.2643 64.0612 83.4126 64.0255 83.5549 64.0408C83.4416 63.0075 83.4318 62.0473 83.54 61.2325C83.6396 60.4829 86.1369 58.5425 89.993 55.9429L90.5453 55.5727C93.7772 53.4196 96.5645 51.7935 97.7458 51.4474C97.7141 50.914 97.7245 50.428 97.7809 50.003ZM97.8763 52.6555C96.719 53.0786 93.8211 54.799 90.659 56.9308L90.1526 57.2743C88.7296 58.2453 87.4149 59.192 86.4219 59.9635L86.1461 60.18C85.703 60.5311 85.3443 60.8337 85.0843 61.0764C84.954 61.1981 84.8511 61.3022 84.7786 61.3851L84.7279 61.4449C84.7169 61.4563 84.7139 61.4519 84.718 61.4145L84.7211 61.3894C84.7199 61.399 84.7188 61.4073 84.718 61.4145L84.7023 61.5423C84.1295 66.57 87.7649 74.7808 91.2447 74.9445L91.3266 74.9464C91.3334 74.9468 91.3412 74.947 91.3501 74.947L91.3266 74.9464C91.2608 74.9429 91.2867 74.9242 91.2968 74.9186L91.4042 74.8632C91.4833 74.8217 91.5773 74.771 91.6855 74.7116L92.1812 74.4343C92.3708 74.3269 92.5822 74.2058 92.8133 74.0723L93.4046 73.7289C94.5335 73.0698 95.9419 72.2307 97.3785 71.3615L98.7449 70.5308C100.406 69.5156 101.908 68.5796 103.036 67.8527L103.617 67.4751C103.977 67.239 104.281 67.0346 104.524 66.8653L104.613 66.8034C104.741 66.7126 104.849 66.634 104.935 66.5688C103.4 65.4427 101.889 63.363 100.548 60.6634L100.451 60.4675C99.1582 57.821 98.2233 54.9551 97.8763 52.6555ZM83.7193 65.1959C83.2894 65.4665 82.0214 66.1905 80.6105 66.9962L80.6104 66.9962C78.9385 67.9509 77.0659 69.0202 76.1492 69.5854C73.984 70.9202 72.2378 72.1577 70.9415 73.3228L71.3708 74.0471C73.2496 77.1993 74.3376 78.8582 75.2127 79.7953C74.922 79.1058 74.7713 78.2306 74.7713 77.1331C74.7713 77.0825 74.7776 77.0334 74.7895 76.9866C74.7317 76.7584 74.813 76.5077 75.0145 76.3598L75.4202 76.0582C75.6636 75.8743 76.064 75.5683 76.5192 75.2204L76.5195 75.2202L76.5197 75.22C77.5161 74.4586 78.7748 73.4967 79.224 73.1749C80.6368 72.1629 81.6782 71.595 82.6264 71.3979C83.0793 71.3038 83.4312 71.5718 83.5332 71.9867L83.5499 72.0622C83.5736 72.1857 83.578 72.3072 83.5774 72.5725L83.5771 72.6565C83.5722 73.6479 83.6705 74.22 84.0903 74.8808C84.3776 75.333 84.7998 75.7456 85.388 76.1152C85.4495 76.1539 85.5016 76.2019 85.5435 76.2564C86.4924 75.6191 87.3812 75.0265 88.0369 74.6014C87.0037 73.6012 86.0729 72.1531 85.2882 70.3777C84.5573 68.724 84.0152 66.9012 83.7193 65.1959ZM114.74 59.5884C114.548 58.0812 113.812 55.9793 112.727 53.7883C110.488 49.2663 107.523 45.8675 106.333 46.3428C105.183 46.8023 105.484 50.0733 107.137 53.8916L107.287 54.2299C109.181 58.4355 111.888 61.5459 113.912 61.6135C114.641 61.6379 114.926 61.0428 114.74 59.5884ZM71.6254 76.7692C72.6589 78.4401 73.414 79.5441 74.0719 80.3119L67.4526 84.3323C66.7746 82.8459 66.168 81.4623 65.5795 80.0567L71.532 76.8317C71.5657 76.8135 71.5968 76.7925 71.6254 76.7692ZM84.523 83.272C83.8806 81.9436 83.4369 80.6114 83.1931 79.2764C82.3377 79.8521 81.5934 80.3503 81.115 80.6612C81.1969 81.0722 81.5015 82.0479 81.7639 82.7416L82.2528 84.0001L82.2994 84.1229C82.7799 83.9201 83.2821 83.7221 83.8024 83.5302L84.1463 83.405C84.2727 83.3597 84.3982 83.3153 84.523 83.272ZM84.5016 76.9574C83.8915 76.5344 83.4235 76.0532 83.0846 75.5197C82.536 74.6562 82.392 73.9189 82.3857 72.8049L82.3854 72.7052L82.3012 72.7367C81.697 72.9713 80.9762 73.3954 80.0705 74.035L79.9178 74.1436C79.4867 74.4524 78.2598 75.3899 77.27 76.1463L77.2697 76.1465L77.2694 76.1468L77.2689 76.1472L77.2687 76.1473C76.7186 76.5677 76.2419 76.9319 76.016 77.1011L75.9628 77.1404C75.964 79.1224 76.4587 80.0319 77.3788 80.473L77.4525 80.5069C77.6718 80.604 77.8283 80.6528 78.2754 80.7752C78.2843 80.7776 78.2931 80.7803 78.3018 80.7831C78.7659 80.6271 79.2976 80.3666 79.9327 79.9941L80.1693 79.8521C80.6938 79.5251 82.1017 78.5757 83.6503 77.5313L83.6509 77.531L83.6515 77.5305L84.5016 76.9574ZM64.5265 80.6265L64.6179 80.8438C65.2506 82.3441 65.9081 83.8298 66.6543 85.4503L66.9445 86.0789C66.8494 86.1428 66.7243 86.2107 66.5868 86.2708C66.3893 86.357 66.1888 86.4176 66.038 86.4379L65.99 86.4427L65.9175 86.3557C65.3535 85.6614 64.6989 84.4817 64.2259 83.3086C63.974 82.6838 63.7946 82.1106 63.7137 81.6703C63.6807 81.4909 63.6655 81.3402 63.6668 81.2259L63.6703 81.1505C63.6714 81.1322 63.6715 81.1227 63.667 81.1214L63.6848 81.1093C63.7855 81.0398 64.0428 80.8893 64.425 80.6816L64.5265 80.6265ZM72.7446 79.314C72.5142 79.0791 72.137 79.0755 71.9021 79.3059C71.489 79.7112 70.91 80.0886 69.8988 80.65L68.8697 81.2211C68.5978 81.376 68.3751 81.5095 68.1735 81.6403C68.0051 81.7496 67.8545 81.8551 67.7192 81.9597C67.4589 82.1608 67.4109 82.535 67.6121 82.7953C67.8133 83.0557 68.1874 83.1037 68.4478 82.9025C68.5552 82.8194 68.6794 82.7324 68.822 82.6399C68.9536 82.5546 69.0982 82.4661 69.2656 82.3682L69.5937 82.1805L70.6391 81.6013C71.6434 81.0376 72.2486 80.6351 72.7365 80.1565C72.9714 79.9261 72.975 79.5489 72.7446 79.314Z" fill="#00160A"/>
<path d="M59.4189 139.813C62.3981 156.423 73.5641 168.91 87.8124 171.854C90.4279 172.394 94.9568 172.465 99.6465 171.858C105.689 171.076 111.569 169.283 116.741 166.375C130.948 158.74 141.728 143.157 143.125 129.515C144.352 117.533 139.775 106.463 131.488 98.566C131.488 98.566 105.455 111.352 92.676 118.62C81.556 124.944 59.4189 139.813 59.4189 139.813Z" fill="white"/>
<path d="M120.045 90.2807C114.705 87.6462 108.015 85.5651 101.455 85.2297C77.3946 83.9995 58.4717 103.22 58.2744 128.012C58.2744 128.012 85.128 110.907 99.079 102.654C106.02 98.5488 120.045 90.2807 120.045 90.2807Z" fill="white"/>
<path fill-rule="evenodd" clip-rule="evenodd" d="M169.533 77.646C169.452 81.7881 165.069 88.6821 158.024 96.4836C152.92 102.135 146.981 107.597 142.001 111.278L141.691 111.505L141.897 112.42C143.108 117.727 144.689 123.497 144.092 129.315C142.642 143.436 131.596 159.368 117 167.196C111.677 170.182 105.626 172.024 99.4184 172.825L98.8266 172.899C94.1984 173.444 89.7696 173.353 87.063 172.795C76.5576 170.629 67.6635 163.286 62.2863 152.657C62.2682 152.622 62.2541 152.585 62.2437 152.548C61.5357 152.952 60.5833 153.403 60.1484 153.551L58.9566 153.953C46.1135 158.273 33.3811 161.887 28.1798 159.632C26.1997 158.773 25.5229 157.121 26.351 154.903C27.1557 152.747 29.3871 149.968 33.1308 146.511L33.3365 146.321C36.8839 143.07 44.7617 137.127 56.97 128.495L56.9731 128.336C57.5688 102.757 77.4377 83.2577 102.412 84.8495C110.051 85.3363 116.135 88.051 119.173 89.7178L120.509 89.0008C133.042 82.2996 143.098 77.5891 150.77 74.7697C163.388 70.1331 169.628 72.3009 169.533 77.646ZM151.181 77.5173C137.072 82.7019 114.775 94.3622 83.7302 113.119L82.7868 113.689C58.6131 128.323 42.6058 139.441 34.1416 147.2L33.7245 147.585L33.3289 147.956C26.9751 153.959 25.8489 157.322 28.6538 158.538C33.4554 160.621 46.35 157.11 58.9777 152.968L60.1484 152.582C61.2745 152.209 62.0213 151.995 62.4835 151.896C62.5036 151.882 62.5257 151.869 62.5489 151.857C62.7069 151.777 62.8836 151.774 63.0363 151.834C63.0694 151.84 63.091 151.851 63.1023 151.865C63.2052 151.921 63.2926 152.007 63.3494 152.12C68.5695 162.437 77.1712 168.725 87.3036 170.814C89.9338 171.356 94.3712 171.435 98.9886 170.864L99.2658 170.829C105.33 170.046 111.236 169.063 116.427 166.151C130.691 158.502 141.498 142.914 142.906 129.193C143.508 123.329 142.74 117.573 140.698 112.216C140.529 112.334 140.362 112.45 140.196 112.563C139.883 112.777 140 112.43 140.547 111.524C140.576 111.406 140.642 111.298 140.735 111.217L140.904 110.95C140.963 110.857 141.025 110.76 141.09 110.659L141.796 110.064C148.451 104.435 153.566 99.642 157.139 95.685L157.547 95.2309C164.16 87.8313 168.27 81.2952 168.338 77.6239C168.412 73.5966 163.099 73.1379 151.181 77.5173ZM91.3577 152.859C92.9562 157.745 90.5381 160.887 86.2812 161.05C82.348 161.2 78.7663 158.721 78.9489 155.199C79.1067 152.155 81.1908 148.901 83.7567 147.706C86.8599 146.261 89.7724 148.015 91.3577 152.859ZM84.3855 149.057C82.3322 150.013 80.5662 152.77 80.4363 155.276C80.3069 157.772 83.0661 159.682 86.2245 159.561C89.5265 159.435 91.2216 157.233 89.9422 153.323C88.6102 149.252 86.5848 148.032 84.3855 149.057ZM123.857 142.904C125.897 146.758 125.363 150.544 122.227 152.241L122.139 152.287L122.094 152.333C117.888 156.497 112.634 157.003 109.208 153.984L109.09 153.879C105.144 150.263 106.084 144.052 112.364 139.183C116.405 136.05 121.342 138.151 123.857 142.904ZM113.146 140.192C107.445 144.612 106.644 149.906 109.953 152.937C112.326 155.111 115.833 155.232 119.108 153.121L119.172 153.079L119.148 153.074C118.921 153.014 118.739 152.831 118.688 152.593L118.677 152.532C118.636 152.182 118.886 151.864 119.236 151.823C120.037 151.728 120.732 151.535 121.321 151.258L121.402 151.219L121.499 151.118C121.884 150.713 122.259 150.273 122.622 149.797L122.743 149.637C122.88 149.454 123.095 149.366 123.307 149.383L123.323 149.384L123.332 149.368C124.097 147.857 123.915 145.809 122.796 143.629L122.729 143.501C120.542 139.368 116.453 137.628 113.146 140.192ZM151.11 94.381C150.782 95.5466 149.784 97.1461 148.253 99.0402C145.585 102.342 141.577 106.186 138.073 108.814L138.851 107.959C138.843 107.952 138.836 107.943 138.831 107.933L138.562 107.44C136.809 104.24 134.856 101.083 131.7 98.5098C123.529 101.879 114.16 106.484 105.624 111.299L102.826 112.88C82.223 124.551 71.3832 131.539 59.7916 140.128C60.2292 142.099 60.7804 144.021 61.4407 145.884C61.5443 146.177 60.1906 147.271 59.9428 147.136C57.6304 148.685 54.0093 149.811 51.9478 149.869C49.9387 149.926 48.778 149.113 49.3759 147.491C49.8761 146.134 51.7605 144.2 55.1516 141.607L55.5382 141.313L56.3199 140.726C69.0825 131.171 81.7173 123.417 105.039 110.261L106.015 109.713C122.01 100.785 140.533 92.741 149.017 91.9987C150.761 91.8462 151.552 92.8112 151.11 94.381ZM58.2396 141.284L55.5655 143.302C53.1801 145.111 51.4603 146.449 50.5314 147.307L50.4632 147.37C49.3293 148.434 50.6127 148.715 51.914 148.678C53.885 148.622 56.9046 147.127 59.4605 145.767C58.9881 144.304 58.5806 142.808 58.2396 141.284ZM100.067 134.815C100.385 134.896 100.578 135.221 100.497 135.54C100.416 135.858 100.092 136.051 99.7733 135.97C98.1713 135.564 97.2249 135.72 96.9179 136.151C96.7142 136.437 96.827 136.925 97.2079 137.237C97.5056 137.48 97.9018 137.597 98.1746 137.537C98.4116 137.486 98.5445 137.303 98.5445 136.846C98.5445 136.517 98.8112 136.25 99.1403 136.25C99.4693 136.25 99.736 136.517 99.736 136.846C99.736 137.84 99.2383 138.525 98.428 138.702C97.7765 138.843 97.0176 138.621 96.4535 138.159C95.6207 137.478 95.3486 136.301 95.9471 135.46C96.6031 134.538 98.0409 134.301 100.067 134.815ZM73.8969 132.628C74.8157 132.904 75.2113 133.609 75.3362 134.668L75.3485 134.782L75.3637 134.956C75.3658 134.985 75.3678 135.015 75.3698 135.047L75.4011 135.652L75.4105 135.788C75.4154 135.848 75.4206 135.897 75.4268 135.94L75.4427 136.032L75.4524 136.072L75.469 136.086C75.6529 136.266 75.7017 136.549 75.5828 136.782L75.5524 136.835C75.374 137.111 75.0053 137.191 74.7288 137.012C74.3483 136.767 74.2618 136.514 74.2157 135.79L74.1779 135.081C74.1735 135.016 74.1688 134.961 74.1627 134.898C74.0949 134.204 73.9258 133.881 73.5549 133.77C72.5143 133.458 71.9171 133.776 71.728 134.472C71.5594 135.092 71.8033 135.743 72.2302 135.924L72.3384 135.964C72.6175 136.083 72.7653 136.398 72.6712 136.693C72.5712 137.006 72.2361 137.179 71.9226 137.079C70.7881 136.718 70.2491 135.37 70.5782 134.159C70.9456 132.808 72.2233 132.127 73.8969 132.628ZM116.878 123.506C118.528 125.825 118.221 128.776 115.574 130.112C115.281 130.26 114.922 130.142 114.774 129.848C114.626 129.555 114.744 129.196 115.038 129.048C116.954 128.081 117.173 125.976 115.907 124.197C114.678 122.468 112.967 122.278 111.79 124.146C110.544 126.126 110.634 127.288 111.532 127.812C112.245 128.227 113.392 128.14 113.708 127.8L113.738 127.763C113.929 127.495 114.301 127.432 114.569 127.623C114.837 127.814 114.9 128.186 114.709 128.454C114.047 129.384 112.157 129.555 110.932 128.841C109.364 127.927 109.214 126.002 110.782 123.511C112.462 120.844 115.201 121.148 116.878 123.506ZM92.1783 120.09C92.488 120.09 92.7424 120.326 92.7713 120.628L92.774 120.686C92.774 120.791 92.8715 120.908 93.2212 121.164L93.5519 121.401C93.9126 121.665 94.0865 121.828 94.2508 122.088C94.6264 122.681 94.8393 123.286 94.8393 123.997C94.8393 125.818 92.1041 128.294 89.1185 129.396C85.5394 130.717 82.6071 129.738 81.8092 126.065C81.7393 125.744 81.9433 125.426 82.2648 125.356C82.5864 125.287 82.9036 125.491 82.9735 125.812C83.5928 128.662 85.7308 129.377 88.7059 128.279C91.275 127.33 93.6479 125.182 93.6479 123.997C93.6479 123.539 93.5083 123.143 93.2438 122.724L93.2079 122.674C93.1472 122.598 93.0524 122.515 92.8816 122.388L92.4886 122.105C91.8355 121.623 91.5826 121.298 91.5826 120.686C91.5826 120.357 91.8493 120.09 92.1783 120.09ZM94.9748 87.0695L94.5986 87.1118C74.2694 89.5566 59.0187 105.816 58.187 127.636L60.3683 126.101C66.6291 121.706 73.8962 116.686 82.1698 111.041L83.7819 110.067C88.5948 107.163 93.1966 104.43 97.5896 101.867C97.5094 101.726 97.487 101.554 97.5413 101.388C97.8484 100.45 98.1323 99.8203 98.6524 99.1893C100.28 97.2146 102.51 96.2501 104.09 97.49C104.246 97.6121 104.324 97.7961 104.318 97.9797L105.721 97.1788C110.141 94.663 114.323 92.3394 118.27 90.2049L116.728 89.7664C114.442 89.1229 111.598 88.3597 108.765 87.7722C108.79 89.6574 107.379 91.1629 105.035 92.1983C103.042 93.0786 100.445 93.5522 98.5979 93.4421C95.1432 93.2361 93.1987 90.2061 94.9748 87.0695ZM130.636 112.942C132.094 116.925 130.891 120.547 127.251 120.523C122.064 120.489 116.999 115.961 117.818 111.904C118.183 110.094 119.544 108.493 121.91 107.694C125.688 106.418 129.152 108.887 130.636 112.942ZM122.291 108.823C120.336 109.483 119.269 110.739 118.986 112.139C118.336 115.359 122.746 119.302 127.258 119.332C129.843 119.348 130.732 116.672 129.517 113.351C128.231 109.838 125.356 107.788 122.291 108.823ZM78.4842 94.7193L78.5267 94.7806L78.8134 95.2367C78.9539 95.4682 79.0797 95.6953 79.1994 95.9401C80.5189 98.6379 80.4848 102.174 78.2519 107.084C77.2403 109.307 74.6634 112.296 72.413 114.08C69.5395 116.357 67.3941 116.874 64.8333 116.593L64.0736 116.504L63.9808 116.496C63.93 116.492 63.8976 116.492 63.8619 116.493L63.8098 116.495C63.7702 116.497 63.7564 116.495 63.7541 116.49L63.754 116.486L63.7348 116.516C63.5621 116.764 63.2265 116.846 62.9569 116.696C62.6694 116.536 62.566 116.173 62.7259 115.886C62.9401 115.501 63.2979 115.326 63.7534 115.305C63.874 115.299 64.0016 115.303 64.1535 115.316L64.3312 115.333L64.8227 115.393C67.1552 115.676 69.011 115.256 71.6729 113.146C73.7867 111.471 76.2434 108.621 77.1673 106.59C79.2569 101.996 79.2874 98.8319 78.1291 96.4636C78.0519 96.3059 77.9715 96.1561 77.8843 96.0056L77.7596 95.7972L77.5098 95.4022C77.335 95.1235 77.4192 94.7558 77.698 94.581C77.9593 94.4171 78.2988 94.481 78.4842 94.7193ZM149.121 93.1856C145.312 93.5188 139.342 95.4002 132.459 98.1986L132.66 98.3766C134.576 100.095 138.441 104.17 139.65 107.077L140.855 105.741C143.828 102.434 145.985 99.951 147.326 98.2913L147.598 97.951C148.88 96.3243 149.708 94.9651 149.963 94.0582L150 93.9205C150.159 93.2658 149.974 93.1109 149.121 93.1856ZM92.0763 95.1209C93.559 95.8378 94.1608 97.4336 93.1853 98.8806C93.0014 99.1534 92.6311 99.2255 92.3583 99.0416C92.0855 98.8577 92.0134 98.4874 92.1973 98.2146C92.7339 97.4187 92.4312 96.616 91.5576 96.1936C90.6377 95.7488 89.6297 96.0046 89.1095 96.9756C88.6302 97.8702 88.5972 99.0815 88.98 99.8749C89.3159 100.571 89.8049 100.705 90.5511 100.143C90.8139 99.9452 91.1875 99.9979 91.3853 100.261C91.5832 100.524 91.5305 100.897 91.2677 101.095C89.9081 102.118 88.5622 101.751 87.9068 100.393C87.3574 99.2537 87.4012 97.641 88.0592 96.4129C88.8986 94.8462 90.6098 94.4119 92.0763 95.1209ZM99.5718 99.9471C99.294 100.284 99.0955 100.64 98.9116 101.096C100.447 100.204 101.956 99.3328 103.439 98.4822L103.396 98.457L103.355 98.4273C102.445 97.7134 100.841 98.4069 99.5718 99.9471ZM97.0312 86.8872L96.5101 86.9238L96.4753 86.9678C94.4158 89.5705 95.2091 91.683 98.0215 91.9829C100.041 92.1983 105.404 90.6997 106.033 90.1738C106.645 89.6615 107.42 88.4833 107.539 87.529C105.72 87.1868 103.939 86.9352 102.351 86.854C100.729 86.771 99.1285 86.773 97.5548 86.8564L97.0312 86.8872Z" fill="#00160A"/>
<path d="M150.82 77.665C163.437 73.0283 163.148 74.404 151.231 78.7833C137.122 83.968 83.8649 116.454 83.8649 116.454C59.6912 131.088 57.8828 128.829 81.3136 114.589L82.7579 113.713C83.03 113.548 109.706 96.712 128.768 87.7045C130.913 86.6909 149.383 78.1928 150.82 77.665Z" fill="white"/>
<path fill-rule="evenodd" clip-rule="evenodd" d="M172.607 54.582C168.697 54.3821 165.645 57.4204 165.614 61.3957C165.587 64.7263 167.498 67.5544 170.236 68.1188C170.957 68.2675 173.037 68.2675 174.842 67.2552L174.991 67.1728C177.267 65.8844 178.815 63.4333 179.022 61.4169C179.389 57.842 176.517 54.7819 172.607 54.582ZM166.465 61.4024C166.465 61.3768 166.465 61.3512 166.466 61.3256C166.49 61.3178 166.514 61.3076 166.537 61.2951C169.603 59.6438 171.495 58.3854 172.25 57.4768C172.749 56.8769 172.993 56.2002 172.973 55.465C173.488 55.5219 173.978 55.6348 174.438 55.7966C174.435 55.8186 174.434 55.8411 174.435 55.864C174.473 56.9221 174.191 57.768 173.591 58.4265C172.902 59.1834 172.067 59.9036 171.118 60.5828C170.103 61.3089 169.013 61.9501 167.924 62.4991C167.67 62.6271 167.428 62.7439 167.201 62.8491L166.872 62.9983C166.824 63.0192 166.781 63.0384 166.741 63.0559L166.643 63.0971C166.522 62.5604 166.46 61.9918 166.465 61.4024ZM166.882 63.9197C167.151 64.667 167.542 65.3294 168.025 65.8688L168.279 65.7225C172.28 63.4065 174.763 61.5872 175.703 60.3037C176.653 59.006 176.992 58.0097 176.779 57.3321C176.774 57.3162 176.77 57.3002 176.767 57.2842C176.348 56.8446 175.85 56.4668 175.288 56.1686C175.264 57.2933 174.909 58.2432 174.22 58.9995C173.488 59.8042 172.608 60.5629 171.613 61.2749C170.56 62.0288 169.433 62.6917 168.307 63.2591C167.978 63.4247 167.669 63.5721 167.384 63.7012L167.053 63.8482L166.882 63.9197ZM170.068 67.1996C169.565 67.0494 169.097 66.8028 168.676 66.4764C172.793 64.0946 175.356 62.2178 176.389 60.8066C177.031 59.9311 177.44 59.1438 177.607 58.4412C177.814 58.8281 177.971 59.2405 178.072 59.6713C178.05 59.7152 178.036 59.7636 178.03 59.815C177.927 60.8099 177.414 61.7974 176.476 62.7808C175.576 63.7246 173.634 65.0863 170.667 66.8469L170.068 67.1996ZM171.506 67.3373C172.42 67.2793 173.537 67.0114 174.44 66.5052C176.119 65.6047 177.467 63.9089 177.976 62.2748C177.73 62.6438 177.435 63.0083 177.092 63.3681C176.168 64.3372 174.311 65.6547 171.506 67.3373ZM166.712 60.2311L166.561 60.3134C167.044 57.5014 169.29 55.4835 172.12 55.4251C172.15 55.9776 171.978 56.4734 171.596 56.9327C170.979 57.675 169.341 58.7862 166.712 60.2311Z" fill="#00160A"/>
<path fill-rule="evenodd" clip-rule="evenodd" d="M203.328 46.4277C203.407 46.4368 203.463 46.5086 203.454 46.5875C203.453 46.7036 203.378 46.7664 203.278 46.8072C203.187 46.8435 203.043 46.8296 202.959 46.841C202.037 46.9121 201.313 46.234 200.994 45.36C200.688 44.5204 200.769 43.5165 201.325 42.8973C201.389 42.8243 201.5 42.817 201.573 42.881C201.646 42.9449 202.06 43.0561 201.996 43.1291C201.538 43.6639 201.228 43.9884 201.66 45.258C202.093 46.5275 203.269 46.4209 203.328 46.4277Z" fill="#E7EAEE"/>
<path fill-rule="evenodd" clip-rule="evenodd" d="M56.5961 55.5173C56.354 55.351 56.0228 55.4125 55.8566 55.6547C55.6903 55.8969 55.7518 56.228 55.994 56.3943C56.2601 56.577 56.4952 56.7456 56.7027 56.9023C56.4792 57.0802 56.2559 57.2839 56.024 57.5158L55.5536 57.9936C55.3467 58.2023 55.3482 58.5391 55.5569 58.7459C55.7655 58.9527 56.1023 58.9512 56.3091 58.7425L56.8735 58.1721C57.1032 57.9484 57.3185 57.7613 57.535 57.6058C58.016 58.0825 58.1624 58.4322 58.1703 58.7797L58.1703 58.8689L58.173 58.9233C58.2003 59.1915 58.4268 59.4008 58.7022 59.4008C58.996 59.4008 59.2341 59.1626 59.2341 58.8689L59.234 58.7643C59.2241 58.2224 59.0329 57.7071 58.5181 57.1181C58.8582 57.0168 59.2413 56.9601 59.706 56.9358C59.9994 56.9205 60.2248 56.6703 60.2094 56.3769C60.1941 56.0835 59.9439 55.8581 59.6505 55.8734C58.8438 55.9156 58.2168 56.05 57.6583 56.3055C57.4251 56.1149 57.1609 55.9148 56.8624 55.703L56.5961 55.5173Z" fill="#00160A"/>
<path fill-rule="evenodd" clip-rule="evenodd" d="M136.299 172.073L136.668 172.075C138.731 172.094 140.342 172.28 143.377 172.767C143.725 172.823 143.962 173.151 143.906 173.499C143.85 173.847 143.523 174.084 143.175 174.028L142.18 173.871C139.669 173.486 138.222 173.35 136.299 173.35C129.628 173.35 125.37 177.526 126.091 183.93C126.13 184.28 125.878 184.596 125.528 184.636C125.177 184.675 124.861 184.423 124.822 184.073C124.011 176.87 128.903 172.073 136.299 172.073ZM141.465 174.651L141.403 174.596C141.343 174.544 141.251 174.551 141.2 174.612C141.147 174.672 141.155 174.763 141.215 174.815L141.28 174.87C141.34 174.921 141.43 174.914 141.483 174.854C141.534 174.793 141.527 174.702 141.465 174.651ZM129.899 175.986C129.67 175.802 129.335 175.838 129.151 176.067C128.408 176.992 127.866 177.893 127.528 178.772C127.2 179.627 127.088 181.065 127.173 183.12L127.193 183.554C127.209 183.847 127.459 184.072 127.753 184.057C128.046 184.041 128.271 183.791 128.256 183.498C128.143 181.351 128.239 179.888 128.521 179.154C128.817 178.384 129.302 177.577 129.98 176.733C130.164 176.504 130.128 176.17 129.899 175.986ZM135.704 174.226C135.965 174.091 136.286 174.193 136.421 174.453C136.556 174.714 136.454 175.035 136.193 175.17C135.113 175.73 134.288 176.668 133.712 178.006C133.095 179.441 132.59 180.722 132.198 181.848C132.101 182.126 131.797 182.272 131.52 182.175C131.243 182.078 131.096 181.775 131.193 181.498C131.595 180.347 132.109 179.043 132.735 177.586C133.404 176.031 134.395 174.904 135.704 174.226ZM138.796 174.198C138.603 173.977 138.266 173.955 138.046 174.148C137.158 174.926 136.476 175.634 135.998 176.275C135.524 176.912 134.969 177.865 134.326 179.14C134.194 179.402 134.3 179.722 134.562 179.854C134.824 179.986 135.144 179.881 135.276 179.618C135.894 178.394 136.421 177.489 136.852 176.91C137.279 176.336 137.911 175.681 138.747 174.948C138.968 174.755 138.99 174.419 138.796 174.198ZM136.854 180.205C136.633 180.398 136.297 180.376 136.103 180.155C135.91 179.934 135.932 179.598 136.153 179.405C136.989 178.672 137.621 178.017 138.048 177.443C138.479 176.864 139.006 175.959 139.623 174.734C139.755 174.472 140.075 174.367 140.337 174.499C140.6 174.631 140.705 174.951 140.573 175.213C139.931 176.488 139.376 177.441 138.902 178.078C138.424 178.719 137.742 179.427 136.854 180.205ZM132.827 174.659C132.585 174.492 132.254 174.553 132.087 174.795C130.898 176.517 130.138 177.804 129.802 178.678C129.466 179.555 129.233 180.737 129.098 182.232C129.071 182.524 129.287 182.783 129.579 182.809C129.872 182.836 130.131 182.62 130.157 182.328C130.284 180.923 130.499 179.831 130.796 179.059C131.072 178.34 131.716 177.23 132.723 175.748L132.962 175.399C133.129 175.158 133.068 174.826 132.827 174.659Z" fill="#00160A"/>
<path fill-rule="evenodd" clip-rule="evenodd" d="M122.729 171.522L123.096 172.337L123.931 172.577C123.976 172.59 124.002 172.637 123.989 172.682C123.985 172.696 123.978 172.709 123.968 172.719L123.333 173.351L123.368 174.261C123.37 174.307 123.334 174.347 123.287 174.349C123.271 174.35 123.255 174.346 123.241 174.338L122.522 173.928C122.5 173.916 122.473 173.914 122.449 173.923L121.68 174.229C121.637 174.246 121.587 174.225 121.57 174.181C121.564 174.166 121.562 174.15 121.565 174.134L121.727 173.239L121.186 172.524C121.158 172.487 121.165 172.434 121.203 172.405C121.214 172.397 121.228 172.391 121.242 172.389L122.103 172.268L122.579 171.512C122.604 171.472 122.657 171.46 122.697 171.485C122.711 171.494 122.722 171.507 122.729 171.522Z" fill="#00160A"/>
<path fill-rule="evenodd" clip-rule="evenodd" d="M152.328 57.4849C152.524 57.6585 152.768 57.9716 152.984 58.3104L153.261 58.1871L153.59 58.0465C153.656 58.0163 153.698 57.9927 153.711 57.9735C153.749 57.9031 153.836 57.8763 153.908 57.9137C153.977 57.951 154.005 58.0383 153.967 58.1086C153.941 58.1754 153.757 58.385 153.414 58.59C153.352 58.6272 153.284 58.6617 153.21 58.6954C153.336 58.9316 153.435 59.1598 153.482 59.3428C153.552 59.6126 153.496 59.8038 153.404 59.871C153.313 59.9375 153.085 59.9499 152.739 59.6621C152.675 59.6135 152.665 59.5227 152.713 59.4597C152.761 59.3968 152.852 59.3852 152.916 59.4338C152.982 59.4824 153.048 59.51 153.102 59.5299L153.076 59.4266C153.065 59.3897 153.053 59.3512 153.035 59.3136C152.973 59.1778 152.894 59.0226 152.805 58.8633C152.534 58.9657 152.226 59.0585 151.893 59.1032C151.73 59.125 151.565 59.1293 151.393 59.1279C151.294 59.1344 151.208 59.0594 151.202 58.9603C151.195 58.8614 151.27 58.7758 151.369 58.7692C151.77 58.7306 152.14 58.6293 152.468 58.5155L152.575 58.4769C152.398 58.2003 152.208 57.949 152.046 57.8071C151.958 57.7292 151.949 57.5937 152.026 57.5049C152.105 57.4157 152.24 57.4068 152.328 57.4849Z" fill="#00160A"/>
<path fill-rule="evenodd" clip-rule="evenodd" d="M29.8229 117.972C28.457 118.062 26.2909 118.41 24.5203 119.112C23.0057 119.714 23.0057 136.064 28.1837 137.368C33.3319 139.085 38.961 136.812 38.2889 128.062C38.2768 127.879 38.1287 127.381 37.9588 126.811C37.7101 125.975 37.4149 124.984 37.4327 124.596C37.5026 123.222 37.1416 122.064 36.1888 121.337C35.1623 119.161 33.1507 117.758 29.8229 117.972ZM29.0816 133.387C26.5474 131.494 26.6364 122.657 29.5286 122.066C31.3285 123.45 32.9715 125.448 33.5257 129.297C32.9055 131.417 31.5962 132.643 30.4515 133.716C30.329 133.83 30.2084 133.943 30.0908 134.055C29.764 133.87 29.4273 133.643 29.0816 133.387Z" fill="white"/>
<path fill-rule="evenodd" clip-rule="evenodd" d="M26.2003 130.084C25.9706 128.709 26.1273 127.171 26.8184 125.528C27.1318 124.784 27.9559 124.178 28.9868 123.77C30.1919 123.295 31.6661 123.059 32.5957 122.998C34.8604 122.852 36.229 123.8 36.927 125.272C37.5752 125.763 37.8205 126.547 37.7726 127.476C37.752 127.917 38.3341 129.515 38.3543 129.82C38.8092 135.737 34.9778 137.276 31.4748 136.116C30.1439 136.793 28.8601 136.905 27.8941 136.187C27.0274 135.546 26.3621 134.193 26.2098 131.808C26.1692 131.193 26.166 130.618 26.2003 130.084ZM32.4138 126.187C30.4038 126.582 30.3198 132.384 32.0749 133.621C32.3143 133.788 32.5476 133.936 32.7741 134.057C33.6224 133.292 34.2551 132.674 34.614 131.408C34.973 130.143 33.6603 127.091 32.4138 126.187Z" fill="#ADB1B6"/>
<path fill-rule="evenodd" clip-rule="evenodd" d="M89.517 192.699C89.2749 192.532 88.9437 192.594 88.7775 192.836C88.6112 193.078 88.6727 193.409 88.9149 193.576C89.1809 193.758 89.416 193.927 89.6235 194.084C89.4 194.261 89.1768 194.465 88.9449 194.697L88.4745 195.175C88.2676 195.383 88.2691 195.72 88.4778 195.927C88.6864 196.134 89.0232 196.132 89.23 195.924L89.7944 195.353C90.0241 195.13 90.2393 194.942 90.4559 194.787C90.9369 195.264 91.0833 195.613 91.0912 195.961L91.0912 196.05L91.0939 196.104C91.1212 196.373 91.3477 196.582 91.6231 196.582C91.9169 196.582 92.155 196.344 92.155 196.05L92.1549 195.946C92.145 195.404 91.9538 194.888 91.4389 194.299C91.779 194.198 92.1622 194.141 92.6269 194.117C92.9203 194.102 93.1457 193.851 93.1303 193.558C93.115 193.265 92.8648 193.039 92.5714 193.055C91.7646 193.097 91.1377 193.231 90.5791 193.487C90.346 193.296 90.0818 193.096 89.7833 192.884L89.517 192.699Z" fill="#00160A"/>
<path fill-rule="evenodd" clip-rule="evenodd" d="M89.517 192.699C89.2749 192.532 88.9437 192.594 88.7775 192.836C88.6112 193.078 88.6727 193.409 88.9149 193.576C89.1809 193.758 89.416 193.927 89.6235 194.084C89.4 194.261 89.1768 194.465 88.9449 194.697L88.4745 195.175C88.2676 195.383 88.2691 195.72 88.4778 195.927C88.6864 196.134 89.0232 196.132 89.23 195.924L89.7944 195.353C90.0241 195.13 90.2393 194.942 90.4559 194.787C90.9369 195.264 91.0833 195.613 91.0912 195.961L91.0912 196.05L91.0939 196.104C91.1212 196.373 91.3477 196.582 91.6231 196.582C91.9169 196.582 92.155 196.344 92.155 196.05L92.1549 195.946C92.145 195.404 91.9538 194.888 91.4389 194.299C91.779 194.198 92.1622 194.141 92.6269 194.117C92.9203 194.102 93.1457 193.851 93.1303 193.558C93.115 193.265 92.8648 193.039 92.5714 193.055C91.7646 193.097 91.1377 193.231 90.5791 193.487C90.346 193.296 90.0818 193.096 89.7833 192.884L89.517 192.699Z" fill="#00160A"/>
<path fill-rule="evenodd" clip-rule="evenodd" d="M107.697 178.126L108.063 178.941L108.899 179.18C108.944 179.193 108.97 179.24 108.957 179.286C108.953 179.3 108.946 179.312 108.935 179.322L108.301 179.954L108.336 180.864C108.338 180.911 108.301 180.951 108.254 180.952C108.239 180.953 108.223 180.949 108.209 180.941L107.49 180.532C107.468 180.519 107.441 180.517 107.417 180.527L106.648 180.832C106.604 180.849 106.555 180.828 106.538 180.784C106.532 180.77 106.53 180.754 106.533 180.738L106.695 179.842L106.154 179.128C106.126 179.091 106.133 179.037 106.17 179.009C106.182 179 106.196 178.994 106.21 178.992L107.071 178.871L107.547 178.116C107.572 178.076 107.625 178.064 107.665 178.089C107.679 178.098 107.69 178.111 107.697 178.126Z" fill="#00160A"/>
<path fill-rule="evenodd" clip-rule="evenodd" d="M61.5827 172.529L62.2057 173.169L63.073 173.109C63.1198 173.105 63.1605 173.141 63.1638 173.188C63.1648 173.202 63.1621 173.217 63.1559 173.23L62.7755 174.041L63.12 174.883C63.1378 174.927 63.117 174.976 63.0735 174.994C63.0587 175 63.0426 175.002 63.027 174.999L62.2116 174.861C62.1861 174.856 62.16 174.864 62.1407 174.881L61.5228 175.431C61.4877 175.462 61.4339 175.459 61.4027 175.424C61.3921 175.412 61.3851 175.397 61.3824 175.382L61.2281 174.484L60.4757 173.998C60.4362 173.973 60.4249 173.92 60.4504 173.881C60.4583 173.868 60.4691 173.858 60.4819 173.852L61.2494 173.443L61.4386 172.57C61.4485 172.524 61.4938 172.495 61.5398 172.505C61.5561 172.509 61.571 172.517 61.5827 172.529Z" fill="#00160A"/>
<path fill-rule="evenodd" clip-rule="evenodd" d="M51.853 114.198L52.2195 115.012L53.0551 115.252C53.1003 115.265 53.1264 115.312 53.1134 115.357C53.1094 115.371 53.1019 115.384 53.0917 115.394L52.4568 116.026L52.4924 116.936C52.4942 116.983 52.4576 117.022 52.4107 117.024C52.3948 117.025 52.379 117.021 52.3652 117.013L51.6465 116.604C51.6241 116.591 51.597 116.589 51.573 116.599L50.8043 116.904C50.7606 116.921 50.7111 116.9 50.6938 116.856C50.6879 116.841 50.6863 116.825 50.6891 116.81L50.8509 115.914L50.3102 115.2C50.2819 115.162 50.2892 115.109 50.3267 115.081C50.3383 115.072 50.3519 115.066 50.3662 115.064L51.227 114.943L51.7034 114.187C51.7284 114.148 51.781 114.136 51.8208 114.161C51.8349 114.17 51.8461 114.183 51.853 114.198Z" fill="#00160A"/>
<path fill-rule="evenodd" clip-rule="evenodd" d="M51.7681 115.009L51.9238 115.355L52.2787 115.457C52.2979 115.462 52.309 115.482 52.3035 115.502C52.3018 115.508 52.2986 115.513 52.2943 115.517L52.0246 115.786L52.0397 116.172C52.0405 116.192 52.0249 116.209 52.005 116.21C51.9982 116.21 51.9916 116.208 51.9857 116.205L51.6804 116.031C51.6709 116.026 51.6594 116.025 51.6492 116.029L51.3227 116.159C51.3041 116.166 51.2831 116.157 51.2757 116.138C51.2732 116.132 51.2725 116.125 51.2737 116.119L51.3425 115.738L51.1128 115.435C51.1007 115.419 51.1039 115.396 51.1198 115.384C51.1247 115.38 51.1305 115.378 51.1366 115.377L51.5022 115.326L51.7046 115.005C51.7152 114.988 51.7375 114.983 51.7544 114.993C51.7604 114.997 51.7652 115.003 51.7681 115.009Z" fill="#E7EAEE"/>
<path fill-rule="evenodd" clip-rule="evenodd" d="M8.27877 149.936L8.64532 150.75L9.48089 150.99C9.52607 151.003 9.55218 151.05 9.53922 151.095C9.53522 151.109 9.52773 151.122 9.51746 151.132L8.88261 151.764L8.91818 152.674C8.92001 152.721 8.88343 152.76 8.83646 152.762C8.82057 152.763 8.80483 152.759 8.79102 152.751L8.0723 152.342C8.04984 152.329 8.02279 152.327 7.99877 152.337L7.23009 152.642C7.1864 152.659 7.13692 152.638 7.11957 152.594C7.11371 152.579 7.11209 152.563 7.11492 152.548L7.27672 151.652L6.73601 150.938C6.70764 150.9 6.71502 150.847 6.75249 150.819C6.76405 150.81 6.77764 150.804 6.792 150.802L7.65282 150.681L8.12916 149.925C8.15423 149.886 8.20678 149.874 8.24654 149.899C8.26069 149.908 8.2719 149.92 8.27877 149.936Z" fill="#00160A"/>
<path fill-rule="evenodd" clip-rule="evenodd" d="M45.1071 76.794L45.3734 76.9798C45.6722 77.1917 46.7877 78.243 47.021 78.4338C47.5787 78.1778 48.2057 78.0433 49.0125 78.0012C49.3059 77.9859 49.5562 78.2113 49.5715 78.5046C49.5868 78.798 49.3614 79.0482 49.068 79.0636C48.6032 79.0879 48.2199 79.1446 47.8797 79.246C48.3951 79.8352 48.5862 80.3504 48.5961 80.8921L48.5962 80.9967C48.5962 81.2904 48.358 81.5286 48.0642 81.5286C47.7888 81.5286 47.5623 81.3193 47.5351 81.0511L47.5323 80.9967L47.5323 80.9075C47.5245 80.56 47.378 80.2103 46.8971 79.7337C46.6805 79.889 46.4652 80.0761 46.2355 80.2998L45.6711 80.8703C45.4643 81.0789 45.1275 81.0804 44.9189 80.8736C44.7103 80.6668 44.7088 80.33 44.9156 80.1214L45.386 79.6436C45.6179 79.4117 45.8411 79.208 46.0646 79.0301C45.6722 78.1342 44.2013 77.1736 44.3675 76.9314C44.5338 76.6893 44.8649 76.6277 45.1071 76.794Z" fill="#00160A"/>
<path fill-rule="evenodd" clip-rule="evenodd" d="M147.736 138.14L148.46 138.662L149.304 138.452C149.35 138.44 149.396 138.468 149.407 138.514C149.411 138.528 149.411 138.542 149.407 138.556L149.173 139.421L149.659 140.191C149.684 140.231 149.672 140.283 149.632 140.309C149.618 140.317 149.603 140.322 149.587 140.322L148.76 140.327C148.734 140.327 148.71 140.339 148.694 140.359L148.181 141.008C148.151 141.044 148.098 141.051 148.061 141.022C148.049 141.012 148.039 140.999 148.034 140.984L147.726 140.127L146.901 139.779C146.857 139.761 146.837 139.711 146.855 139.667C146.861 139.654 146.87 139.642 146.881 139.633L147.566 139.098L147.601 138.205C147.603 138.158 147.642 138.122 147.689 138.124C147.706 138.124 147.722 138.13 147.736 138.14Z" fill="#00160A"/>
<path fill-rule="evenodd" clip-rule="evenodd" d="M156.06 104.802L156.28 105.668L157.061 106.049C157.103 106.07 157.121 106.121 157.1 106.163C157.094 106.176 157.084 106.187 157.072 106.196L156.337 106.708L156.214 107.61C156.208 107.656 156.165 107.689 156.119 107.682C156.103 107.68 156.088 107.674 156.076 107.664L155.439 107.136C155.419 107.119 155.393 107.113 155.367 107.118L154.557 107.285C154.511 107.295 154.466 107.265 154.457 107.219C154.454 107.203 154.455 107.187 154.46 107.172L154.775 106.318L154.367 105.521C154.345 105.479 154.362 105.428 154.404 105.406C154.417 105.4 154.431 105.397 154.445 105.397L155.314 105.427L155.915 104.766C155.946 104.731 156 104.728 156.035 104.76C156.047 104.771 156.056 104.786 156.06 104.802Z" fill="#00160A"/>
<path fill-rule="evenodd" clip-rule="evenodd" d="M137.103 69.9562L137.323 70.822L138.104 71.2033C138.146 71.2239 138.164 71.2748 138.143 71.3171C138.137 71.3301 138.127 71.3413 138.115 71.3496L137.38 71.8617L137.257 72.7636C137.251 72.8102 137.208 72.8428 137.162 72.8365C137.146 72.8343 137.131 72.8278 137.119 72.8176L136.482 72.2897C136.462 72.2732 136.436 72.2667 136.41 72.2719L135.6 72.4391C135.554 72.4486 135.509 72.419 135.5 72.373C135.497 72.3574 135.498 72.3412 135.503 72.3263L135.818 71.4723L135.41 70.675C135.388 70.6332 135.405 70.5819 135.447 70.5605C135.46 70.5539 135.474 70.5507 135.488 70.5512L136.357 70.5813L136.958 69.9199C136.989 69.8851 137.043 69.8825 137.078 69.9141C137.09 69.9253 137.099 69.94 137.103 69.9562Z" fill="#00160A"/>
<path fill-rule="evenodd" clip-rule="evenodd" d="M193.109 78.4398L193.432 78.4109C193.797 78.3812 194.128 78.3647 194.43 78.3608C194.692 77.8062 195.086 77.3002 195.677 76.7493C195.892 76.5489 196.229 76.5608 196.429 76.7756C196.629 76.9905 196.618 77.3271 196.403 77.5274C196.062 77.8448 195.805 78.1347 195.61 78.431C196.383 78.5511 196.861 78.8229 197.217 79.2315L197.284 79.3116C197.473 79.5366 197.443 79.8721 197.218 80.061C197.007 80.238 196.699 80.2233 196.506 80.0353L196.469 79.9954L196.412 79.9271C196.182 79.666 195.845 79.4922 195.17 79.4362C195.104 79.6944 195.06 79.9761 195.028 80.2951L194.962 81.0949C194.938 81.3877 194.681 81.6053 194.388 81.581C194.095 81.5567 193.877 81.2997 193.902 81.0069L193.955 80.3385C193.984 80.0118 194.024 79.7122 194.08 79.4324C193.821 79.4456 193.533 79.4676 193.211 79.4987C192.919 79.5269 192.659 79.3128 192.63 79.0204C192.602 78.728 192.816 78.4681 193.109 78.4398Z" fill="#00160A"/>
<path fill-rule="evenodd" clip-rule="evenodd" d="M150.156 115.158C150.06 115.401 149.849 115.738 149.605 116.057L149.815 116.275L150.06 116.536L150.114 116.588C150.138 116.609 150.156 116.622 150.17 116.625C150.249 116.637 150.304 116.709 150.293 116.789C150.282 116.867 150.209 116.923 150.131 116.912C150.059 116.91 149.799 116.809 149.489 116.557C149.433 116.511 149.377 116.459 149.32 116.401C149.141 116.6 148.961 116.772 148.805 116.878C148.575 117.037 148.377 117.049 148.282 116.985C148.188 116.923 148.099 116.713 148.251 116.289C148.274 116.212 148.356 116.172 148.432 116.195C148.508 116.219 148.549 116.3 148.526 116.377C148.503 116.456 148.499 116.527 148.499 116.585L148.587 116.525C148.618 116.503 148.65 116.478 148.679 116.448C148.786 116.343 148.905 116.216 149.024 116.078C148.835 115.858 148.642 115.6 148.486 115.303C148.41 115.157 148.35 115.003 148.292 114.841C148.252 114.751 148.293 114.644 148.384 114.604C148.475 114.564 148.581 114.606 148.621 114.696C148.795 115.06 149.016 115.373 149.235 115.642L149.308 115.729C149.508 115.469 149.679 115.204 149.757 115.003C149.8 114.894 149.924 114.839 150.034 114.881C150.145 114.925 150.199 115.049 150.156 115.158Z" fill="#E7EAEE"/>
<path fill-rule="evenodd" clip-rule="evenodd" d="M144.962 6.75145C145.286 6.69499 145.595 6.91199 145.651 7.23613C145.708 7.56028 145.491 7.86882 145.166 7.92527C143.625 8.19381 141.769 9.11532 140.167 10.5996C138.085 12.5268 136.55 15.247 135.792 18.7977C135.181 21.6584 135.742 25.4248 137.339 28.5672C139.155 32.1423 142.074 34.573 145.82 35.2572C149.665 35.9596 152.919 35.5234 156.553 34.2316L156.887 34.1101C156.993 34.0698 157.183 33.9967 157.421 33.9048L157.421 33.9047L157.421 33.9047L157.422 33.9046C158.297 33.567 159.825 32.9773 160.264 32.8446C161.439 32.4893 162.24 32.519 162.821 33.1383C163.046 33.3782 163.034 33.7552 162.794 33.9804C162.57 34.1915 162.224 34.1941 161.996 33.9959L161.952 33.9536C161.781 33.7709 161.427 33.7498 160.713 33.9543L160.609 33.9851C160.222 34.1021 158.806 34.6482 157.923 34.9886L157.922 34.9888C157.581 35.1206 157.319 35.2215 157.228 35.2548C153.303 36.6874 149.781 37.1919 145.606 36.4293C141.468 35.6736 138.251 32.9951 136.276 29.1068C134.56 25.7276 133.957 21.6842 134.627 18.5489C135.436 14.7593 137.094 11.8203 139.357 9.72529C141.128 8.08531 143.193 7.0595 144.962 6.75145ZM148.991 9.62957C149.314 9.56634 149.627 9.77683 149.69 10.0997C149.754 10.4226 149.543 10.7356 149.22 10.7989C144.392 11.7445 140.509 15.4325 139.382 20.3107C139.001 21.9617 139.116 23.3041 139.491 23.8163L139.54 23.8805L139.544 23.8895L139.551 23.8841C139.685 23.7632 139.842 23.4544 139.963 22.9757L139.988 22.8705C141.147 17.8534 144.972 13.9698 149.857 12.6656C150.175 12.5807 150.502 12.7697 150.587 13.0875C150.672 13.4054 150.483 13.7319 150.165 13.8168C145.763 14.9918 142.305 18.4573 141.195 22.9482L141.149 23.1386C140.741 24.9081 139.568 25.7527 138.618 24.6327C137.923 23.8134 137.752 22.075 138.221 20.0427C139.454 14.7024 143.705 10.6647 148.991 9.62957ZM156.156 16.1686C156.133 15.8404 155.848 15.5933 155.52 15.6167C149.721 16.0304 144.636 19.7965 142.613 25.355C141.845 27.4642 141.8 29.3399 142.428 30.2965C143.271 31.5795 144.597 30.8517 145.259 29.035L145.328 28.8485C147.117 24.1444 151.31 20.8589 156.218 20.1738C156.544 20.1283 156.771 19.8273 156.726 19.5014C156.68 19.1756 156.379 18.9483 156.053 18.9938C150.648 19.7483 146.04 23.4053 144.139 28.6275L144.097 28.739C143.886 29.2825 143.654 29.6102 143.479 29.7064L143.471 29.7116C143.468 29.7145 143.466 29.7164 143.465 29.7163C143.464 29.7161 143.464 29.7145 143.462 29.7105C143.458 29.7017 143.45 29.6816 143.424 29.6422L143.392 29.5903C143.047 28.9773 143.099 27.5025 143.733 25.7625C145.594 20.6496 150.271 17.1857 155.604 16.8052C155.933 16.7818 156.18 16.4968 156.156 16.1686ZM158.751 21.9601C159.079 21.9367 159.364 22.1837 159.388 22.5119C159.411 22.8401 159.164 23.1251 158.836 23.1485C155.096 23.4153 151.817 25.8439 150.512 29.4287C150.125 30.4913 150.054 31.3998 150.192 31.86L150.209 31.9113L150.235 31.8733C150.302 31.7724 150.377 31.6275 150.45 31.4396L150.482 31.3564C151.86 27.5699 155.201 24.9182 159.12 24.3711C159.446 24.3257 159.747 24.5529 159.793 24.8788C159.838 25.2047 159.611 25.5057 159.285 25.5512C155.857 26.0298 152.926 28.3179 151.664 31.5964L151.601 31.7639C151.09 33.1681 149.985 33.7746 149.278 32.6995C148.794 31.9627 148.828 30.5718 149.393 29.0211C150.86 24.9908 154.547 22.26 158.751 21.9601ZM161.891 26.7602C161.867 26.432 161.582 26.1849 161.254 26.2083C158.439 26.4092 155.969 28.238 154.987 30.9372C154.599 32.0013 154.576 32.9698 154.934 33.5151C155.522 34.4092 156.434 33.9082 156.815 32.8635L156.866 32.7264C157.667 30.6823 159.501 29.2573 161.645 28.958C161.971 28.9125 162.198 28.6114 162.153 28.2856C162.107 27.9597 161.806 27.7324 161.48 27.7779L161.329 27.8006C159.021 28.1724 157.029 29.6376 155.997 31.7462L155.961 31.8212L155.983 31.7357C156.016 31.6113 156.057 31.4804 156.106 31.3447C156.927 29.0912 158.988 27.5645 161.339 27.3968C161.667 27.3734 161.914 27.0884 161.891 26.7602Z" fill="#00160A"/>
<path fill-rule="evenodd" clip-rule="evenodd" d="M158.752 21.96C159.08 21.9366 159.365 22.1837 159.388 22.5119C159.412 22.8401 159.165 23.1251 158.837 23.1485C155.097 23.4153 151.818 25.8439 150.513 29.4286C150.126 30.4913 150.054 31.3998 150.193 31.8599L150.21 31.9113L150.236 31.8733C150.303 31.7724 150.378 31.6274 150.451 31.4395L150.482 31.3564C151.861 27.5699 155.202 24.9182 159.121 24.3711C159.447 24.3256 159.748 24.5529 159.794 24.8788C159.839 25.2046 159.612 25.5057 159.286 25.5512C155.857 26.0297 152.927 28.3178 151.665 31.5963L151.602 31.7639C151.091 33.168 149.986 33.7746 149.279 32.6994C148.795 31.9626 148.829 30.5718 149.394 29.0211C150.86 24.9907 154.548 22.26 158.752 21.96Z" fill="#00160A"/>
<path d="M121.649 99.5252C134.139 93.6832 144.581 90.5974 151.082 90.0307C153.073 89.8572 153.977 90.9549 153.472 92.7402C153.098 94.066 151.958 95.8852 150.21 98.0396C147.164 101.795 143.147 105.009 139.147 107.998C145.546 102.092 147.179 99.621 149.152 97.1878L149.462 96.8008C150.926 94.9506 151.872 93.4046 152.163 92.3732L152.204 92.2166C152.386 91.472 152.176 91.2958 151.201 91.3808C144.847 91.9346 134.444 95.0265 122 100.861C109.536 106.704 109.18 105.358 121.649 99.5252Z" fill="white"/>
<path d="M64.5268 80.6265L64.6181 80.8438C65.2509 82.3441 65.9084 83.8298 66.6546 85.4503L66.9448 86.0789C66.8497 86.1429 66.7246 86.2107 66.587 86.2708C66.3895 86.3571 66.189 86.4176 66.0383 86.4379L65.9902 86.4427L65.9177 86.3558C65.3537 85.6614 64.6992 84.4817 64.2262 83.3086C63.9743 82.6838 63.7948 82.1106 63.7139 81.6703C63.681 81.4909 63.6658 81.3402 63.6671 81.2259L63.6705 81.1506C63.6717 81.1323 63.6717 81.1228 63.6672 81.1214L63.6851 81.1093C63.7858 81.0399 64.0431 80.8893 64.4253 80.6816L64.5268 80.6265Z" fill="white"/>
<path fill-rule="evenodd" clip-rule="evenodd" d="M80.3151 75.1917C80.7061 74.7132 81.213 74.7845 81.855 75.174L82.02 75.2781L82.4815 75.5839C82.6106 75.6667 82.6665 75.6953 82.7418 75.7253C82.9165 75.7948 83.0017 75.9928 82.9322 76.1675C82.8626 76.3421 82.6646 76.4274 82.49 76.3578L82.4277 76.3322C82.3097 76.2816 82.2206 76.2291 81.9814 76.0704L81.6502 75.8498C81.5957 75.8142 81.5484 75.7843 81.5019 75.7561C81.1179 75.5232 80.9435 75.4986 80.8424 75.6225C80.7786 75.7005 80.7943 75.8669 80.9209 76.2079L81.0598 76.5657C81.3359 77.2987 81.3376 77.6264 80.8457 77.9061C80.4223 78.1469 80.2052 78.0344 79.597 77.4385L79.4495 77.2924C79.0601 76.9035 78.8559 76.7681 78.7244 76.7959C78.6808 76.8052 78.6298 76.8361 78.5676 76.9025C78.4947 76.9802 78.474 77.2289 78.5187 77.6701L78.5873 78.2464C78.6673 78.9507 78.6351 79.1332 78.3443 79.3278C77.9439 79.5958 77.4111 79.2929 76.4235 78.4061C76.2836 78.2804 76.2721 78.0652 76.3977 77.9253C76.5233 77.7854 76.7386 77.7739 76.8784 77.8995C77.3006 78.2786 77.6194 78.5256 77.8421 78.6521L77.892 78.6793L77.9336 78.7001L77.9346 78.6575L77.9319 78.5555C77.9275 78.4719 77.9171 78.3709 77.8963 78.1993L77.853 77.8458C77.7701 77.1286 77.796 76.7298 78.071 76.4367C78.2238 76.2738 78.3952 76.1697 78.5835 76.1298C79.0209 76.0373 79.3315 76.2241 79.8474 76.7284L80.1078 76.9846C80.3886 77.2546 80.4927 77.3236 80.5091 77.3142C80.5729 77.278 80.5632 77.1652 80.3908 76.7224L80.3152 76.5306C80.0747 75.9124 80.0288 75.5421 80.3151 75.1917Z" fill="#00160A"/>
<path fill-rule="evenodd" clip-rule="evenodd" d="M117.481 19.7812L117.157 19.81C116.865 19.8383 116.651 20.0983 116.679 20.3907C116.696 20.5675 116.798 20.7156 116.94 20.7989L116.884 20.8388C116.644 21.0084 116.587 21.3403 116.757 21.5802C116.926 21.8201 117.258 21.8771 117.498 21.7076L118.045 21.3204C118.029 21.4457 118.015 21.5749 118.003 21.7088L117.95 22.3772C117.926 22.6699 118.144 22.927 118.436 22.9513C118.729 22.9756 118.986 22.758 119.01 22.4652L119.076 21.6654C119.093 21.4942 119.114 21.3338 119.14 21.182C119.327 21.5363 119.364 21.8093 119.325 22.0674L119.309 22.1552L119.302 22.2093C119.283 22.4781 119.469 22.7236 119.741 22.7714C120.03 22.8224 120.306 22.6293 120.357 22.34L120.375 22.2369C120.431 21.878 120.406 21.5166 120.26 21.1155C120.336 21.1701 120.402 21.2309 120.46 21.2974L120.517 21.3657L120.554 21.4056C120.748 21.5935 121.056 21.6083 121.267 21.4312C121.492 21.2424 121.521 20.9069 121.332 20.6818L121.265 20.6018C121.241 20.5743 121.217 20.5475 121.192 20.5213C121.469 20.5375 121.716 20.3352 121.75 20.0551C121.786 19.7636 121.579 19.4981 121.287 19.4623C120.786 19.4006 120.347 19.3867 119.944 19.423C120.088 19.2527 120.256 19.0797 120.451 18.8977C120.666 18.6974 120.678 18.3608 120.478 18.1459C120.277 17.931 119.941 17.9192 119.726 18.1195C119.365 18.4556 119.078 18.7749 118.849 19.0988C118.761 19.005 118.668 18.909 118.571 18.8104L118.341 18.5812C118.131 18.3754 117.794 18.3785 117.589 18.5881C117.383 18.7977 117.386 19.1345 117.596 19.3403C117.741 19.4832 117.876 19.6185 117.999 19.7466C117.834 19.755 117.662 19.7665 117.481 19.7812Z" fill="#00160A"/>
<path fill-rule="evenodd" clip-rule="evenodd" d="M98.3074 23.7893C97.9939 23.4679 97.4863 23.4768 97.1736 23.8093C96.8608 24.1418 96.8614 24.6719 97.1748 24.9933C97.4721 25.2981 97.738 25.5807 97.9754 25.8436C97.4731 26.0565 96.9689 26.3323 96.4291 26.6727L95.6103 27.1981C95.2506 27.4271 95.1721 27.8854 95.4349 28.2216C95.6977 28.5578 96.2023 28.6447 96.5619 28.4157L97.5436 27.7891C98.0565 27.475 98.5189 27.2373 98.9836 27.0705C99.6896 28.0522 99.8374 28.6815 99.7474 29.2649L99.7231 29.4033L99.7122 29.4885C99.6792 29.9119 99.9576 30.296 100.366 30.368C100.801 30.4448 101.219 30.1374 101.3 29.6813L101.328 29.519C101.462 28.6727 101.319 27.8202 100.712 26.767C101.124 26.7607 101.572 26.7912 102.081 26.8562C102.523 26.9128 102.921 26.6321 102.968 26.2292C103.016 25.8263 102.695 25.4538 102.252 25.3972C101.281 25.2731 100.467 25.2589 99.7223 25.3596C99.4159 24.9827 99.0605 24.5803 98.6511 24.1472L98.3074 23.7893Z" fill="#E7EAEE"/>
<path fill-rule="evenodd" clip-rule="evenodd" d="M28.4321 112.144L28.7986 112.958L29.6342 113.198C29.6794 113.211 29.7055 113.258 29.6925 113.303C29.6885 113.317 29.681 113.33 29.6708 113.34L29.0359 113.972L29.0715 114.882C29.0733 114.929 29.0367 114.968 28.9898 114.97C28.9739 114.971 28.9582 114.967 28.9443 114.959L28.2256 114.55C28.2032 114.537 28.1761 114.535 28.1521 114.545L27.3834 114.85C27.3397 114.867 27.2902 114.846 27.2729 114.802C27.267 114.788 27.2654 114.771 27.2682 114.756L27.43 113.86L26.8893 113.146C26.861 113.108 26.8683 113.055 26.9058 113.027C26.9174 113.018 26.931 113.012 26.9453 113.01L27.8061 112.889L28.2825 112.133C28.3075 112.094 28.3601 112.082 28.3999 112.107C28.414 112.116 28.4252 112.129 28.4321 112.144Z" fill="#00160A"/>
<path fill-rule="evenodd" clip-rule="evenodd" d="M33.3198 66.9337L33.6863 67.7483L34.5219 67.9881C34.5671 68.0011 34.5932 68.0482 34.5802 68.0934C34.5762 68.1073 34.5687 68.12 34.5585 68.1302L33.9236 68.7622L33.9592 69.6717C33.961 69.7187 33.9244 69.7583 33.8775 69.7601C33.8616 69.7607 33.8458 69.7569 33.832 69.749L33.1133 69.3397C33.0909 69.3269 33.0638 69.325 33.0398 69.3346L32.2711 69.6399C32.2274 69.6572 32.1779 69.6359 32.1606 69.5922C32.1547 69.5774 32.1531 69.5613 32.1559 69.5456L32.3177 68.6499L31.777 67.9357C31.7487 67.8983 31.756 67.8449 31.7935 67.8165C31.8051 67.8078 31.8187 67.8021 31.833 67.8001L32.6938 67.6789L33.1702 66.9233C33.1952 66.8835 33.2478 66.8716 33.2876 66.8967C33.3017 66.9056 33.3129 66.9185 33.3198 66.9337Z" fill="#00160A"/>
<path d="M44.3912 138.913C44.6642 138.715 45.0462 138.776 45.2445 139.049C45.4428 139.322 36.7993 146.362 33.4463 149.588L33.0566 149.966C31.1415 151.84 29.7294 153.463 28.9335 154.746C28.0901 156.105 28.036 156.843 28.5805 157.145C30.6464 158.29 33.6167 158.848 37.8707 158.143L38.3078 158.068C39.9271 157.785 52.108 155.128 51.9151 155.199L51.8402 155.221C51.4562 155.323 46.4963 157.038 44.7845 157.474L44.5775 157.526C41.9606 158.185 39.9127 158.636 38.0704 158.941C33.5686 159.687 30.3523 159.524 27.9882 158.214C26.624 157.458 26.7326 155.975 27.8952 154.101C28.8096 152.628 30.418 150.806 32.5991 148.708C35.997 145.438 40.7761 141.538 44.3912 138.913Z" fill="white"/>
</svg>
