<svg width="20" height="20" viewBox="0 0 20 20" fill="none" xmlns="http://www.w3.org/2000/svg">
<path fill-rule="evenodd" clip-rule="evenodd" d="M10.1667 1C5.10417 1 1 5.10417 1 10.1667C1 15.2292 5.10417 19.3333 10.1667 19.3333C15.2292 19.3333 19.3333 15.2292 19.3333 10.1667C19.3333 5.10417 15.2292 1 10.1667 1ZM14.14 8.61667C14.2132 8.53303 14.2689 8.43562 14.3038 8.33014C14.3388 8.22466 14.3523 8.11326 14.3436 8.00249C14.3348 7.89171 14.304 7.7838 14.253 7.68511C14.2019 7.58641 14.1317 7.49892 14.0463 7.42778C13.9609 7.35665 13.8622 7.3033 13.7559 7.27088C13.6496 7.23847 13.5379 7.22763 13.4274 7.23902C13.3169 7.25041 13.2097 7.28379 13.1123 7.33719C13.0148 7.3906 12.9291 7.46295 12.86 7.55L9.27667 11.8492L7.4225 9.99417C7.26533 9.84237 7.05483 9.75837 6.83633 9.76027C6.61783 9.76217 6.40882 9.84981 6.25432 10.0043C6.09981 10.1588 6.01217 10.3678 6.01027 10.5863C6.00837 10.8048 6.09237 11.0153 6.24417 11.1725L8.74417 13.6725C8.82605 13.7543 8.92408 13.8182 9.03201 13.86C9.13995 13.9019 9.25541 13.9208 9.37106 13.9155C9.4867 13.9103 9.59998 13.881 9.70368 13.8295C9.80737 13.7781 9.89921 13.7056 9.97333 13.6167L14.14 8.61667Z" fill="#40AD93"/>
</svg>
