<svg width="41" height="41" viewBox="0 0 41 41" fill="none" xmlns="http://www.w3.org/2000/svg">
<g clip-path="url(#clip0_467_1996)">
<path d="M20.8177 10.0123C20.8177 6.50188 17.9719 3.65602 14.4615 3.65602C10.951 3.65602 8.10522 6.50188 8.10522 10.0123V11.4157H20.8177V10.0123Z" fill="#FEC986"/>
<path d="M38.615 15.7329C39.3171 15.7329 39.8863 15.1637 39.8863 14.4616C39.8863 13.7596 39.3171 13.1904 38.615 13.1904C37.9129 13.1904 37.3438 13.7596 37.3438 14.4616C37.3438 15.1637 37.9129 15.7329 38.615 15.7329Z" fill="#FEC986"/>
<path d="M30.6702 39.8869C31.8989 39.8869 32.895 38.8908 32.895 37.6621C32.895 36.4334 31.8989 35.4373 30.6702 35.4373C29.4414 35.4373 28.4453 36.4334 28.4453 37.6621C28.4453 38.8908 29.4414 39.8869 30.6702 39.8869Z" fill="#C8546F"/>
<path d="M5.88061 39.8869C7.10935 39.8869 8.10545 38.8908 8.10545 37.6621C8.10545 36.4334 7.10935 35.4373 5.88061 35.4373C4.65186 35.4373 3.65576 36.4334 3.65576 37.6621C3.65576 38.8908 4.65186 39.8869 5.88061 39.8869Z" fill="#C8546F"/>
<path d="M30.9877 30.9876H1.11353V33.5298H30.9877V30.9876Z" fill="#FEB860"/>
<path d="M22.7247 10.6475H6.19873V13.1897H22.7247V10.6475Z" fill="#9B4573"/>
<path d="M1.11353 25.2672V13.1903H32.8947V25.2672C32.8947 25.2672 24.7924 22.4126 18.1242 25.2672C11.4559 28.1217 1.11353 25.2672 1.11353 25.2672Z" fill="#C8546F"/>
<path d="M32.8948 25.2672L28.4453 24.2548V13.1903H32.8948V25.2672Z" fill="#9B4573"/>
<path d="M32.6841 25.8434L33.5081 26.1451V12.577H0.5V25.7177L0.929766 25.8526C0.984141 25.8696 1.76562 26.1121 3.04258 26.3808V30.3744H0.5V34.1437H3.0425V37.6619C3.0425 39.2269 4.31563 40.5 5.88063 40.5C7.44563 40.5 8.71875 39.2269 8.71875 37.6619C8.71875 36.0969 7.44563 34.8237 5.88063 34.8237C5.2825 34.8237 4.7275 35.0101 4.26945 35.3272V34.1437H27.8318V37.6619C27.8318 39.2269 29.1049 40.5 30.6699 40.5C32.2349 40.5 33.508 39.2269 33.508 37.6619C33.508 36.0969 32.2349 34.8237 30.6699 34.8237C30.0718 34.8237 29.5167 35.0101 29.0588 35.3272V34.1437H31.6012V30.3744H29.0588V24.9791C31.2411 25.3291 32.6519 25.8317 32.6841 25.8434ZM5.8807 36.0506C6.76906 36.0506 7.49188 36.7733 7.49188 37.6618C7.49188 38.5502 6.76906 39.273 5.8807 39.273C4.99234 39.273 4.26953 38.5502 4.26953 37.6618C4.26945 36.7734 4.99227 36.0506 5.8807 36.0506ZM30.67 36.0506C31.5584 36.0506 32.2812 36.7733 32.2812 37.6618C32.2812 38.5502 31.5584 39.273 30.67 39.273C29.7816 39.273 29.0588 38.5502 29.0588 37.6618C29.0587 36.7734 29.7816 36.0506 30.67 36.0506ZM1.72695 13.8037H32.2812V24.4292C31.4426 24.1868 30.0121 23.8319 28.2025 23.6111C23.3534 23.0192 19.6674 23.8719 17.4289 24.6911C17.2805 24.7454 17.1314 24.7968 16.982 24.8468V23.9959H15.755V25.2087C15.3179 25.3212 14.8787 25.4177 14.4394 25.4994V23.3603H13.2125V25.6908C12.7716 25.747 12.3323 25.7901 11.897 25.8213V21.4534H10.67V25.8798C6.53305 25.9813 2.93367 25.128 1.72688 24.8035V13.8037H1.72695ZM30.3743 32.9168H1.72695V31.6012H30.3743V32.9168ZM27.8318 30.3743H4.26945V26.6158C4.92453 26.7293 5.65664 26.8371 6.44875 26.9241C7.69547 27.061 8.85727 27.1203 9.9343 27.1203C13.4974 27.1203 16.133 26.4719 17.8506 25.8432C21.4439 24.528 25.0659 24.498 27.8318 24.8112V30.3743Z" fill="#1D1D1B"/>
<path d="M22.7247 10.6696H6.19873V11.8966H22.7247V10.6696Z" fill="#1D1D1B"/>
<path d="M38.6153 12.5769C37.7908 12.5769 37.0887 13.1093 36.8337 13.8481H34.166V15.0751H36.8337C37.0889 15.8139 37.7909 16.3463 38.6153 16.3463C39.6545 16.3463 40.5001 15.5009 40.5001 14.4616C40.5001 13.4223 39.6545 12.5769 38.6153 12.5769ZM38.6153 15.1194C38.3102 15.1194 38.0536 14.9102 37.9797 14.6279V14.2953C38.0536 14.013 38.3102 13.8039 38.6153 13.8039C38.978 13.8039 39.2731 14.0989 39.2731 14.4617C39.2731 14.8244 38.9781 15.1194 38.6153 15.1194Z" fill="#1D1D1B"/>
<path d="M15.0751 3.07109V1.72695H15.7329V0.5H13.1904V1.72695H13.8482V3.07109C10.2916 3.38297 7.49194 6.37594 7.49194 10.0123H8.7189C8.7189 6.8457 11.2951 4.26945 14.4617 4.26945C17.6283 4.26945 20.2045 6.8457 20.2045 10.0123H21.4315C21.4312 6.37594 18.6317 3.38297 15.0751 3.07109Z" fill="#1D1D1B"/>
</g>
<defs>
<clipPath id="clip0_467_1996">
<rect width="40" height="40" fill="white" transform="translate(0.5 0.5)"/>
</clipPath>
</defs>
</svg>
