<svg width="306" height="306" viewBox="0 0 306 306" fill="none" xmlns="http://www.w3.org/2000/svg">
<path d="M249.286 244.09C195.785 274.825 109.046 274.825 55.5451 244.09C2.04408 213.355 2.05019 163.533 55.5451 132.804C109.04 102.075 195.791 102.075 249.286 132.804C302.781 163.533 302.787 213.362 249.286 244.09Z" fill="#CCDFF7"/>
<path d="M168.043 188.447C156.801 181.96 138.575 181.96 127.333 188.447C117.804 193.955 116.36 202.346 122.981 208.735C122.607 208.833 122.247 208.979 121.91 209.169L86.4144 229.671C84.9089 230.54 84.9089 231.954 86.4144 232.823L88.6421 234.108C89.4782 234.533 90.4076 234.742 91.3452 234.715C92.2828 234.689 93.1987 234.427 94.0093 233.955L127.057 212.309C127.192 212.22 127.319 212.12 127.437 212.009C138.685 218.441 156.813 218.423 168.037 211.954C179.261 205.485 179.316 194.94 168.043 188.447Z" fill="#89A7CF"/>
<path d="M247.064 164.842L201.825 191.017C201.261 191.304 200.637 191.453 200.005 191.453C199.372 191.453 198.748 191.304 198.184 191.017L119.487 145.576C118.483 145.001 118.483 144.059 119.487 143.477L164.726 117.302C165.29 117.016 165.914 116.866 166.547 116.866C167.179 116.866 167.803 117.016 168.367 117.302L247.064 162.743C248.068 163.318 248.068 164.261 247.064 164.842Z" fill="#E6E6E6"/>
<path d="M45.6124 214.347L33.5131 207.358C32.0504 206.513 32.0504 205.142 33.5131 204.298L117.706 155.687C118.527 155.27 119.435 155.053 120.356 155.053C121.277 155.053 122.185 155.27 123.006 155.687L135.111 162.676C136.574 163.52 136.574 164.891 135.111 165.736L50.9123 214.347C50.0911 214.764 49.1832 214.981 48.2623 214.981C47.3415 214.981 46.4336 214.764 45.6124 214.347Z" fill="#E6E6E6"/>
<path d="M247.187 228.239C259.534 228.239 269.543 222.77 269.543 216.024C269.543 209.277 259.534 203.808 247.187 203.808C234.84 203.808 224.83 209.277 224.83 216.024C224.83 222.77 234.84 228.239 247.187 228.239Z" fill="#E6E6E6"/>
<path d="M256.973 203.894C257.187 201.183 259.598 195.73 262.695 192.437C265.792 189.145 270.412 186.929 273.466 188.257C276.312 189.481 275.688 193.306 271.93 195.558C268.172 197.811 262.591 200.583 260.675 204.849L256.973 209.977V203.894Z" fill="#A4C6F2"/>
<path opacity="0.1" d="M256.973 203.894C257.187 201.183 259.598 195.73 262.695 192.437C265.792 189.145 270.412 186.929 273.466 188.257C276.312 189.481 275.688 193.306 271.93 195.558C268.172 197.811 262.591 200.583 260.675 204.849L256.973 209.977V203.894Z" fill="black"/>
<path d="M256.471 207.584C256.515 207.585 256.558 207.57 256.594 207.544C256.629 207.517 256.655 207.48 256.667 207.437C259.225 198.337 267.309 191.421 271.918 190.124C271.963 190.105 272 190.07 272.021 190.025C272.043 189.981 272.047 189.93 272.033 189.882C272.02 189.835 271.989 189.794 271.948 189.767C271.906 189.741 271.856 189.731 271.808 189.738C267.114 191.066 258.876 198.092 256.281 207.333C256.274 207.359 256.272 207.385 256.275 207.411C256.278 207.438 256.286 207.463 256.299 207.486C256.313 207.509 256.33 207.529 256.351 207.544C256.372 207.56 256.396 207.572 256.422 207.578L256.471 207.584Z" fill="white"/>
<path d="M257.377 213.588C257.933 212.101 259.996 209.739 263.172 207.903C266.685 205.877 270.981 205.161 272.095 203.447C273.435 201.397 271.789 199.224 268.331 199.371C264.874 199.518 258.497 203.698 256.973 210.644L257.377 213.588Z" fill="#A4C6F2"/>
<path d="M256.844 211.96C256.882 211.961 256.919 211.95 256.951 211.929C256.982 211.908 257.007 211.879 257.022 211.844C260.498 204.151 266.765 201.856 269.592 201.715C269.644 201.715 269.694 201.695 269.731 201.658C269.767 201.621 269.788 201.571 269.788 201.519C269.788 201.467 269.767 201.418 269.731 201.381C269.694 201.344 269.644 201.324 269.592 201.324C266.465 201.477 260.229 203.827 256.679 211.679C256.668 211.703 256.662 211.729 256.661 211.755C256.66 211.781 256.665 211.808 256.675 211.832C256.684 211.857 256.699 211.879 256.718 211.898C256.736 211.917 256.758 211.932 256.783 211.942C256.802 211.952 256.823 211.958 256.844 211.96Z" fill="white"/>
<path d="M34.5107 188.784C34.5107 188.784 33.8987 183.159 31.0712 178.79C28.2438 174.42 24.4249 171.703 20.8386 171.415C17.2523 171.127 14.3575 174.432 18.1947 176.703C22.032 178.973 28.8497 181.281 31.9892 189.757L34.5107 188.784Z" fill="#A4C6F2"/>
<path opacity="0.1" d="M34.5107 188.784C34.5107 188.784 33.8987 183.159 31.0712 178.79C28.2438 174.42 24.4249 171.703 20.8386 171.415C17.2523 171.127 14.3575 174.432 18.1947 176.703C22.032 178.973 28.8497 181.281 31.9892 189.757L34.5107 188.784Z" fill="black"/>
<path d="M33.458 187.321H33.4947C33.5182 187.312 33.5396 187.298 33.5577 187.28C33.5757 187.262 33.59 187.241 33.5996 187.217C33.6093 187.194 33.6143 187.169 33.6141 187.144C33.614 187.118 33.6088 187.093 33.5988 187.07C29.8166 177.743 22.5828 173.851 19.3269 173.092C19.2792 173.087 19.2313 173.1 19.1923 173.128C19.1534 173.155 19.126 173.197 19.1154 173.244C19.1048 173.29 19.1118 173.339 19.135 173.381C19.1582 173.423 19.196 173.455 19.2413 173.471C22.4543 174.206 29.5167 178.037 33.2438 187.211C33.2621 187.25 33.2932 187.283 33.332 187.303C33.3708 187.323 33.4151 187.329 33.458 187.321Z" fill="white"/>
<path d="M16.2486 187.272C16.5974 188.055 17.4726 188.459 18.2376 188.778C19.0642 189.001 19.7936 189.492 20.3123 190.173C21.1752 191.66 19.7615 193.753 20.6856 195.197C20.9024 195.49 21.1774 195.735 21.4934 195.916C21.8094 196.097 22.1595 196.211 22.5216 196.25C23.114 196.336 23.7105 196.391 24.3086 196.415C24.5932 196.408 24.8772 196.386 25.1593 196.348C25.982 196.163 26.8427 196.256 27.6073 196.611C28.7885 197.272 29.1495 198.765 29.8656 199.916C30.3108 200.594 30.8972 201.169 31.5848 201.6C32.2725 202.031 33.045 202.308 33.8497 202.413C34.5349 202.551 35.2447 202.505 35.906 202.278L36.0223 202.205C36.0968 202.126 36.1663 202.042 36.2304 201.954V201.917C36.4385 201.146 36.0957 200.344 36.0835 199.549V199.402C36.0835 198.478 36.1447 197.566 36.1631 196.636C36.2039 194.934 36.2202 193.233 36.212 191.532C36.212 190.43 36.3344 189.218 35.8693 188.178C35.3491 187.033 34.0639 187.009 33.5804 185.883C33.3846 185.436 33.2805 184.959 33.0908 184.506C32.7993 183.843 32.331 183.273 31.7374 182.859C31.1437 182.444 30.4475 182.201 29.7248 182.156C27.4727 182.039 25.4408 183.857 23.2131 183.692C22.6346 183.614 22.0606 183.506 21.4934 183.367C19.6574 183.025 17.5705 183.545 16.5485 185.081C16.323 185.394 16.1778 185.757 16.1255 186.139C16.0732 186.521 16.1155 186.91 16.2486 187.272Z" fill="#A4C6F2"/>
<path d="M36.4385 198.386C36.463 198.38 36.4862 198.37 36.5065 198.355C36.5268 198.34 36.5438 198.321 36.5564 198.299C36.569 198.277 36.577 198.253 36.5799 198.228C36.5828 198.203 36.5805 198.177 36.5731 198.153C33.4825 186.501 21.2119 184.824 18.36 185.026C18.335 185.028 18.3107 185.034 18.2882 185.045C18.2658 185.056 18.2458 185.071 18.2293 185.09C18.2128 185.109 18.2002 185.131 18.1921 185.154C18.1841 185.178 18.1808 185.203 18.1825 185.228C18.179 185.253 18.181 185.28 18.1883 185.304C18.1956 185.329 18.208 185.352 18.2248 185.372C18.2415 185.391 18.2622 185.407 18.2855 185.418C18.3088 185.429 18.3342 185.435 18.36 185.436C21.1691 185.234 33.1765 186.88 36.212 198.288C36.2319 198.329 36.2656 198.361 36.3071 198.379C36.3487 198.397 36.3952 198.399 36.4385 198.386Z" fill="white"/>
<path d="M22.8031 192.486C22.8426 192.479 22.8789 192.46 22.9071 192.431C24.04 191.45 25.3756 190.73 26.8185 190.324C28.2614 189.918 29.7762 189.835 31.2548 190.081C31.3056 190.087 31.3566 190.073 31.3975 190.042C31.4384 190.011 31.4661 189.966 31.4751 189.916C31.4786 189.891 31.477 189.866 31.4705 189.841C31.464 189.817 31.4528 189.794 31.4374 189.774C31.422 189.754 31.4028 189.738 31.3809 189.725C31.359 189.713 31.3349 189.705 31.3099 189.702C29.7729 189.45 28.1993 189.54 26.7013 189.966C25.2033 190.393 23.8179 191.144 22.644 192.168C22.6262 192.186 22.6121 192.207 22.6025 192.23C22.5929 192.253 22.5879 192.278 22.5879 192.303C22.5879 192.328 22.5929 192.352 22.6025 192.376C22.6121 192.399 22.6262 192.42 22.644 192.437C22.6655 192.456 22.6908 192.47 22.7183 192.479C22.7457 192.487 22.7746 192.49 22.8031 192.486Z" fill="white"/>
<path d="M245.412 156.366L201.703 181.66C201.157 181.934 200.555 182.077 199.943 182.077C199.332 182.077 198.73 181.934 198.184 181.66L122.112 137.749C121.139 137.192 121.139 136.28 122.112 135.723L165.852 110.423C166.397 110.149 166.998 110.006 167.608 110.006C168.219 110.006 168.82 110.149 169.365 110.423L245.412 154.334C246.355 154.897 246.355 155.803 245.412 156.366Z" fill="#37474F"/>
<path d="M222.027 167.963C221.269 168.349 220.43 168.55 219.579 168.55C218.729 168.55 217.89 168.349 217.132 167.963C215.785 167.186 215.785 165.925 217.132 165.148C217.889 164.76 218.728 164.557 219.579 164.557C220.431 164.557 221.27 164.76 222.027 165.148C223.38 165.925 223.38 167.186 222.027 167.963Z" fill="#263238"/>
<path d="M201.672 181.66L245.412 156.366C246.281 155.864 246.373 155.081 245.687 154.53C246.122 154.874 246.479 155.306 246.736 155.797C246.992 156.289 247.142 156.829 247.175 157.382V159.034C247.143 159.647 246.967 160.244 246.661 160.776C246.355 161.308 245.927 161.76 245.412 162.094L201.703 187.388C201.163 187.676 200.558 187.821 199.947 187.811V182.101C200.55 182.1 201.143 181.949 201.672 181.66Z" fill="#535353"/>
<path d="M122.112 143.465C121.599 143.13 121.172 142.678 120.867 142.146C120.562 141.614 120.387 141.017 120.356 140.405V138.753C120.388 138.198 120.537 137.657 120.794 137.164C121.05 136.672 121.408 136.239 121.843 135.895C121.158 136.458 121.231 137.235 122.112 137.731L198.153 181.642C198.695 181.93 199.302 182.075 199.916 182.064V187.774C199.302 187.785 198.695 187.64 198.153 187.352L122.112 143.465Z" fill="#263238"/>
<path d="M194.371 176.36L235.602 152.492C235.731 152.451 235.844 152.369 235.925 152.259C236.005 152.149 236.048 152.016 236.048 151.88C236.048 151.744 236.005 151.611 235.925 151.501C235.844 151.391 235.731 151.31 235.602 151.268L174.659 116.017C174.333 115.851 173.972 115.764 173.606 115.764C173.24 115.764 172.879 115.851 172.553 116.017L131.305 139.885C131.175 139.926 131.062 140.008 130.981 140.118C130.901 140.228 130.858 140.361 130.858 140.497C130.858 140.633 130.901 140.766 130.981 140.876C131.062 140.986 131.175 141.067 131.305 141.109L192.26 176.36C192.587 176.526 192.949 176.613 193.316 176.613C193.682 176.613 194.044 176.526 194.371 176.36Z" fill="#FAFAFA"/>
<path d="M137.7 140.968L157.394 152.388C157.805 152.596 158.259 152.705 158.719 152.705C159.18 152.705 159.633 152.596 160.044 152.388L194.683 132.394C194.843 132.34 194.982 132.237 195.08 132.1C195.179 131.962 195.232 131.798 195.232 131.629C195.232 131.46 195.179 131.296 195.08 131.158C194.982 131.021 194.843 130.918 194.683 130.864L174.965 119.469C174.554 119.26 174.1 119.152 173.64 119.152C173.179 119.152 172.725 119.26 172.315 119.469L137.7 139.438C137.54 139.492 137.401 139.595 137.303 139.732C137.205 139.87 137.152 140.034 137.152 140.203C137.152 140.372 137.205 140.536 137.303 140.674C137.401 140.811 137.54 140.914 137.7 140.968Z" fill="#EBEBEB"/>
<path d="M152.162 135.527L157.217 136.513C157.532 136.579 157.861 136.549 158.159 136.427L162.443 134.591C163.122 134.297 164.089 134.591 164.077 135.075L164.01 138.135C164.01 138.33 164.169 138.514 164.444 138.63L168.802 140.411C169.493 140.693 169.328 141.311 168.514 141.458L163.404 142.382C163.27 142.395 163.141 142.436 163.024 142.504C162.908 142.571 162.808 142.663 162.731 142.773L161.146 145.717C160.889 146.182 159.818 146.28 159.31 145.882L156.25 143.367C156.005 143.19 155.707 143.102 155.405 143.116L150.062 143.153C149.212 143.153 148.722 142.602 149.23 142.21L152.425 139.762C152.47 139.736 152.51 139.702 152.542 139.66C152.574 139.619 152.598 139.571 152.611 139.521C152.625 139.47 152.629 139.417 152.622 139.365C152.615 139.313 152.598 139.263 152.572 139.218L150.858 136.299C150.589 135.809 151.354 135.368 152.162 135.527Z" fill="#FAFAFA"/>
<path d="M163.404 129.077L174.249 122.816C174.461 122.691 174.701 122.617 174.947 122.6C175.193 122.583 175.44 122.623 175.669 122.718C176.011 122.92 175.932 123.287 175.497 123.538L164.659 129.799C164.445 129.923 164.206 129.996 163.96 130.013C163.714 130.03 163.467 129.99 163.239 129.897C162.896 129.695 162.976 129.328 163.404 129.077Z" fill="#FAFAFA"/>
<path d="M166.146 130.656L176.984 124.395C177.197 124.27 177.436 124.196 177.683 124.179C177.929 124.162 178.176 124.202 178.404 124.297C178.747 124.499 178.673 124.866 178.233 125.117L167.394 131.378C167.181 131.502 166.942 131.575 166.696 131.592C166.45 131.609 166.203 131.569 165.974 131.476C165.626 131.274 165.705 130.907 166.146 130.656Z" fill="#FAFAFA"/>
<path d="M168.875 132.235L179.714 125.974C179.926 125.847 180.165 125.772 180.412 125.755C180.659 125.738 180.906 125.78 181.134 125.876C181.482 126.078 181.403 126.445 180.962 126.696L170.136 132.957C169.923 133.081 169.684 133.154 169.437 133.171C169.191 133.188 168.945 133.148 168.716 133.055C168.361 132.853 168.435 132.486 168.875 132.235Z" fill="#FAFAFA"/>
<path d="M171.605 133.808L182.449 127.553C182.661 127.426 182.899 127.351 183.145 127.334C183.39 127.317 183.636 127.359 183.863 127.455C184.212 127.651 184.132 128.018 183.698 128.275L172.853 134.53C172.641 134.657 172.402 134.732 172.155 134.749C171.908 134.766 171.661 134.724 171.433 134.628C171.091 134.432 171.17 134.065 171.605 133.808Z" fill="#FAFAFA"/>
<path d="M174.34 135.387L185.179 129.132C185.391 129.005 185.631 128.93 185.877 128.913C186.124 128.896 186.371 128.938 186.599 129.034C186.942 129.23 186.868 129.597 186.427 129.854L175.589 136.109C175.377 136.236 175.137 136.311 174.891 136.328C174.644 136.345 174.397 136.303 174.169 136.207C173.808 136.011 173.9 135.644 174.34 135.387Z" fill="#FAFAFA"/>
<path d="M177.07 136.966L187.884 130.711C188.096 130.584 188.335 130.509 188.582 130.492C188.829 130.475 189.076 130.517 189.304 130.613C189.647 130.809 189.573 131.176 189.132 131.433L178.318 137.7C178.106 137.827 177.867 137.902 177.62 137.919C177.374 137.936 177.126 137.894 176.899 137.798C176.556 137.59 176.629 137.223 177.07 136.966Z" fill="#FAFAFA"/>
<path d="M162.003 155.02L162.896 155.54C163.143 155.664 163.415 155.728 163.692 155.728C163.968 155.728 164.24 155.664 164.487 155.54L185.295 143.538C185.736 143.281 185.736 142.871 185.295 142.62L184.396 142.1C184.149 141.976 183.876 141.912 183.6 141.912C183.324 141.912 183.051 141.976 182.804 142.1L161.996 154.102C161.9 154.134 161.817 154.196 161.758 154.279C161.699 154.362 161.667 154.461 161.668 154.563C161.669 154.664 161.701 154.763 161.761 154.845C161.821 154.927 161.906 154.988 162.003 155.02Z" fill="#E0E0E0"/>
<path d="M199.292 133.489L200.185 134.01C200.626 134.261 200.626 134.671 200.185 134.928L191.831 139.75C191.585 139.874 191.312 139.939 191.036 139.939C190.76 139.939 190.487 139.874 190.24 139.75L189.347 139.23C188.906 138.979 188.906 138.569 189.347 138.312L197.676 133.489C197.926 133.362 198.203 133.295 198.484 133.295C198.765 133.295 199.042 133.362 199.292 133.489Z" fill="#E0E0E0"/>
<path d="M167.529 158.196L187.272 169.585C187.683 169.793 188.137 169.902 188.597 169.902C189.057 169.902 189.511 169.793 189.922 169.585L224.561 149.591C224.721 149.537 224.86 149.434 224.958 149.297C225.057 149.16 225.109 148.995 225.109 148.826C225.109 148.657 225.057 148.493 224.958 148.356C224.86 148.218 224.721 148.115 224.561 148.061L204.843 136.666C204.432 136.458 203.978 136.349 203.518 136.349C203.057 136.349 202.603 136.458 202.193 136.666L167.529 156.672C167.371 156.728 167.235 156.831 167.138 156.967C167.041 157.104 166.99 157.267 166.99 157.434C166.99 157.601 167.041 157.764 167.138 157.901C167.235 158.037 167.371 158.14 167.529 158.196Z" fill="#EBEBEB"/>
<path d="M182.009 152.749L187.07 153.741C187.386 153.806 187.714 153.776 188.013 153.655L192.297 151.819C192.982 151.525 193.949 151.819 193.937 152.296L193.869 155.356C193.869 155.552 194.022 155.736 194.298 155.846L198.661 157.627C199.353 157.914 199.182 158.532 198.374 158.679L193.27 159.591C193.136 159.606 193.007 159.648 192.891 159.715C192.775 159.783 192.675 159.874 192.596 159.983L191.011 162.927C190.76 163.392 189.689 163.49 189.175 163.092L186.115 160.577C185.868 160.4 185.568 160.311 185.265 160.326L179.922 160.362C179.077 160.362 178.582 159.812 179.09 159.42L182.284 156.972C182.375 156.918 182.441 156.832 182.47 156.73C182.498 156.629 182.487 156.52 182.437 156.427L180.718 153.508C180.442 153.037 181.207 152.596 182.009 152.749Z" fill="#FAFAFA"/>
<path d="M193.263 146.305L204.102 140.044C204.315 139.919 204.554 139.844 204.8 139.827C205.047 139.81 205.294 139.851 205.522 139.946C205.871 140.148 205.791 140.515 205.35 140.766L194.512 147.027C194.298 147.151 194.059 147.224 193.813 147.241C193.567 147.258 193.321 147.218 193.092 147.125C192.78 146.923 192.823 146.556 193.263 146.305Z" fill="#FAFAFA"/>
<path d="M195.993 147.884L206.856 141.623C207.069 141.498 207.308 141.423 207.554 141.406C207.801 141.389 208.048 141.43 208.276 141.525C208.619 141.727 208.539 142.094 208.105 142.345L197.26 148.606C197.048 148.733 196.809 148.809 196.563 148.828C196.317 148.847 196.069 148.809 195.84 148.716C195.479 148.502 195.558 148.135 195.993 147.884Z" fill="#FAFAFA"/>
<path d="M198.729 149.457L209.567 143.208C209.779 143.081 210.019 143.006 210.265 142.989C210.512 142.972 210.759 143.014 210.987 143.11C211.33 143.306 211.256 143.673 210.816 143.93L199.977 150.185C199.764 150.308 199.525 150.382 199.279 150.399C199.032 150.415 198.786 150.376 198.557 150.283C198.208 150.081 198.288 149.714 198.729 149.457Z" fill="#FAFAFA"/>
<path d="M201.458 151.035L212.297 144.781C212.509 144.654 212.748 144.579 212.995 144.562C213.242 144.545 213.489 144.586 213.717 144.683C214.065 144.879 213.986 145.246 213.545 145.503L202.707 151.776C202.494 151.903 202.255 151.978 202.008 151.995C201.762 152.012 201.515 151.97 201.287 151.874C200.944 151.66 201.018 151.293 201.458 151.035Z" fill="#FAFAFA"/>
<path d="M204.188 152.614L215.032 146.36C215.244 146.233 215.482 146.158 215.727 146.141C215.973 146.124 216.219 146.165 216.446 146.262C216.795 146.458 216.715 146.825 216.281 147.082L205.436 153.337C205.224 153.463 204.985 153.538 204.738 153.555C204.491 153.572 204.244 153.531 204.016 153.435C203.674 153.239 203.753 152.871 204.188 152.614Z" fill="#FAFAFA"/>
<path d="M206.923 154.224L217.762 147.969C217.974 147.843 218.213 147.768 218.46 147.751C218.707 147.734 218.954 147.775 219.182 147.871C219.524 148.067 219.451 148.434 219.01 148.692L208.172 154.946C207.959 155.073 207.72 155.148 207.474 155.165C207.227 155.182 206.98 155.141 206.752 155.044C206.403 154.836 206.483 154.45 206.923 154.224Z" fill="#FAFAFA"/>
<path d="M191.85 172.247L192.749 172.768C192.996 172.891 193.269 172.956 193.545 172.956C193.821 172.956 194.094 172.891 194.341 172.768L215.149 160.766C215.245 160.734 215.329 160.673 215.389 160.59C215.448 160.508 215.48 160.409 215.48 160.307C215.48 160.206 215.448 160.107 215.389 160.024C215.329 159.942 215.245 159.88 215.149 159.848L214.249 159.328C214.002 159.204 213.73 159.14 213.453 159.14C213.177 159.14 212.905 159.204 212.658 159.328L191.85 171.329C191.753 171.361 191.669 171.423 191.61 171.505C191.55 171.588 191.518 171.687 191.518 171.788C191.518 171.89 191.55 171.989 191.61 172.072C191.669 172.154 191.753 172.215 191.85 172.247Z" fill="#E0E0E0"/>
<path d="M229.139 150.717L230.039 151.237C230.479 151.488 230.479 151.898 230.039 152.155L221.685 156.978C221.438 157.102 221.165 157.166 220.889 157.166C220.613 157.166 220.341 157.102 220.094 156.978L219.194 156.458C219.097 156.426 219.013 156.364 218.954 156.282C218.894 156.2 218.862 156.1 218.862 155.999C218.862 155.897 218.894 155.798 218.954 155.716C219.013 155.633 219.097 155.572 219.194 155.54L227.554 150.717C227.8 150.593 228.071 150.529 228.346 150.529C228.622 150.529 228.893 150.593 229.139 150.717Z" fill="#E0E0E0"/>
<path d="M147.663 124.964C147.496 125.046 147.311 125.089 147.125 125.089C146.938 125.089 146.754 125.046 146.586 124.964C146.523 124.942 146.468 124.901 146.429 124.846C146.39 124.791 146.369 124.725 146.369 124.658C146.369 124.591 146.39 124.526 146.429 124.471C146.468 124.416 146.523 124.375 146.586 124.352C146.754 124.27 146.938 124.227 147.125 124.227C147.311 124.227 147.496 124.27 147.663 124.352C147.963 124.518 147.963 124.793 147.663 124.964Z" fill="#263238"/>
<path d="M145.944 129.854C145.61 130.023 145.241 130.111 144.867 130.111C144.492 130.111 144.123 130.023 143.789 129.854C143.668 129.805 143.564 129.72 143.49 129.611C143.417 129.502 143.378 129.373 143.378 129.242C143.378 129.111 143.417 128.982 143.49 128.873C143.564 128.764 143.668 128.68 143.789 128.63C144.123 128.461 144.492 128.373 144.867 128.373C145.241 128.373 145.61 128.461 145.944 128.63C146.065 128.68 146.169 128.764 146.243 128.873C146.316 128.982 146.355 129.111 146.355 129.242C146.355 129.373 146.316 129.502 146.243 129.611C146.169 129.72 146.065 129.805 145.944 129.854Z" fill="#263238"/>
<path d="M147.492 127.688C147.094 127.455 147.119 127.076 147.541 126.831L154.628 122.737C154.858 122.619 155.113 122.558 155.371 122.558C155.63 122.558 155.885 122.619 156.115 122.737C156.507 122.963 156.488 123.349 156.066 123.593L148.979 127.682C148.749 127.799 148.495 127.86 148.236 127.861C147.978 127.862 147.723 127.803 147.492 127.688Z" fill="#263238"/>
<path d="M130.301 67.8157V69.2539L125.331 72.1242L117.877 76.4082L52.0751 114.444C51.6852 114.689 51.3632 115.027 51.1387 115.429C50.8969 115.825 50.7619 116.276 50.747 116.739V204.194C50.747 208.949 47.4055 210.877 43.2929 208.478C39.1802 206.079 35.8326 200.32 35.8326 195.565V108.104C35.858 107.644 35.9916 107.196 36.2223 106.797C36.453 106.399 36.7745 106.06 37.1606 105.809L110.411 63.5134L117.504 59.4252C117.741 59.8241 117.872 60.2772 117.883 60.741V62.0752L39.6453 107.363C39.2782 107.591 38.9733 107.906 38.7579 108.281C38.4904 108.692 38.3402 109.168 38.3234 109.658V196.997C38.3234 200.167 40.5511 204.016 43.299 205.601C46.0469 207.186 48.2684 205.901 48.2684 202.731V115.276C48.2897 114.818 48.4189 114.372 48.6454 113.973C48.8719 113.574 49.1894 113.234 49.572 112.981L129.915 66.5917C130.146 66.9601 130.279 67.3815 130.301 67.8157Z" fill="#E0E0E0"/>
<path d="M122.841 63.6052V67.8157L47.124 111.549C46.7349 111.797 46.4097 112.132 46.1747 112.529C45.9397 112.925 45.8015 113.372 45.7715 113.832V201.287C45.7715 202.872 44.6637 203.514 43.2929 202.719C42.571 202.25 41.9698 201.618 41.538 200.874C41.1063 200.13 40.8562 199.294 40.8081 198.435V110.974C40.8239 110.512 40.9566 110.061 41.1937 109.664C41.4218 109.265 41.7431 108.927 42.1301 108.679L122.467 62.2955C122.7 62.6937 122.828 63.1441 122.841 63.6052Z" fill="#E0E0E0"/>
<path d="M53.6173 116.843C53.3794 117.237 53.2467 117.686 53.2318 118.147V204.849C53.233 205.479 53.1921 206.109 53.1093 206.734C53.0849 206.897 53.0604 207.056 53.0359 207.211C53.0359 207.358 52.9808 207.499 52.9502 207.645C52.9196 207.792 52.889 207.903 52.8523 208.025C52.8156 208.147 52.7911 208.264 52.7544 208.38C52.349 209.869 51.3959 211.15 50.0861 211.966C48.3051 212.988 45.9183 212.866 43.2929 211.354C37.7849 208.184 33.3479 200.13 33.3479 193.374V106.665C33.3628 106.205 33.4955 105.756 33.7334 105.362L36.2243 106.794C35.9825 107.189 35.8475 107.641 35.8326 108.104V195.558C35.8326 200.314 39.1741 206.097 43.2929 208.472C47.4116 210.846 50.747 208.925 50.747 204.188V116.715C50.7619 116.251 50.8969 115.8 51.1387 115.405L53.6173 116.843Z" fill="#EBEBEB"/>
<path d="M48.6479 113.973C48.4107 114.367 48.2781 114.816 48.2623 115.276V202.731C48.2623 205.901 46.0346 207.186 43.2929 205.601C40.5511 204.016 38.3173 200.167 38.3173 196.997V109.634C38.3341 109.144 38.4843 108.668 38.7518 108.257L41.1998 109.664C40.9627 110.061 40.8301 110.512 40.8143 110.974V198.429C40.8624 199.288 41.1124 200.124 41.5442 200.868C41.9759 201.612 42.5771 202.244 43.299 202.713C44.6699 203.508 45.7776 202.866 45.7776 201.281V113.832C45.7925 113.369 45.9275 112.918 46.1693 112.522L48.6479 113.973Z" fill="#EBEBEB"/>
<path d="M117.504 59.4252L110.423 63.5134L37.1606 105.809C36.7694 106.052 36.447 106.391 36.2243 106.794L33.7334 105.362C33.956 104.957 34.2783 104.616 34.6698 104.37L107.926 62.0752L109.34 61.2551L110.772 60.4472L111.996 59.7373L112.724 59.315L114.077 58.5378C114.471 58.328 114.91 58.2143 115.356 58.2058C115.803 58.1973 116.245 58.2942 116.647 58.4888C117.009 58.7213 117.305 59.044 117.504 59.4252Z" fill="#FAFAFA"/>
<path d="M134.891 69.4681L127.81 73.5563L115.38 80.7289L54.5598 115.852C54.1679 116.098 53.8439 116.439 53.6173 116.843L51.1693 115.405C51.3884 115.016 51.6994 114.686 52.0751 114.444L117.871 76.4327L125.325 72.1487L130.295 69.2784L131.451 68.6113L131.58 68.544C131.962 68.361 132.38 68.266 132.804 68.266C133.228 68.266 133.646 68.361 134.028 68.544L134.157 68.6235C134.459 68.8487 134.71 69.1369 134.891 69.4681Z" fill="#FAFAFA"/>
<path d="M122.467 62.2955L42.1301 108.679C41.7431 108.927 41.4218 109.265 41.1937 109.664L38.7457 108.257C38.961 107.882 39.2659 107.567 39.6331 107.339L117.871 62.0507L119.022 61.3836C119.416 61.1738 119.854 61.0601 120.301 61.0516C120.748 61.0431 121.19 61.14 121.592 61.3346C121.963 61.5732 122.264 61.9044 122.467 62.2955Z" fill="#FAFAFA"/>
<path d="M129.934 66.5917L49.572 112.981C49.1788 113.226 48.8544 113.568 48.6295 113.973L46.1448 112.535C46.3794 112.126 46.717 111.786 47.124 111.549L122.865 67.8157L126.537 65.7104C126.932 65.5016 127.371 65.3889 127.817 65.3815C128.264 65.3741 128.706 65.4721 129.107 65.6676C129.458 65.8997 129.742 66.2179 129.934 66.5917Z" fill="#FAFAFA"/>
<path d="M135.252 70.7839V157.486C135.252 161.042 134.028 163.533 132.051 164.634L49.9698 212.027C50.6965 211.59 51.3267 211.01 51.8223 210.322C52.3178 209.634 52.6682 208.853 52.8523 208.025C52.889 207.902 52.9196 207.774 52.9502 207.645C52.9808 207.517 53.0053 207.358 53.0359 207.211C53.0665 207.064 53.0849 206.899 53.1093 206.734C53.1921 206.109 53.233 205.479 53.2317 204.849V118.147C53.2467 117.686 53.3794 117.237 53.6173 116.843C53.8439 116.439 54.1679 116.098 54.5598 115.852L115.38 80.735L127.81 73.5624L134.891 69.4742C135.121 69.8727 135.246 70.3236 135.252 70.7839Z" fill="#F5F5F5"/>
<path d="M62.0201 117.29L74.2601 110.209C74.9945 109.787 75.582 110.123 75.582 110.974V128.006C75.5582 128.466 75.426 128.913 75.1963 129.312C74.9665 129.711 74.6457 130.05 74.2601 130.301L62.0201 137.382C61.2857 137.804 60.692 137.461 60.692 136.617V119.585C60.717 119.125 60.8503 118.677 61.0811 118.278C61.3119 117.879 61.6336 117.541 62.0201 117.29Z" fill="#535353"/>
<path d="M60.692 143.887L127.816 105.135V108.006L60.692 146.758V143.887Z" fill="#A4C6F2"/>
<path opacity="0.4" d="M60.692 143.887L127.816 105.135V108.006L60.692 146.758V143.887Z" fill="white"/>
<path d="M61.4876 152.039L74.817 144.346C75.2515 144.089 75.6065 144.297 75.6065 144.805V171.672C75.5922 171.947 75.5133 172.216 75.3761 172.455C75.239 172.694 75.0474 172.898 74.817 173.049L61.4876 180.742C61.047 180.999 60.692 180.791 60.692 180.283V153.416C60.7065 153.14 60.7861 152.871 60.9244 152.632C61.0627 152.393 61.2557 152.19 61.4876 152.039Z" fill="#F0F0F0"/>
<path d="M61.4876 183.6L74.817 175.901C75.2515 175.65 75.6065 175.858 75.6065 176.36V197.388L60.692 206.018V184.995C60.7036 184.716 60.7819 184.444 60.9203 184.201C61.0587 183.958 61.2532 183.752 61.4876 183.6Z" fill="#F0F0F0"/>
<path d="M78.8929 141.984L92.2161 134.291C92.6568 134.04 93.0117 134.242 93.0117 134.75V170.246C92.9968 170.522 92.9169 170.791 92.7787 171.03C92.6405 171.269 92.4477 171.472 92.2161 171.623L78.8929 179.316C78.4523 179.567 78.0973 179.365 78.0973 178.857V143.361C78.1132 143.085 78.1934 142.817 78.3316 142.578C78.4698 142.339 78.662 142.135 78.8929 141.984Z" fill="#F0F0F0"/>
<path d="M96.2921 131.947L109.615 124.236C110.056 123.979 110.411 124.187 110.411 124.695V151.562C110.396 151.838 110.317 152.107 110.179 152.346C110.04 152.585 109.847 152.788 109.615 152.939L96.2921 160.65C95.8515 160.907 95.4965 160.699 95.4965 160.191V133.324C95.511 133.048 95.5906 132.779 95.7289 132.54C95.8672 132.301 96.0602 132.098 96.2921 131.947Z" fill="#F0F0F0"/>
<path d="M113.697 121.898L127.021 114.205C127.461 113.948 127.816 114.156 127.816 114.664V150.16C127.8 150.436 127.72 150.704 127.582 150.943C127.444 151.182 127.251 151.386 127.021 151.537L113.697 159.23C113.257 159.481 112.902 159.279 112.902 158.771V123.275C112.916 122.999 112.996 122.73 113.134 122.491C113.272 122.252 113.465 122.049 113.697 121.898Z" fill="#F0F0F0"/>
<path d="M78.8929 182.18L92.2161 174.487C92.6568 174.23 93.0117 174.438 93.0117 174.946V187.358L78.0973 195.975V183.557C78.1118 183.281 78.1914 183.012 78.3297 182.773C78.468 182.534 78.661 182.331 78.8929 182.18Z" fill="#F0F0F0"/>
<path d="M95.472 164.897V185.926L110.386 177.315V156.286C110.386 155.778 110.031 155.576 109.591 155.827L96.2676 163.52C96.036 163.671 95.8433 163.874 95.705 164.114C95.5668 164.353 95.4869 164.621 95.472 164.897Z" fill="#F0F0F0"/>
<path d="M113.691 162.088L127.021 154.395C127.461 154.138 127.816 154.346 127.816 154.854V167.266L112.902 175.877V163.465C112.916 163.19 112.995 162.922 113.132 162.682C113.269 162.443 113.461 162.24 113.691 162.088Z" fill="#F0F0F0"/>
<path d="M81.396 183.6L89.7498 178.777C90.1904 178.52 90.5454 178.728 90.5454 179.236V186.048C90.5309 186.324 90.4513 186.593 90.313 186.832C90.1747 187.071 89.9817 187.275 89.7498 187.425L81.396 192.235C80.9553 192.486 80.6004 192.284 80.6004 191.776V185.001C80.611 184.721 80.6888 184.448 80.8273 184.204C80.9657 183.96 81.1608 183.753 81.396 183.6Z" fill="#E0E0E0"/>
<path d="M116.182 163.533L124.536 158.71C124.97 158.453 125.331 158.661 125.331 159.169V165.944C125.315 166.219 125.235 166.487 125.097 166.726C124.958 166.965 124.766 167.169 124.536 167.321L116.182 172.143C115.741 172.394 115.386 172.192 115.386 171.684V164.91C115.401 164.633 115.481 164.365 115.619 164.125C115.757 163.886 115.95 163.683 116.182 163.533Z" fill="#E0E0E0"/>
<path d="M63.9724 153.477L72.3262 148.649C72.7668 148.398 73.1218 148.606 73.1218 149.108V155.889C73.1059 156.164 73.0256 156.432 72.8874 156.672C72.7493 156.911 72.5571 157.114 72.3262 157.266L63.9724 162.088C63.5378 162.339 63.1768 162.137 63.1768 161.629V154.836C63.1945 154.563 63.2757 154.298 63.4138 154.063C63.5519 153.827 63.7432 153.626 63.9724 153.477Z" fill="#E0E0E0"/>
<path d="M63.7092 163.673L72.5954 158.545C72.8892 158.379 73.1218 158.514 73.1218 158.851V159.065C73.1124 159.249 73.0599 159.427 72.9684 159.587C72.877 159.746 72.7492 159.882 72.5954 159.983L63.7092 165.111C63.4154 165.283 63.1768 165.111 63.1768 164.805V164.591C63.1873 164.407 63.2409 164.228 63.3334 164.069C63.4259 163.909 63.5547 163.774 63.7092 163.673Z" fill="#E0E0E0"/>
<path d="M63.7092 166.544L72.5954 161.415C72.8892 161.25 73.1218 161.384 73.1218 161.721V161.935C73.1124 162.119 73.0599 162.298 72.9684 162.457C72.877 162.617 72.7492 162.752 72.5954 162.853L63.7092 167.982C63.4154 168.153 63.1768 167.982 63.1768 167.676V167.462C63.1873 167.278 63.2409 167.099 63.3334 166.939C63.4259 166.78 63.5547 166.644 63.7092 166.544Z" fill="#E0E0E0"/>
<path d="M63.7092 169.414L72.5954 164.285C72.8892 164.12 73.1218 164.255 73.1218 164.591V164.806C73.1124 164.989 73.0599 165.168 72.9684 165.327C72.877 165.487 72.7492 165.623 72.5954 165.723L63.7092 170.852C63.4154 171.023 63.1768 170.883 63.1768 170.546V170.332C63.1873 170.148 63.2409 169.969 63.3334 169.809C63.4259 169.65 63.5547 169.514 63.7092 169.414Z" fill="#E0E0E0"/>
<path d="M63.7092 172.284L72.5954 167.156C72.8892 166.99 73.1218 167.125 73.1218 167.462V167.688C73.1124 167.872 73.0599 168.05 72.9684 168.21C72.877 168.369 72.7492 168.505 72.5954 168.606L63.7092 173.735C63.4154 173.906 63.1768 173.765 63.1768 173.429V173.196C63.1882 173.013 63.2423 172.835 63.3348 172.677C63.4272 172.519 63.5555 172.384 63.7092 172.284Z" fill="#E0E0E0"/>
<path d="M63.7092 175.154L72.5954 170.026C72.8892 169.861 73.1218 169.995 73.1218 170.332V170.546C73.1124 170.73 73.0599 170.908 72.9684 171.068C72.877 171.228 72.7492 171.363 72.5954 171.464L63.7092 176.593C63.4154 176.764 63.1768 176.623 63.1768 176.287V176.072C63.1873 175.888 63.2409 175.709 63.3334 175.55C63.4259 175.39 63.5547 175.255 63.7092 175.154Z" fill="#E0E0E0"/>
<path d="M81.396 143.428L89.7498 138.606C90.1904 138.349 90.5454 138.557 90.5454 139.065V145.84C90.5304 146.116 90.4506 146.384 90.3123 146.623C90.1741 146.863 89.9813 147.066 89.7498 147.217L81.396 152.039C80.9553 152.29 80.6004 152.088 80.6004 151.58V144.805C80.6148 144.529 80.6945 144.261 80.8328 144.021C80.971 143.782 81.164 143.579 81.396 143.428Z" fill="#E0E0E0"/>
<path d="M81.1084 153.612L89.9946 148.483C90.2884 148.312 90.527 148.447 90.527 148.789V148.998C90.517 149.182 90.4635 149.361 90.371 149.52C90.2785 149.68 90.1495 149.815 89.9946 149.916L81.1084 155.044C80.8207 155.215 80.582 155.044 80.582 154.738V154.53C80.5914 154.346 80.6439 154.168 80.7354 154.008C80.8268 153.849 80.9546 153.713 81.1084 153.612Z" fill="#E0E0E0"/>
<path d="M81.1084 156.501L89.9946 151.372C90.2884 151.201 90.527 151.335 90.527 151.678V151.886C90.517 152.07 90.4635 152.25 90.371 152.409C90.2785 152.569 90.1495 152.704 89.9946 152.804L81.1084 157.933C80.8207 158.104 80.582 157.963 80.582 157.627V157.419C80.5914 157.235 80.6439 157.056 80.7354 156.897C80.8268 156.737 80.9546 156.601 81.1084 156.501Z" fill="#E0E0E0"/>
<path d="M81.1084 159.371L89.9946 154.224C90.2884 154.053 90.527 154.187 90.527 154.53V154.738C90.517 154.922 90.4635 155.101 90.371 155.261C90.2785 155.421 90.1495 155.556 89.9946 155.656L81.1084 160.785C80.8207 160.956 80.582 160.815 80.582 160.479V160.271C80.5942 160.09 80.648 159.915 80.7394 159.759C80.8307 159.603 80.957 159.47 81.1084 159.371Z" fill="#E0E0E0"/>
<path d="M81.1084 162.241L89.9946 157.113C90.2884 156.941 90.527 157.076 90.527 157.419V157.627C90.517 157.811 90.4635 157.99 90.371 158.15C90.2785 158.309 90.1495 158.445 89.9946 158.545L81.1084 163.673C80.8207 163.845 80.582 163.704 80.582 163.367V163.159C80.5914 162.976 80.6439 162.797 80.7354 162.637C80.8268 162.478 80.9546 162.342 81.1084 162.241Z" fill="#E0E0E0"/>
<path d="M81.1084 165.111L89.9946 159.983C90.2884 159.812 90.527 159.946 90.527 160.289V160.497C90.517 160.681 90.4635 160.86 90.371 161.02C90.2785 161.179 90.1495 161.315 89.9946 161.415L81.1084 166.544C80.8207 166.715 80.582 166.574 80.582 166.238V166.029C80.5914 165.846 80.6439 165.667 80.7354 165.508C80.8268 165.348 80.9546 165.212 81.1084 165.111Z" fill="#E0E0E0"/>
<path d="M81.1084 167.982L89.9946 162.853C90.2884 162.682 90.527 162.823 90.527 163.159V163.367C90.518 163.552 90.4649 163.731 90.3723 163.891C90.2797 164.051 90.1502 164.186 89.9946 164.285L81.1084 169.414C80.8207 169.585 80.582 169.451 80.582 169.108V168.912C80.5909 168.727 80.6432 168.546 80.7346 168.384C80.826 168.223 80.954 168.085 81.1084 167.982Z" fill="#E0E0E0"/>
<path d="M81.1084 170.852L89.9946 165.723C90.2884 165.552 90.527 165.693 90.527 166.029V166.238C90.518 166.422 90.4649 166.602 90.3723 166.761C90.2797 166.921 90.1502 167.056 89.9946 167.156L81.1084 172.284C80.8207 172.455 80.582 172.321 80.582 171.978V171.77C80.5928 171.587 80.6459 171.408 80.7373 171.249C80.8286 171.09 80.9556 170.954 81.1084 170.852Z" fill="#E0E0E0"/>
<path d="M81.1084 173.722L89.9946 168.594C90.2884 168.422 90.527 168.563 90.527 168.9V169.108C90.518 169.292 90.4649 169.472 90.3723 169.631C90.2797 169.791 90.1502 169.926 89.9946 170.026L81.1084 175.154C80.8207 175.326 80.582 175.191 80.582 174.848V174.64C80.5928 174.457 80.6459 174.279 80.7373 174.119C80.8286 173.96 80.9556 173.824 81.1084 173.722Z" fill="#E0E0E0"/>
<path d="M63.9724 185.057L72.3262 180.228C72.7668 179.977 73.1218 180.185 73.1218 180.687V187.468C73.1068 187.744 73.027 188.012 72.8887 188.252C72.7505 188.491 72.5577 188.694 72.3262 188.845L63.9724 193.667C63.5378 193.918 63.1768 193.716 63.1768 193.208V186.434C63.1917 186.158 63.2715 185.889 63.4098 185.65C63.548 185.411 63.7408 185.207 63.9724 185.057Z" fill="#E0E0E0"/>
<path d="M63.7092 195.228L72.5954 190.099C72.8892 189.934 73.1218 190.069 73.1218 190.405V190.62C73.1124 190.803 73.0599 190.982 72.9684 191.142C72.877 191.301 72.7492 191.437 72.5954 191.538L63.7092 196.666C63.4154 196.838 63.1768 196.697 63.1768 196.36V196.146C63.1873 195.962 63.2409 195.783 63.3334 195.623C63.4259 195.464 63.5547 195.329 63.7092 195.228Z" fill="#E0E0E0"/>
<path d="M63.7092 198.123L72.5954 192.994C72.8892 192.829 73.1218 192.964 73.1218 193.3V193.514C73.1124 193.698 73.0599 193.877 72.9684 194.036C72.877 194.196 72.7492 194.332 72.5954 194.432L63.7092 199.561C63.4154 199.732 63.1768 199.592 63.1768 199.255V199.041C63.1873 198.857 63.2409 198.678 63.3334 198.518C63.4259 198.359 63.5547 198.223 63.7092 198.123Z" fill="#E0E0E0"/>
<path d="M63.7092 200.999L72.5954 195.84C72.8892 195.675 73.1218 195.809 73.1218 196.146V196.36C73.1124 196.544 73.0599 196.723 72.9684 196.882C72.877 197.042 72.7492 197.177 72.5954 197.278L63.7092 202.407C63.4154 202.578 63.1768 202.437 63.1768 202.101V201.893C63.1896 201.713 63.2444 201.538 63.3369 201.383C63.4293 201.228 63.5568 201.096 63.7092 200.999Z" fill="#E0E0E0"/>
<path d="M98.7768 133.379L107.131 128.557C107.571 128.306 107.926 128.508 107.926 129.016V135.791C107.912 136.067 107.832 136.335 107.694 136.575C107.556 136.814 107.363 137.017 107.131 137.168L98.7768 141.984C98.3423 142.235 97.9812 142.027 97.9812 141.525V134.756C97.998 134.481 98.0787 134.213 98.2168 133.974C98.3548 133.735 98.5466 133.531 98.7768 133.379Z" fill="#E0E0E0"/>
<path d="M98.532 143.581L107.418 138.453C107.706 138.288 107.945 138.453 107.945 138.759V138.973C107.934 139.156 107.881 139.335 107.789 139.494C107.698 139.653 107.571 139.789 107.418 139.891L98.532 145.044C98.2382 145.209 97.9996 145.044 97.9996 144.738V144.524C98.0063 144.336 98.0581 144.152 98.1508 143.988C98.2435 143.824 98.3742 143.684 98.532 143.581Z" fill="#E0E0E0"/>
<path d="M98.532 146.452L107.418 141.323C107.706 141.158 107.945 141.323 107.945 141.629V141.843C107.934 142.027 107.881 142.205 107.789 142.364C107.698 142.523 107.571 142.659 107.418 142.761L98.532 147.89C98.2382 148.055 97.9996 147.89 97.9996 147.584V147.37C98.0101 147.186 98.0638 147.007 98.1563 146.847C98.2487 146.688 98.3775 146.552 98.532 146.452Z" fill="#E0E0E0"/>
<path d="M98.532 149.328L107.418 144.199C107.706 144.034 107.945 144.169 107.945 144.505V144.72C107.934 144.903 107.881 145.081 107.789 145.241C107.698 145.4 107.571 145.536 107.418 145.638L98.532 150.76C98.2382 150.925 97.9996 150.76 97.9996 150.454V150.24C98.011 150.057 98.0651 149.879 98.1576 149.721C98.25 149.562 98.3783 149.428 98.532 149.328Z" fill="#E0E0E0"/>
<path d="M98.532 152.192L107.418 147.064C107.706 146.898 107.945 147.033 107.945 147.37V147.584C107.934 147.767 107.881 147.945 107.789 148.105C107.698 148.264 107.571 148.4 107.418 148.502L98.532 153.612C98.2382 153.777 97.9996 153.643 97.9996 153.306V153.092C98.0129 152.911 98.0679 152.736 98.1602 152.579C98.2526 152.423 98.3799 152.291 98.532 152.192Z" fill="#E0E0E0"/>
<path d="M98.532 155.062L107.4 149.94C107.688 149.775 107.926 149.909 107.926 150.246V150.46C107.915 150.643 107.862 150.822 107.771 150.981C107.68 151.14 107.553 151.276 107.4 151.378L98.532 156.501C98.2382 156.666 97.9996 156.531 97.9996 156.195V155.98C98.0101 155.796 98.0638 155.617 98.1563 155.458C98.2487 155.298 98.3775 155.163 98.532 155.062Z" fill="#E0E0E0"/>
<path d="M116.182 123.336L124.536 118.514C124.97 118.257 125.331 118.465 125.331 118.973V125.748C125.315 126.023 125.235 126.291 125.097 126.53C124.958 126.769 124.766 126.973 124.536 127.125L116.182 131.947C115.741 132.198 115.386 131.996 115.386 131.488V124.713C115.401 124.437 115.481 124.169 115.619 123.929C115.757 123.69 115.95 123.487 116.182 123.336Z" fill="#E0E0E0"/>
<path d="M115.913 133.532L124.799 128.404C125.093 128.238 125.331 128.373 125.331 128.71V128.924C125.321 129.108 125.267 129.287 125.175 129.446C125.082 129.606 124.954 129.741 124.799 129.842L115.913 134.97C115.625 135.142 115.386 135.001 115.386 134.664V134.45C115.397 134.267 115.45 134.089 115.542 133.929C115.633 133.77 115.76 133.634 115.913 133.532Z" fill="#E0E0E0"/>
<path d="M115.913 136.409L124.799 131.274C125.093 131.109 125.331 131.243 125.331 131.58V131.794C125.321 131.978 125.267 132.157 125.175 132.317C125.082 132.476 124.954 132.612 124.799 132.712L115.913 137.841C115.625 138.012 115.386 137.871 115.386 137.535V137.327C115.396 137.143 115.448 136.964 115.54 136.805C115.631 136.645 115.759 136.509 115.913 136.409Z" fill="#E0E0E0"/>
<path d="M115.913 139.279L124.799 134.144C125.093 133.979 125.331 134.114 125.331 134.45V134.64C125.321 134.824 125.267 135.003 125.175 135.163C125.082 135.322 124.954 135.457 124.799 135.558L115.913 140.687C115.625 140.858 115.386 140.717 115.386 140.381V140.172C115.4 139.993 115.454 139.819 115.545 139.664C115.636 139.509 115.762 139.377 115.913 139.279Z" fill="#E0E0E0"/>
<path d="M115.913 142.149L124.799 137.015C125.093 136.849 125.331 137.015 125.331 137.321V137.535C125.321 137.719 125.267 137.898 125.175 138.057C125.082 138.217 124.954 138.352 124.799 138.453L115.913 143.581C115.625 143.753 115.386 143.581 115.386 143.275V143.067C115.396 142.884 115.448 142.705 115.54 142.545C115.631 142.386 115.759 142.25 115.913 142.149Z" fill="#E0E0E0"/>
<path d="M115.913 145.044L124.799 139.909C125.093 139.744 125.331 139.909 125.331 140.215V140.43C125.321 140.614 125.267 140.793 125.175 140.952C125.082 141.112 124.954 141.247 124.799 141.348L115.913 146.452C115.625 146.623 115.386 146.452 115.386 146.146V145.938C115.4 145.758 115.454 145.584 115.545 145.429C115.636 145.274 115.762 145.142 115.913 145.044Z" fill="#E0E0E0"/>
<path d="M115.913 147.89L124.799 142.761C125.093 142.59 125.331 142.725 125.331 143.067V143.275C125.321 143.459 125.268 143.639 125.175 143.798C125.083 143.958 124.954 144.093 124.799 144.193L115.913 149.328C115.625 149.499 115.386 149.328 115.386 149.022V148.814C115.395 148.629 115.448 148.449 115.539 148.289C115.631 148.128 115.759 147.992 115.913 147.89Z" fill="#E0E0E0"/>
<path d="M115.913 150.76L124.799 145.656C125.093 145.485 125.331 145.619 125.331 145.962V146.17C125.321 146.354 125.268 146.533 125.175 146.693C125.083 146.853 124.954 146.988 124.799 147.088L115.913 152.217C115.625 152.388 115.386 152.217 115.386 151.911V151.703C115.392 151.515 115.443 151.331 115.535 151.167C115.627 151.003 115.756 150.864 115.913 150.76Z" fill="#E0E0E0"/>
<path d="M115.913 153.612L124.799 148.483C125.093 148.312 125.331 148.447 125.331 148.789V148.998C125.321 149.182 125.268 149.361 125.175 149.52C125.083 149.68 124.954 149.815 124.799 149.916L115.913 155.044C115.625 155.215 115.386 155.081 115.386 154.738V154.53C115.396 154.346 115.449 154.168 115.54 154.008C115.632 153.849 115.759 153.713 115.913 153.612Z" fill="#E0E0E0"/>
<path d="M98.7768 164.959L107.131 160.136C107.571 159.885 107.926 160.087 107.926 160.595V167.37C107.912 167.646 107.832 167.915 107.694 168.154C107.556 168.393 107.363 168.596 107.131 168.747L98.7768 173.575C98.3423 173.826 97.9812 173.618 97.9812 173.116V166.336C97.998 166.06 98.0787 165.792 98.2168 165.553C98.3548 165.314 98.5466 165.111 98.7768 164.959Z" fill="#E0E0E0"/>
<path d="M98.532 175.16L107.418 170.032C107.706 169.867 107.945 170.001 107.945 170.338V170.552C107.934 170.735 107.881 170.914 107.789 171.073C107.698 171.232 107.571 171.368 107.418 171.47L98.532 176.599C98.2382 176.764 97.9996 176.629 97.9996 176.293V176.078C98.0101 175.894 98.0638 175.715 98.1563 175.556C98.2487 175.396 98.3775 175.261 98.532 175.16Z" fill="#E0E0E0"/>
<path d="M98.532 178.031L107.418 172.902C107.706 172.737 107.945 172.902 107.945 173.208V173.422C107.934 173.606 107.881 173.784 107.789 173.943C107.698 174.103 107.571 174.239 107.418 174.34L98.532 179.469C98.2382 179.634 97.9996 179.5 97.9996 179.163V178.949C98.0101 178.765 98.0638 178.586 98.1563 178.426C98.2487 178.267 98.3775 178.131 98.532 178.031Z" fill="#E0E0E0"/>
<path d="M98.532 180.901L107.418 175.772C107.706 175.607 107.945 175.772 107.945 176.078V176.293C107.934 176.476 107.881 176.654 107.789 176.814C107.698 176.973 107.571 177.109 107.418 177.211L98.532 182.339C98.2382 182.504 97.9996 182.37 97.9996 182.033V181.819C98.0101 181.635 98.0638 181.456 98.1563 181.297C98.2487 181.137 98.3775 181.002 98.532 180.901Z" fill="#E0E0E0"/>
<path d="M80.9676 124.885C80.8452 124.844 80.784 124.728 80.784 124.536C80.7914 124.35 80.8286 124.166 80.8942 123.991L81.5551 121.886C81.5972 121.696 81.6928 121.522 81.8305 121.384C81.8756 121.359 81.9261 121.347 81.9774 121.347C82.0287 121.347 82.0792 121.359 82.1243 121.384C82.4645 121.527 82.8352 121.581 83.202 121.542C83.5689 121.504 83.9202 121.374 84.2234 121.164C84.7705 120.845 85.1999 120.357 85.4474 119.775C85.7336 119.059 85.869 118.292 85.8452 117.522V105.178C85.8338 104.822 85.8985 104.467 86.035 104.138C86.1817 103.834 86.4219 103.585 86.7204 103.428L88.079 102.645C88.385 102.467 88.6054 102.443 88.7339 102.577C88.8957 102.821 88.9651 103.114 88.9297 103.404V115.79C88.9517 117.529 88.5836 119.25 87.8526 120.827C87.1865 122.279 86.0849 123.488 84.7008 124.285C83.2279 125.138 81.9835 125.338 80.9676 124.885Z" fill="#535353"/>
<path d="M91.9897 117.449C90.8922 116.323 90.3434 114.167 90.3434 110.98C90.281 108.105 90.8426 105.251 91.9897 102.614C92.9676 100.359 94.6371 98.4727 96.7572 97.2284C98.8319 96.0044 100.429 96.0044 101.512 97.1183C102.596 98.2321 103.159 100.392 103.159 103.581C103.221 106.456 102.659 109.31 101.512 111.947C100.537 114.199 98.8719 116.082 96.7572 117.327C94.6764 118.526 93.0872 118.567 91.9897 117.449ZM99.2847 110.815C99.9074 109.047 100.198 107.18 100.142 105.307C100.142 103.1 99.8559 101.598 99.2847 100.803C98.7156 100.007 97.8771 99.9335 96.7572 100.576C95.5699 101.304 94.6705 102.419 94.2113 103.734C93.5899 105.502 93.3014 107.369 93.3606 109.242C93.3606 111.445 93.6421 112.951 94.2113 113.74C94.7804 114.53 95.6311 114.609 96.7572 113.954C97.9394 113.234 98.8332 112.124 99.2847 110.815Z" fill="#535353"/>
<path d="M104.86 111.929C104.699 111.692 104.629 111.405 104.664 111.121V94.3337C104.654 93.9749 104.721 93.618 104.86 93.2872C104.987 93.0032 105.201 92.7673 105.472 92.614L110.858 89.4989C112.212 88.7196 113.232 88.6135 113.918 89.1806C114.603 89.7478 114.94 90.8698 114.927 92.5466C114.928 93.4338 114.79 94.3155 114.517 95.1599C114.28 95.9431 113.895 96.6741 113.385 97.3141C114.646 97.2284 115.276 98.2892 115.276 100.497C115.276 101.58 115.113 102.656 114.793 103.691C114.471 104.735 113.972 105.717 113.318 106.592C112.662 107.474 111.828 108.207 110.87 108.746L105.484 111.861C105.197 112.027 104.989 112.051 104.86 111.929ZM110.368 97.5834C110.859 97.2959 111.255 96.8702 111.506 96.3594C111.793 95.7753 111.933 95.1307 111.916 94.4806C111.916 93.7094 111.788 93.2566 111.537 93.0424C111.286 92.8282 110.894 92.92 110.368 93.2198L107.712 94.7621V99.144L110.368 97.5834ZM110.662 105.454C111.209 105.146 111.639 104.666 111.886 104.089C112.156 103.467 112.291 102.796 112.284 102.118C112.284 101.31 112.131 100.79 111.825 100.564C111.519 100.337 111.084 100.38 110.533 100.698L107.712 102.32V107.161L110.662 105.454Z" fill="#535353"/>
<path d="M118 104.591C117.302 104.795 116.555 104.765 115.876 104.505C115.796 104.47 115.727 104.413 115.678 104.34C115.63 104.268 115.603 104.183 115.601 104.095C115.608 103.942 115.639 103.792 115.692 103.648L116.451 101.372C116.482 101.208 116.566 101.06 116.69 100.949C116.732 100.927 116.78 100.915 116.828 100.915C116.876 100.915 116.923 100.927 116.965 100.949C117.475 101.086 118.008 101.106 118.526 101.011C119.154 100.898 119.757 100.674 120.307 100.35C120.944 100.006 121.488 99.5125 121.892 98.9114C122.246 98.323 122.425 97.6456 122.406 96.9591C122.437 96.5749 122.349 96.1904 122.155 95.8575C121.976 95.6238 121.712 95.4698 121.421 95.4291C120.924 95.3629 120.423 95.3301 119.921 95.3312C119.249 95.3469 118.577 95.2687 117.926 95.0987C117.364 94.9273 116.886 94.5518 116.586 94.046C116.185 93.2954 116.003 92.4472 116.06 91.598C116.037 89.8969 116.477 88.2216 117.333 86.751C118.129 85.3549 119.282 84.1954 120.674 83.3911C122.51 82.3323 123.899 82.0569 124.866 82.5527C124.943 82.5919 125.009 82.6502 125.057 82.722C125.105 82.7937 125.135 82.8766 125.142 82.9627C125.134 83.1154 125.103 83.266 125.05 83.4095L124.297 85.6861C124.267 85.8478 124.183 85.9945 124.059 86.1023C124.017 86.1264 123.969 86.1392 123.921 86.1392C123.872 86.1392 123.825 86.1264 123.783 86.1023C123.036 85.7799 122.131 85.9248 121.066 86.5368C120.452 86.8531 119.94 87.3361 119.588 87.9304C119.236 88.5248 119.059 89.2062 119.077 89.8967C119.049 90.2667 119.13 90.6367 119.309 90.9615C119.45 91.1782 119.67 91.3318 119.921 91.3899C120.341 91.4659 120.768 91.5007 121.194 91.494H121.708C122.424 91.4967 123.136 91.6061 123.82 91.8183C124.343 92.0088 124.77 92.3981 125.007 92.9016C125.326 93.6765 125.466 94.5132 125.417 95.3496C125.418 96.9681 124.996 98.5589 124.193 99.9641C123.373 101.421 122.166 102.622 120.705 103.434C119.869 103.959 118.956 104.349 118 104.591Z" fill="#535353"/>
<path d="M194.475 45.6981L191.99 44.2599C191.81 44.176 191.61 44.142 191.412 44.1614C191.214 44.1807 191.025 44.2528 190.864 44.3701L159.242 62.6689C158.78 62.9715 158.396 63.3783 158.119 63.8566C157.843 64.3349 157.683 64.8714 157.651 65.4229V130.601C157.63 130.798 157.662 130.997 157.744 131.178C157.826 131.359 157.954 131.515 158.116 131.629L160.564 133.061H160.601C160.777 133.132 160.968 133.158 161.156 133.135C161.344 133.113 161.524 133.043 161.678 132.933L170.032 128.11V133.135C170.032 134.022 170.173 134.536 170.405 134.677L172.853 136.103C173.135 136.256 173.545 135.864 174.004 134.879L179.928 122.333L193.251 114.597C193.713 114.294 194.098 113.888 194.374 113.409C194.651 112.931 194.811 112.395 194.842 111.843V46.7201C194.873 46.5326 194.855 46.3404 194.791 46.1616C194.727 45.9829 194.618 45.8233 194.475 45.6981Z" fill="#A4C6F2"/>
<path opacity="0.4" d="M194.414 45.6613C194.238 45.5985 194.05 45.5784 193.865 45.6029C193.679 45.6274 193.503 45.6957 193.349 45.8021L161.721 64.107C161.262 64.3929 160.882 64.7909 160.619 65.2637L158.135 63.8255C158.396 63.3514 158.775 62.9529 159.236 62.6688L190.858 44.3639C191.071 44.2334 191.313 44.1597 191.562 44.1497C191.71 44.1469 191.855 44.1828 191.984 44.2537L194.414 45.6613Z" fill="white"/>
<path opacity="0.2" d="M170.448 134.701C170.222 134.56 170.081 134.046 170.081 133.159V128.141L172.584 126.684V134.579C172.584 135.423 172.713 135.937 172.915 136.109L170.448 134.701Z" fill="black"/>
<path opacity="0.1" d="M160.613 133.067L158.129 131.635C157.97 131.519 157.844 131.364 157.764 131.185C157.683 131.006 157.651 130.809 157.67 130.613V65.4228C157.692 64.857 157.861 64.3066 158.159 63.8255L160.644 65.2637C160.347 65.7452 160.18 66.2957 160.16 66.861V132.039C160.137 132.235 160.167 132.434 160.247 132.615C160.326 132.796 160.453 132.952 160.613 133.067Z" fill="black"/>
<path d="M166.427 67.1242L188.637 54.2722C189.371 53.8499 189.965 54.1926 189.965 55.0372V69.156C189.94 69.6169 189.807 70.0655 189.576 70.4653C189.345 70.8651 189.023 71.2049 188.637 71.4571L166.427 84.3091C165.699 84.7314 165.105 84.3887 165.105 83.5441V69.4192C165.131 68.9598 165.263 68.5129 165.493 68.1142C165.723 67.7156 166.043 67.3765 166.427 67.1242Z" fill="#535353"/>
<path d="M189.965 75.0251C189.932 75.471 189.795 75.9029 189.565 76.2857C189.334 76.6686 189.016 76.9915 188.637 77.2283L166.427 90.0497C165.699 90.472 165.105 90.1721 165.105 89.3765C165.138 88.9324 165.275 88.5022 165.505 88.1207C165.734 87.7391 166.05 87.4167 166.427 87.1794L188.637 74.358C189.371 73.9357 189.965 74.2356 189.965 75.0251Z" fill="#535353"/>
<path d="M189.965 80.784C189.932 81.2299 189.795 81.6618 189.565 82.0446C189.334 82.4275 189.016 82.7504 188.637 82.9872L166.427 95.8392C165.699 96.2615 165.105 95.9616 165.105 95.166C165.138 94.7219 165.275 94.2918 165.505 93.9102C165.734 93.5286 166.05 93.2062 166.427 92.9689L188.637 80.1169C189.371 79.6763 189.965 79.9762 189.965 80.784Z" fill="#535353"/>
<path d="M189.965 86.5062C189.932 86.9521 189.795 87.384 189.565 87.7668C189.334 88.1497 189.016 88.4726 188.637 88.7094L166.427 101.561C165.699 101.984 165.105 101.684 165.105 100.888C165.138 100.444 165.275 100.014 165.505 99.6323C165.734 99.2508 166.05 98.9284 166.427 98.6911L188.637 85.8391C189.371 85.4169 189.965 85.7167 189.965 86.5062Z" fill="#535353"/>
<path d="M189.965 92.2468C189.932 92.6926 189.795 93.1245 189.565 93.5074C189.334 93.8902 189.016 94.2132 188.637 94.45L166.427 107.271C165.699 107.694 165.105 107.394 165.105 106.598C165.138 106.154 165.275 105.724 165.505 105.342C165.734 104.961 166.05 104.638 166.427 104.401L188.637 91.5491C189.371 91.188 189.965 91.4573 189.965 92.2468Z" fill="#535353"/>
<path d="M165.105 112.345C165.105 113.134 165.717 113.434 166.427 113.012L168.753 111.672C169.13 111.434 169.446 111.112 169.675 110.73C169.905 110.349 170.042 109.919 170.075 109.475C170.075 108.679 169.463 108.379 168.753 108.801L166.427 110.142C166.05 110.379 165.733 110.703 165.504 111.086C165.274 111.468 165.137 111.9 165.105 112.345Z" fill="#535353"/>
<path d="M173.441 107.541C173.441 108.33 174.053 108.63 174.769 108.208L188.637 100.191C189.016 99.9537 189.334 99.6308 189.565 99.2479C189.795 98.8651 189.932 98.4332 189.965 97.9873C189.965 97.1978 189.353 96.898 188.637 97.3202L174.769 105.337C174.39 105.574 174.072 105.897 173.841 106.28C173.61 106.663 173.473 107.095 173.441 107.541Z" fill="#535353"/>
<path d="M165.105 118.116C165.105 118.905 165.717 119.205 166.427 118.783L168.753 117.443C169.13 117.206 169.446 116.883 169.675 116.502C169.905 116.12 170.042 115.69 170.075 115.246C170.075 114.45 169.463 114.15 168.753 114.573L166.427 115.913C166.05 116.151 165.733 116.474 165.504 116.857C165.274 117.239 165.137 117.671 165.105 118.116Z" fill="#535353"/>
<path d="M173.441 113.281C173.441 114.071 174.053 114.371 174.769 113.948L188.637 105.931C189.016 105.694 189.334 105.371 189.565 104.989C189.795 104.606 189.932 104.174 189.965 103.728C189.965 102.938 189.353 102.639 188.637 103.061L174.769 111.078C174.39 111.315 174.072 111.638 173.841 112.021C173.61 112.403 173.473 112.835 173.441 113.281Z" fill="#535353"/>
<path d="M165.105 123.826C165.105 124.615 165.717 124.915 166.427 124.493L168.753 123.153C169.13 122.916 169.446 122.593 169.675 122.212C169.905 121.83 170.042 121.4 170.075 120.956C170.075 120.16 169.463 119.86 168.753 120.282L166.427 121.623C166.05 121.861 165.733 122.184 165.504 122.567C165.274 122.949 165.137 123.381 165.105 123.826Z" fill="#535353"/>
<path d="M173.441 119.022C173.441 119.811 174.053 120.111 174.769 119.689L188.637 111.672C189.015 111.435 189.333 111.113 189.563 110.732C189.794 110.35 189.932 109.919 189.965 109.475C189.965 108.679 189.353 108.379 188.637 108.801L174.769 116.819C174.39 117.055 174.072 117.378 173.841 117.761C173.61 118.144 173.473 118.576 173.441 119.022Z" fill="#535353"/>
<path d="M224.322 62.883L221.874 61.4448C221.694 61.361 221.494 61.3269 221.296 61.3463C221.098 61.3657 220.909 61.4377 220.748 61.555L189.108 79.8477C188.646 80.1503 188.261 80.5571 187.985 81.0354C187.708 81.5137 187.548 82.0502 187.517 82.6017V147.78C187.496 147.977 187.528 148.176 187.61 148.357C187.691 148.538 187.82 148.693 187.982 148.808L190.461 150.24H190.491C190.668 150.311 190.86 150.337 191.049 150.315C191.239 150.292 191.419 150.222 191.574 150.111L199.928 145.289V150.313C199.928 151.201 200.069 151.715 200.295 151.856L202.743 153.282H202.774C203.055 153.435 203.466 153.043 203.918 152.058L209.849 139.512L223.172 131.776C223.634 131.473 224.019 131.066 224.295 130.588C224.571 130.11 224.732 129.573 224.763 129.022V63.9051C224.785 63.7111 224.756 63.5147 224.679 63.3355C224.601 63.1562 224.479 63.0002 224.322 62.883Z" fill="#A4C6F2"/>
<path opacity="0.4" d="M224.255 62.8463C224.079 62.7834 223.891 62.7634 223.706 62.7879C223.52 62.8123 223.344 62.8806 223.19 62.987L191.556 81.292C191.097 81.5778 190.717 81.9759 190.454 82.4486L187.97 81.0104C188.233 80.5377 188.612 80.1396 189.071 79.8538L220.699 61.5488C220.911 61.4171 221.154 61.3433 221.403 61.3346C221.549 61.3326 221.692 61.3685 221.819 61.4387L224.255 62.8463Z" fill="white"/>
<path opacity="0.2" d="M200.289 151.886C200.063 151.745 199.922 151.231 199.922 150.344V145.326L202.407 143.887V151.776C202.407 152.621 202.535 153.135 202.743 153.306L200.289 151.886Z" fill="black"/>
<path opacity="0.1" d="M190.454 150.252L187.976 148.82C187.816 148.705 187.69 148.55 187.609 148.371C187.529 148.191 187.497 147.994 187.517 147.798V82.62C187.537 82.0546 187.703 81.5042 188 81.0227L190.485 82.4609C190.188 82.9424 190.021 83.4928 190.001 84.0582V149.236C189.981 149.43 190.012 149.627 190.091 149.805C190.171 149.984 190.296 150.138 190.454 150.252Z" fill="black"/>
<path d="M196.275 84.3091L218.484 71.4571C219.212 71.0348 219.806 71.3776 219.806 72.2221V86.3777C219.781 86.838 219.649 87.286 219.419 87.6857C219.189 88.0854 218.869 88.4255 218.484 88.6788L196.275 101.531C195.54 101.953 194.946 101.61 194.946 100.766V86.6041C194.971 86.144 195.105 85.6963 195.336 85.2975C195.566 84.8987 195.888 84.56 196.275 84.3091Z" fill="#535353"/>
<path d="M219.806 92.21C219.774 92.6552 219.637 93.0866 219.408 93.4693C219.178 93.852 218.862 94.1754 218.484 94.4132L196.275 107.235C195.54 107.657 194.946 107.357 194.946 106.561C194.98 106.117 195.117 105.686 195.348 105.304C195.579 104.923 195.896 104.601 196.275 104.364L218.484 91.543C219.212 91.1207 219.806 91.4206 219.806 92.21Z" fill="#535353"/>
<path d="M219.806 97.9506C219.774 98.3958 219.637 98.8272 219.408 99.2099C219.178 99.5926 218.862 99.916 218.484 100.154L196.275 112.975C195.54 113.397 194.946 113.098 194.946 112.302C194.98 111.857 195.117 111.427 195.348 111.045C195.579 110.663 195.896 110.341 196.275 110.105L218.484 97.308C219.212 96.8612 219.806 97.1611 219.806 97.9506Z" fill="#535353"/>
<path d="M219.806 103.691C219.771 104.133 219.633 104.561 219.404 104.94C219.174 105.32 218.859 105.64 218.484 105.876L196.275 118.728C195.54 119.15 194.946 118.85 194.946 118.055C194.98 117.61 195.117 117.179 195.348 116.798C195.579 116.416 195.896 116.094 196.275 115.858L218.484 103.024C219.212 102.602 219.806 102.902 219.806 103.691Z" fill="#535353"/>
<path d="M219.806 109.432C219.774 109.877 219.637 110.308 219.408 110.691C219.178 111.074 218.862 111.397 218.484 111.635L196.275 124.487C195.54 124.909 194.946 124.609 194.946 123.814C194.98 123.369 195.117 122.938 195.348 122.557C195.579 122.175 195.896 121.853 196.275 121.617L218.484 108.765C219.212 108.324 219.806 108.642 219.806 109.432Z" fill="#535353"/>
<path d="M194.946 129.53C194.946 130.319 195.558 130.619 196.275 130.197L198.594 128.857C198.972 128.62 199.29 128.298 199.52 127.917C199.751 127.535 199.889 127.104 199.922 126.66C199.922 125.864 199.31 125.564 198.594 125.986L196.275 127.327C195.895 127.563 195.577 127.886 195.347 128.269C195.116 128.652 194.979 129.084 194.946 129.53Z" fill="#535353"/>
<path d="M203.288 124.726C203.288 125.515 203.9 125.815 204.616 125.393L218.484 117.375C218.862 117.138 219.178 116.814 219.408 116.432C219.637 116.049 219.774 115.617 219.806 115.172C219.806 114.383 219.194 114.083 218.484 114.505L204.61 122.522C204.232 122.76 203.916 123.084 203.686 123.466C203.457 123.849 203.32 124.28 203.288 124.726Z" fill="#535353"/>
<path d="M194.946 135.252C194.946 136.041 195.558 136.341 196.275 135.919L198.594 134.579C198.972 134.343 199.29 134.021 199.52 133.639C199.751 133.257 199.889 132.827 199.922 132.382C199.922 131.586 199.31 131.286 198.594 131.709L196.275 133.049C195.895 133.286 195.577 133.609 195.347 133.991C195.116 134.374 194.979 134.806 194.946 135.252Z" fill="#535353"/>
<path d="M203.288 130.466C203.288 131.256 203.9 131.556 204.616 131.133L218.484 123.116C218.862 122.878 219.178 122.555 219.408 122.172C219.637 121.789 219.774 121.358 219.806 120.913C219.806 120.123 219.194 119.823 218.484 120.246L204.61 128.263C204.232 128.501 203.916 128.824 203.686 129.207C203.457 129.59 203.32 130.021 203.288 130.466Z" fill="#535353"/>
<path d="M194.946 141.011C194.946 141.8 195.558 142.1 196.275 141.678L198.594 140.338C198.972 140.102 199.29 139.78 199.52 139.398C199.751 139.016 199.889 138.585 199.922 138.141C199.922 137.345 199.31 137.045 198.594 137.467L196.275 138.808C195.895 139.045 195.577 139.367 195.347 139.75C195.116 140.133 194.979 140.565 194.946 141.011Z" fill="#535353"/>
<path d="M203.288 136.207C203.288 136.996 203.9 137.296 204.616 136.874L218.484 128.857C218.861 128.619 219.177 128.297 219.406 127.915C219.636 127.534 219.773 127.104 219.806 126.66C219.806 125.864 219.194 125.564 218.484 125.986L204.61 134.028C204.235 134.263 203.921 134.583 203.691 134.961C203.462 135.339 203.324 135.766 203.288 136.207Z" fill="#535353"/>
<path d="M256.661 37.6198L253.368 35.7348H253.337C251.887 34.9208 249.898 35.0432 247.695 36.3101C243.258 38.8744 239.665 45.1045 239.665 50.227C239.665 52.779 240.559 54.5783 242.009 55.4167L244.984 57.1181L245.693 55.8941C246.504 55.7164 247.282 55.415 248.001 55.0006C252.432 52.4424 256.03 46.2122 256.03 41.0898C256.028 40.3989 255.944 39.7107 255.779 39.0396L256.661 37.6198Z" fill="#A4C6F2"/>
<path d="M239.684 50.184C239.684 52.7422 240.577 54.5414 242.028 55.3799L245.002 57.0812L245.712 55.894C246.522 55.7112 247.299 55.4079 248.019 54.9943C250.555 53.3984 252.614 51.1491 253.98 48.4826L242.352 41.7506C240.719 44.2698 239.797 47.1837 239.684 50.184Z" fill="#263238"/>
<path d="M256.667 37.6196L253.399 35.7347H253.368C251.918 34.9146 249.929 35.037 247.725 36.31C245.52 37.6673 243.677 39.5382 242.352 41.7629L253.98 48.4949C255.245 46.2476 255.951 43.7285 256.036 41.1509C256.034 40.46 255.95 39.7718 255.785 39.1007L256.667 37.6196Z" fill="#535353"/>
<path d="M250.816 38.0786C246.385 40.6368 242.786 46.867 242.786 52.02C242.786 57.173 246.385 59.2171 250.816 56.6528C255.247 54.0886 258.876 47.8339 258.876 42.7115C258.876 37.589 255.253 35.496 250.816 38.0786Z" fill="#37474F"/>
<path d="M251.403 42.3198C251.641 42.2369 251.897 42.218 252.144 42.2647C252.346 42.3115 252.532 42.4107 252.683 42.5524C252.828 42.6945 252.939 42.8683 253.007 43.0603C253.084 43.2558 253.13 43.4624 253.142 43.6723C253.146 43.7745 253.122 43.8759 253.074 43.9661C253.037 44.0465 252.978 44.1146 252.903 44.1619L252.291 44.5108C252.193 44.572 252.12 44.5842 252.071 44.5536C252.011 44.5152 251.964 44.4598 251.936 44.3945C251.894 44.3155 251.836 44.2456 251.767 44.1889C251.698 44.1322 251.618 44.0897 251.532 44.064C251.395 44.0443 251.256 44.0526 251.122 44.0883C250.988 44.1241 250.863 44.1866 250.755 44.2721C250.599 44.3595 250.455 44.4665 250.326 44.5903C250.192 44.7143 250.073 44.854 249.971 45.0065C249.87 45.1538 249.79 45.3145 249.733 45.4839C249.677 45.6454 249.648 45.8149 249.647 45.9857C249.634 46.1411 249.668 46.2967 249.745 46.4325C249.781 46.4798 249.827 46.5182 249.88 46.5448C249.933 46.5713 249.992 46.5852 250.051 46.5855C250.234 46.5936 250.418 46.5751 250.596 46.5304L251.403 46.3407C251.689 46.2652 251.984 46.2322 252.279 46.2427C252.501 46.2467 252.717 46.3241 252.891 46.463C253.056 46.6125 253.171 46.809 253.221 47.0261C253.29 47.325 253.323 47.6312 253.319 47.938C253.315 48.2828 253.269 48.6258 253.184 48.96C253.095 49.3154 252.968 49.6601 252.805 49.9882C252.636 50.3258 252.431 50.6439 252.193 50.9368C251.957 51.2318 251.688 51.4987 251.391 51.7324V52.632C251.389 52.7323 251.364 52.8307 251.318 52.9197C251.287 53.0017 251.231 53.0722 251.159 53.1216L250.455 53.5255C250.432 53.5462 250.403 53.5576 250.372 53.5576C250.342 53.5576 250.312 53.5462 250.29 53.5255C250.265 53.4971 250.247 53.464 250.235 53.4283C250.223 53.3926 250.219 53.3549 250.222 53.3175V52.4117C249.989 52.4937 249.742 52.5311 249.494 52.5218C249.276 52.5122 249.065 52.4446 248.882 52.326C248.704 52.1975 248.562 52.0245 248.472 51.8242C248.36 51.563 248.302 51.2821 248.301 50.998C248.295 50.8957 248.318 50.7938 248.368 50.7042C248.403 50.6227 248.46 50.5527 248.533 50.5022L249.145 50.1534C249.243 50.0983 249.317 50.08 249.372 50.1045C249.432 50.1431 249.478 50.2015 249.5 50.2697C249.543 50.3606 249.592 50.4486 249.647 50.5329C249.705 50.6126 249.786 50.6725 249.88 50.7042C250 50.7324 250.126 50.7324 250.247 50.7042C250.442 50.6589 250.629 50.5802 250.798 50.4717C250.974 50.3694 251.142 50.2527 251.299 50.1228C251.455 49.9914 251.597 49.8437 251.722 49.6822C251.842 49.5222 251.94 49.3473 252.015 49.162C252.09 48.9795 252.128 48.7839 252.126 48.5867C252.134 48.5136 252.128 48.4395 252.107 48.369C252.086 48.2985 252.051 48.233 252.003 48.1767C251.952 48.1359 251.893 48.1057 251.83 48.0879C251.767 48.07 251.701 48.0648 251.636 48.0726C251.429 48.0839 251.224 48.1168 251.024 48.1705C250.779 48.2317 250.504 48.2868 250.186 48.348C249.937 48.4066 249.681 48.4252 249.427 48.4031C249.229 48.3897 249.041 48.3099 248.894 48.1767C248.741 48.0178 248.631 47.8216 248.576 47.6075C248.5 47.2889 248.465 46.9619 248.472 46.6344C248.472 46.2853 248.517 45.9375 248.607 45.6001C248.692 45.2568 248.811 44.9226 248.962 44.6026C249.111 44.2833 249.296 43.9816 249.512 43.7029C249.719 43.4313 249.953 43.1811 250.21 42.9563V42.0567C250.213 41.9572 250.236 41.8593 250.277 41.769C250.312 41.6875 250.37 41.6175 250.443 41.5671L251.146 41.1631C251.168 41.1429 251.196 41.1317 251.226 41.1317C251.256 41.1317 251.284 41.1429 251.306 41.1631C251.332 41.1904 251.352 41.2232 251.365 41.2591C251.378 41.295 251.383 41.3333 251.379 41.3712L251.403 42.3198Z" fill="#FAFAFA"/>
<path d="M256.661 97.5039L253.368 95.6189H253.337C251.887 94.7988 249.898 94.9212 247.695 96.1942C243.258 98.7523 239.665 104.982 239.665 110.105C239.665 112.663 240.559 114.456 242.009 115.301L244.984 116.996L245.693 115.809C246.503 115.628 247.281 115.327 248.001 114.915C252.432 112.351 256.03 106.121 256.03 100.998C256.027 100.307 255.943 99.6193 255.779 98.9482L256.661 97.5039Z" fill="#A4C6F2"/>
<path d="M239.684 110.093C239.684 112.651 240.577 114.444 242.028 115.289L245.002 116.984L245.712 115.797C246.522 115.614 247.299 115.31 248.019 114.897C250.557 113.298 252.616 111.044 253.98 108.373L242.352 101.641C240.717 104.166 239.795 107.086 239.684 110.093Z" fill="#263238"/>
<path d="M256.667 97.5039L253.399 95.6189H253.368C251.918 94.7988 249.929 94.9212 247.725 96.1942C245.523 97.5565 243.684 99.4316 242.364 101.659L253.992 108.391C255.269 106.124 255.976 103.581 256.055 100.98C256.052 100.289 255.968 99.601 255.804 98.9298L256.667 97.5039Z" fill="#535353"/>
<path d="M250.816 97.9629C246.385 100.521 242.786 106.751 242.786 111.874C242.786 116.996 246.385 119.071 250.816 116.513C255.247 113.954 258.876 107.712 258.876 102.602C258.876 97.4916 255.253 95.4047 250.816 97.9629Z" fill="#37474F"/>
<path d="M254.904 109.065L246.734 113.783C246.636 113.838 246.563 113.783 246.563 113.618V106.372C246.561 106.301 246.575 106.232 246.605 106.168C246.635 106.104 246.679 106.048 246.734 106.005L254.904 101.286C254.996 101.231 255.075 101.286 255.075 101.451V108.703C255.076 108.773 255.061 108.841 255.032 108.904C255.002 108.967 254.958 109.021 254.904 109.065Z" fill="#FAFAFA"/>
<path d="M252.425 103.195C252.334 103.251 252.254 103.195 252.254 103.03V101.929L249.384 103.587V104.689C249.385 104.76 249.37 104.83 249.339 104.893C249.308 104.957 249.263 105.013 249.206 105.056C249.115 105.111 249.035 105.056 249.035 104.891V103.52C249.034 103.451 249.049 103.382 249.079 103.319C249.108 103.257 249.152 103.202 249.206 103.159L252.425 101.323C252.523 101.268 252.597 101.323 252.597 101.488V102.816C252.602 102.888 252.589 102.961 252.559 103.027C252.529 103.093 252.483 103.151 252.425 103.195Z" fill="#FAFAFA"/>
<path d="M252.425 101.831L249.206 103.667C249.115 103.722 249.035 103.667 249.035 103.501V102.889C249.035 102.819 249.05 102.75 249.079 102.686C249.109 102.623 249.152 102.567 249.206 102.522L252.425 100.686C252.523 100.631 252.597 100.686 252.597 100.851V101.463C252.599 101.534 252.584 101.604 252.555 101.667C252.525 101.731 252.481 101.787 252.425 101.831Z" fill="#FAFAFA"/>
<path d="M251.985 106.353L249.647 107.7C249.58 107.743 249.525 107.7 249.525 107.577V107.137C249.524 107.086 249.534 107.037 249.555 106.991C249.577 106.945 249.608 106.905 249.647 106.874L251.985 105.527C252.058 105.484 252.113 105.527 252.113 105.643V106.084C252.115 106.136 252.104 106.187 252.081 106.234C252.059 106.281 252.026 106.322 251.985 106.353Z" fill="#37474F"/>
<path d="M256.661 67.5648L253.368 65.6737H253.337C251.887 64.8536 249.898 64.976 247.695 66.249C243.258 68.8133 239.665 75.0373 239.665 80.1598C239.665 82.7179 240.559 84.5172 242.009 85.3556L244.984 87.0509L245.693 85.8636C246.504 85.6859 247.282 85.3845 248.001 84.9701C252.432 82.4058 256.03 76.1818 256.03 71.0593C256.028 70.3664 255.944 69.6762 255.779 69.003L256.661 67.5648Z" fill="#A4C6F2"/>
<path d="M239.684 80.172C239.684 82.7302 240.577 84.5294 242.028 85.3679L245.002 87.0631L245.712 85.8758C246.522 85.6982 247.3 85.3968 248.019 84.9823C250.56 83.3746 252.62 81.1099 253.98 78.4278L242.352 71.6958C240.713 74.2281 239.791 77.1574 239.684 80.172Z" fill="#263238"/>
<path d="M256.667 67.5648L253.399 65.6737H253.368C251.918 64.8598 249.929 64.9761 247.725 66.249C245.523 67.6113 243.684 69.4865 242.364 71.7142L253.992 78.4462C255.261 76.1892 255.966 73.6594 256.049 71.0716C256.046 70.3786 255.962 69.6884 255.798 69.0153L256.667 67.5648Z" fill="#535353"/>
<path d="M250.816 68.0177C246.385 70.582 242.786 76.806 242.786 81.9285C242.786 87.0509 246.385 89.1317 250.816 86.5674C255.247 84.0032 258.876 77.7791 258.876 72.6567C258.876 67.5342 255.253 65.484 250.816 68.0177Z" fill="#37474F"/>
<path d="M247.86 76.1695C247.86 75.0067 248.472 73.7215 249.231 73.2686C249.99 72.8158 250.602 73.4216 250.602 74.5906C250.602 75.7595 249.99 77.0386 249.231 77.4914C248.472 77.9443 247.86 77.3384 247.86 76.1695Z" fill="white"/>
<path d="M251.679 82.0447L246.636 84.9579L246.905 81.6041C247.022 80.1781 247.774 78.7155 248.668 78.2014L249.641 77.6383C250.534 77.1243 251.287 77.7118 251.403 79.0092L251.679 82.0447Z" fill="white"/>
<path d="M251.189 72.675C251.189 71.5122 251.801 70.227 252.56 69.7741C253.319 69.3213 253.931 69.9271 253.931 71.0961C253.931 72.265 253.319 73.5441 252.56 73.9969C251.801 74.4498 251.189 73.8439 251.189 72.675Z" fill="white"/>
<path d="M254.996 78.5502L251.905 80.3372L251.765 78.7338C251.66 77.6077 251.153 76.8978 250.479 76.8978C250.716 76.0204 251.251 75.2524 251.991 74.7252L252.964 74.1683C253.858 73.6481 254.61 74.2356 254.727 75.533L254.996 78.5502Z" fill="white"/>
<path d="M172.89 192.67C172.89 188.875 170.381 185.081 165.362 182.186C155.332 176.391 139.046 176.391 129.034 182.186C124.016 185.081 121.506 188.875 121.506 192.67V199.665C121.506 203.459 124.016 207.254 129.034 210.155C139.065 215.944 155.35 215.944 165.362 210.155C170.381 207.254 172.89 203.459 172.89 199.665V192.67ZM130.276 184.334C134.756 181.746 140.766 180.326 147.198 180.326C153.63 180.326 159.64 181.746 164.12 184.334C168.171 186.672 170.405 189.634 170.405 192.67C170.405 195.705 168.171 198.667 164.12 201.005C159.64 203.594 153.612 205.02 147.198 205.02C140.784 205.02 134.756 203.594 130.276 201.005C126.225 198.667 123.991 195.705 123.991 192.67C123.991 189.634 126.225 186.66 130.276 184.334Z" fill="#A4C6F2"/>
<path opacity="0.3" d="M129.028 203.184C139.065 208.974 155.344 208.974 165.362 203.184C175.381 197.394 175.393 188 165.362 182.211C155.332 176.421 139.046 176.415 129.028 182.211C119.01 188.006 118.997 197.37 129.028 203.184ZM123.991 192.694C123.991 189.634 126.219 186.697 130.27 184.359C134.75 181.77 140.766 180.35 147.198 180.35C153.63 180.35 159.64 181.77 164.12 184.359C168.171 186.697 170.399 189.659 170.399 192.694C170.399 195.73 168.171 198.692 164.12 201.03C159.64 203.594 153.612 205.02 147.198 205.02C140.784 205.02 134.75 203.594 130.27 201.005C126.219 198.667 123.991 195.705 123.991 192.67V192.694Z" fill="white"/>
<path d="M123.991 192.67C124.006 193.906 124.353 195.115 124.995 196.17C126.011 194.408 127.804 192.749 130.276 191.33C134.75 188.741 140.766 187.315 147.198 187.315C153.63 187.315 159.64 188.741 164.12 191.33C166.27 192.462 168.091 194.129 169.408 196.17C170.046 195.113 170.39 193.905 170.405 192.67C170.405 189.61 168.171 186.672 164.12 184.334C159.64 181.752 153.63 180.326 147.198 180.326C140.766 180.326 134.75 181.752 130.276 184.334C126.219 186.66 123.991 189.634 123.991 192.67Z" fill="#A4C6F2"/>
<path opacity="0.1" d="M123.991 192.67C124.006 193.906 124.353 195.115 124.995 196.17C126.011 194.408 127.804 192.749 130.276 191.33C134.75 188.741 140.766 187.315 147.198 187.315C153.63 187.315 159.64 188.741 164.12 191.33C166.27 192.462 168.091 194.129 169.408 196.17C170.046 195.113 170.39 193.905 170.405 192.67C170.405 189.61 168.171 186.672 164.12 184.334C159.64 181.752 153.63 180.326 147.198 180.326C140.766 180.326 134.75 181.752 130.276 184.334C126.219 186.66 123.991 189.634 123.991 192.67Z" fill="black"/>
<path opacity="0.4" d="M130.27 187.498C134.75 184.916 140.766 183.49 147.198 183.49C153.63 183.49 159.64 184.916 164.12 187.498C167.462 189.432 169.561 191.782 170.197 194.23C169.585 196.678 167.462 199.053 164.12 200.962C159.64 203.594 153.612 205.02 147.198 205.02C140.784 205.02 134.75 203.594 130.27 201.005C126.929 199.077 124.83 196.721 124.199 194.273C124.848 191.782 126.929 189.432 130.27 187.498Z" fill="white"/>
<path opacity="0.1" d="M141.146 207.089V214.078C136.896 213.551 132.785 212.22 129.034 210.155C124.016 207.254 121.506 203.459 121.506 199.665V192.67C121.508 191.897 121.611 191.127 121.812 190.381C120.588 194.897 123 199.677 129.028 203.16C132.781 205.227 136.893 206.561 141.146 207.089Z" fill="black"/>
<path d="M129.793 207.609C129.762 206.985 129.583 206.377 129.273 205.834C128.962 205.292 128.528 204.831 128.006 204.488C127.825 204.355 127.613 204.273 127.391 204.249C127.168 204.226 126.943 204.261 126.739 204.353L118.116 209.304C117.931 209.43 117.784 209.605 117.691 209.809C117.598 210.013 117.563 210.238 117.59 210.461C117.616 211.083 117.789 211.689 118.093 212.233C118.397 212.776 118.824 213.24 119.34 213.588C119.521 213.721 119.735 213.803 119.959 213.826C120.183 213.848 120.409 213.811 120.613 213.716L129.261 208.784C129.446 208.653 129.593 208.475 129.687 208.269C129.78 208.062 129.817 207.834 129.793 207.609Z" fill="#37474F"/>
<path d="M129.261 208.778C129.445 208.648 129.591 208.471 129.685 208.265C129.779 208.06 129.816 207.833 129.793 207.609C129.785 207.144 129.683 206.686 129.493 206.262L118.336 212.639C118.604 213.02 118.945 213.342 119.34 213.588C119.521 213.721 119.735 213.803 119.959 213.826C120.183 213.848 120.409 213.811 120.613 213.716L129.261 208.784V208.778Z" fill="#263238"/>
<path d="M120.797 213.588C120.757 212.774 120.525 211.982 120.121 211.274C119.717 210.567 119.152 209.965 118.471 209.518C118.239 209.349 117.966 209.244 117.681 209.213C117.395 209.182 117.106 209.226 116.843 209.341L88.1586 224.641L92.4426 232.205L120.129 215.069C120.36 214.902 120.543 214.677 120.66 214.417C120.777 214.157 120.824 213.872 120.797 213.588Z" fill="#A4C6F2"/>
<path opacity="0.1" d="M92.412 232.199L120.099 215.063C120.339 214.896 120.53 214.668 120.651 214.402C120.773 214.136 120.821 213.842 120.79 213.551C120.756 212.68 120.487 211.835 120.013 211.103L90.2088 228.276L92.412 232.199Z" fill="black"/>
<path d="M90.2517 231.948C89.3577 231.362 88.6147 230.573 88.083 229.646C87.5512 228.719 87.2459 227.679 87.1917 226.611C87.1917 224.653 88.5748 223.863 90.2517 224.849C91.1455 225.434 91.8885 226.221 92.4203 227.147C92.952 228.074 93.2575 229.113 93.3117 230.179C93.3239 232.168 91.9469 232.958 90.2517 231.948Z" fill="#A4C6F2"/>
<g opacity="0.2">
<path opacity="0.2" d="M90.2517 231.948C89.3577 231.362 88.6147 230.573 88.083 229.646C87.5512 228.719 87.2459 227.679 87.1917 226.611C87.1917 224.653 88.5748 223.863 90.2517 224.849C91.1455 225.434 91.8885 226.221 92.4203 227.147C92.952 228.074 93.2575 229.113 93.3117 230.179C93.3239 232.168 91.9469 232.958 90.2517 231.948Z" fill="black"/>
</g>
<path d="M259.323 164.359C259.635 152.731 258.711 149.934 255.608 147.798L254.384 154.53C254.384 154.53 255.798 162.486 255.645 165.124C255.516 167.449 255.29 170.362 254.739 172.241C254.638 172.572 254.421 172.855 254.127 173.037C253.485 173.494 252.913 174.04 252.426 174.659C251.96 175.148 251.563 175.271 251.624 175.424C251.713 175.594 251.864 175.725 252.045 175.79C252.227 175.855 252.426 175.848 252.603 175.773C253 175.615 253.376 175.409 253.723 175.161C253.449 175.874 253.062 176.539 252.579 177.131C251.471 178.484 251.422 179.316 253.656 179.34C255.057 179.34 256.177 178.49 257.23 175.405C257.637 174.274 257.966 173.117 258.215 171.941C258.739 169.439 259.109 166.907 259.323 164.359Z" fill="#D89648"/>
<path d="M253.001 146.917C253.953 146.747 254.934 146.89 255.797 147.326C256.661 147.762 257.359 148.467 257.787 149.334C259.084 151.654 259.402 155.65 259.549 159.622C259.549 159.622 256.973 161.782 253.876 160.723L253.001 146.917Z" fill="#A4C6F2"/>
<path d="M257.352 210.932C257.585 211.024 257.646 211.47 257.683 212.358C257.683 213.031 257.848 214.194 257.071 214.445C256.293 214.696 255.124 214.555 254.623 213.925C254.011 213.129 253.564 212.437 252.664 211.477C251.881 210.638 251.036 209.855 250.724 208.68C250.436 207.615 250.675 207.156 251.397 206.844C252.395 206.421 253.962 207.811 254.745 208.025C255.406 208.209 257.113 210.846 257.352 210.932Z" fill="#263238"/>
<path d="M257.352 210.112V211.201C256.942 211.464 256.469 211.61 255.982 211.623C255.496 211.636 255.015 211.515 254.592 211.275C254.543 211.171 254.304 209.714 254.304 209.714L257.352 210.112Z" fill="#D89648"/>
<path d="M248.503 217.26C248.696 217.844 248.857 218.439 248.986 219.041C249.121 219.702 249.317 220.803 249.084 221.299C248.851 221.795 247.952 222.119 246.55 222.107C245.388 222.249 244.269 222.64 243.27 223.251C241.967 223.805 240.549 224.029 239.139 223.906C237.915 223.766 236.605 223.043 236.403 222.529C236.201 222.015 236.471 221.477 239.402 220.228C239.402 220.228 243.478 218.9 244.91 217.333L248.503 217.26Z" fill="#263238"/>
<path d="M248.503 216.036V217.309C248.503 217.774 247.964 218.466 246.544 218.411C245.553 218.374 244.855 218.111 244.898 217.291V216.109L248.503 216.036Z" fill="#D89648"/>
<path d="M258.062 195.62C257.819 193.685 257.387 191.778 256.771 189.928C256.771 189.928 257.162 185.032 257.346 180.369C257.548 175.344 257.346 169.022 257.432 167.768C257.432 167.768 241.214 164.487 240.908 170.301C240.602 176.115 241.52 190.901 241.74 193.453C241.96 196.005 242.352 198.257 242.897 202.394C243.441 206.532 244.88 216.122 244.88 216.122C245.44 216.407 246.062 216.55 246.691 216.537C247.32 216.524 247.936 216.356 248.484 216.048C248.484 216.048 249.629 204.42 249.506 201.489C249.414 199.306 249.04 197.144 248.392 195.057C248.392 195.057 248.698 190.265 248.968 186.097C249.237 181.929 249.531 179.928 249.58 178.141L249.929 177.97C249.929 177.97 250.283 185.161 250.479 187.713C250.675 190.265 251.091 192.713 251.813 197.45C252.456 201.562 254.359 210.265 254.359 210.265C256.195 211.268 257.321 210.136 257.321 210.136C257.321 210.136 258.558 199.188 258.062 195.62Z" fill="#37474F"/>
<path d="M249.61 178.092C249.61 178.092 253.545 176.152 255.516 174.42C255.516 174.42 253.68 176.997 251.287 178.135C251.287 178.135 250.43 187.07 250.436 186.893L249.941 178.092H249.61Z" fill="#263238"/>
<path d="M246.11 145.075L247.071 150.356L251.838 150.007L250.84 144.022L246.11 145.075Z" fill="#D89648"/>
<path d="M256.881 149.622C256.404 148.184 254.586 146.623 252.762 146.96C250.062 147.423 247.4 148.09 244.8 148.955C243.129 149.567 241.611 150.993 241.471 156.482C241.471 156.482 240.914 169.285 240.902 171.782C244.385 173.149 248.179 173.524 251.862 172.866C256.881 171.77 257.487 169.689 257.487 169.689C257.487 169.689 257.548 160.509 257.401 156.507C257.248 153.11 257.205 150.607 256.881 149.622Z" fill="#F5F5F5"/>
<path d="M242.425 138.649C242.425 138.649 241.201 140.576 241.367 140.76C241.532 140.944 242.438 141.09 242.438 141.09L242.425 138.649Z" fill="#D89648"/>
<path d="M245.785 133.312C243.264 133.924 242.56 135.038 242.407 139.065C242.254 143.281 242.713 144.573 243.282 145.148C243.662 145.521 245.73 145.546 246.777 145.234C248.08 144.842 251.012 143.728 252.352 141.562C253.925 139.034 254.28 135.65 252.499 134.303C250.002 132.431 246.813 133.073 245.785 133.312Z" fill="#D89648"/>
<path d="M242.438 134.365C243.017 135.209 243.836 135.861 244.788 136.237C245.271 136.788 245.002 138.936 245.853 139.297C245.853 139.297 246.22 137.731 247.536 137.896C248.851 138.061 249.072 139.732 248.264 140.784C247.456 141.837 246.673 141.452 246.673 141.452C246.673 141.452 246.765 143.673 247.78 144.909C248.836 145.115 249.925 145.064 250.957 144.762C252.217 144.463 253.974 142.835 254.69 141.139C256.208 137.559 256.244 134.365 253.956 133.459C253.674 131.825 252.37 131.121 250.896 130.821C247.719 130.166 245.675 132.149 243.233 131.972C241.832 131.855 241.569 132.877 242.438 134.365Z" fill="#263238"/>
<path d="M254.011 133.985L255.504 133.055C255.447 132.949 255.368 132.856 255.274 132.782C255.179 132.708 255.071 132.654 254.954 132.623C254.838 132.592 254.717 132.585 254.598 132.603C254.479 132.621 254.365 132.663 254.263 132.727C254.161 132.79 254.073 132.874 254.005 132.973C253.936 133.072 253.889 133.184 253.865 133.301C253.841 133.419 253.842 133.541 253.867 133.658C253.892 133.776 253.941 133.887 254.011 133.985Z" fill="#263238"/>
<path d="M224.604 158.465C225.387 158.814 234.629 165.644 236.073 164.848C237.517 164.053 244.904 155.411 244.904 155.411C245.528 154.446 245.861 153.321 245.861 152.171C245.861 151.021 245.528 149.896 244.904 148.93C243.46 149.242 242.177 150.066 241.293 151.25C240.069 153.122 234.696 159.818 234.696 159.818C233.374 159.157 232.052 158.484 230.742 157.804C229.659 157.241 228.57 156.684 227.511 156.078C227.212 155.944 226.933 155.771 226.679 155.564C226.152 155.05 226.244 153.796 226.256 153.116C226.252 152.8 226.266 152.483 226.299 152.168C226.348 151.776 226.422 150.827 225.718 151.127C225.587 151.193 225.473 151.29 225.387 151.409C225.276 151.552 225.191 151.714 225.136 151.886C225.002 152.296 225.045 152.749 224.928 153.159C224.914 153.222 224.882 153.279 224.837 153.324C224.807 153.35 224.772 153.37 224.734 153.382C224.696 153.393 224.656 153.397 224.616 153.392C223.6 153.361 222.633 151.935 222.168 151.176C221.999 150.816 221.732 150.511 221.397 150.295C221.102 150.206 220.787 150.218 220.5 150.329C220.212 150.44 219.97 150.643 219.812 150.907C219.372 151.568 219.191 152.367 219.304 153.153C219.395 154.22 219.866 155.219 220.632 155.968C221.802 157.023 223.146 157.868 224.604 158.465Z" fill="#D89648"/>
<path d="M245.73 148.655C244.714 148.771 243.282 148.581 241.287 150.729C239.676 152.568 238.174 154.499 236.789 156.513C237.052 157.57 237.614 158.529 238.407 159.275C239.2 160.022 240.192 160.525 241.263 160.723C241.263 160.723 244.757 157.137 245.73 155.166C246.703 153.196 246.936 149.989 245.73 148.655Z" fill="#A4C6F2"/>
</svg>
