<svg width="283" height="283" viewBox="0 0 283 283" fill="none" xmlns="http://www.w3.org/2000/svg">
<path d="M283 216.438H0V216.58H283V216.438Z" fill="#EBEBEB"/>
<path d="M48.4383 221.827H29.6924V221.968H48.4383V221.827Z" fill="#EBEBEB"/>
<path d="M127.35 221.9H96.8652V222.042H127.35V221.9Z" fill="#EBEBEB"/>
<path d="M70.7274 224.747H59.8658V224.889H70.7274V224.747Z" fill="#EBEBEB"/>
<path d="M252.436 224.679H241.552V224.821H252.436V224.679Z" fill="#EBEBEB"/>
<path d="M236.509 224.679H219.365V224.821H236.509V224.679Z" fill="#EBEBEB"/>
<path d="M209.924 223.745H185.835V223.887H209.924V223.745Z" fill="#EBEBEB"/>
<path d="M134.142 191.195H24.853C23.9969 191.193 23.1763 190.852 22.5714 190.246C21.9666 189.64 21.6268 188.819 21.6268 187.963V34.3336C21.6343 33.4823 21.9773 32.6684 22.5814 32.0686C23.1854 31.4687 24.0018 31.1315 24.853 31.13H134.142C134.999 31.13 135.821 31.4705 136.427 32.0766C137.033 32.6827 137.374 33.5047 137.374 34.3619V187.963C137.374 188.82 137.033 189.642 136.427 190.248C135.821 190.854 134.999 191.195 134.142 191.195ZM24.853 31.2432C24.0344 31.2447 23.2498 31.571 22.6715 32.1503C22.0931 32.7297 21.7683 33.5149 21.7683 34.3336V187.963C21.7683 188.782 22.0931 189.567 22.6715 190.146C23.2498 190.726 24.0344 191.052 24.853 191.053H134.142C134.961 191.052 135.746 190.726 136.326 190.146C136.905 189.567 137.231 188.782 137.232 187.963V34.3336C137.231 33.5144 136.905 32.7292 136.326 32.15C135.746 31.5708 134.961 31.2447 134.142 31.2432H24.853Z" fill="#EBEBEB"/>
<path d="M256.573 191.195H147.279C146.422 191.193 145.601 190.852 144.995 190.247C144.389 189.641 144.048 188.82 144.047 187.963V34.3336C144.056 33.4818 144.4 32.6679 145.005 32.0682C145.61 31.4685 146.427 31.1314 147.279 31.13H256.573C257.424 31.133 258.239 31.4709 258.841 32.0705C259.444 32.6702 259.787 33.4833 259.794 34.3336V187.963C259.794 188.818 259.455 189.638 258.851 190.244C258.248 190.85 257.429 191.192 256.573 191.195ZM147.279 31.2432C146.46 31.2447 145.675 31.5708 145.095 32.15C144.516 32.7292 144.19 33.5144 144.188 34.3336V187.963C144.19 188.782 144.516 189.567 145.095 190.146C145.675 190.726 146.46 191.052 147.279 191.053H256.573C257.393 191.052 258.178 190.726 258.757 190.146C259.336 189.567 259.662 188.782 259.664 187.963V34.3336C259.662 33.5144 259.336 32.7292 258.757 32.15C258.178 31.5708 257.393 31.2447 256.573 31.2432H147.279Z" fill="#EBEBEB"/>
<path d="M171.057 216.438H187.086V136.689H171.057V216.438Z" fill="#E6E6E6"/>
<path d="M174.096 216.438H171.051V207.779H177.288L174.096 216.438Z" fill="#F0F0F0"/>
<path d="M230.962 216.438H246.991V136.689H230.962V216.438Z" fill="#E6E6E6"/>
<path d="M171.057 211.124H233.622V136.689H171.057V211.124Z" fill="#F0F0F0"/>
<path d="M173.417 185.823V200.296H201.315V185.823H173.417Z" fill="#E6E6E6"/>
<path d="M203.358 185.823V200.296H231.256V185.823H203.358Z" fill="#E6E6E6"/>
<path d="M214.548 188.246H220.066C221.253 188.247 222.428 188.005 223.518 187.536C224.608 187.067 225.59 186.38 226.406 185.518H208.209C209.024 186.38 210.007 187.067 211.097 187.536C212.187 188.005 213.361 188.247 214.548 188.246Z" fill="#F0F0F0"/>
<path d="M184.324 188.246H189.842C191.029 188.247 192.203 188.005 193.293 187.536C194.383 187.067 195.366 186.38 196.181 185.518H177.984C178.8 186.38 179.782 187.067 180.872 187.536C181.963 188.005 183.137 188.247 184.324 188.246Z" fill="#F0F0F0"/>
<path d="M173.411 163.325V177.798H201.309V163.325H173.411Z" fill="#E6E6E6"/>
<path d="M203.358 163.331V177.803H231.256V163.331H203.358Z" fill="#E6E6E6"/>
<path d="M214.548 165.747H220.066C221.253 165.745 222.426 165.501 223.515 165.03C224.604 164.559 225.586 163.871 226.4 163.008H208.209C209.024 163.872 210.006 164.56 211.096 165.031C212.186 165.502 213.361 165.746 214.548 165.747Z" fill="#F0F0F0"/>
<path d="M184.324 165.747H189.842C191.028 165.748 192.202 165.507 193.292 165.039C194.382 164.571 195.365 163.885 196.181 163.025H177.984C178.801 163.885 179.784 164.571 180.874 165.039C181.964 165.507 183.137 165.748 184.324 165.747Z" fill="#F0F0F0"/>
<path d="M173.417 140.832V155.305H201.315V140.832H173.417Z" fill="#E6E6E6"/>
<path d="M203.358 140.832V155.305H231.256V140.832H203.358Z" fill="#E6E6E6"/>
<path d="M214.548 143.255H220.066C221.253 143.255 222.428 143.014 223.518 142.545C224.608 142.076 225.59 141.389 226.406 140.526H208.209C209.024 141.389 210.007 142.076 211.097 142.545C212.187 143.014 213.361 143.255 214.548 143.255Z" fill="#F0F0F0"/>
<path d="M184.324 143.255H189.842C191.029 143.255 192.203 143.014 193.293 142.545C194.383 142.076 195.366 141.389 196.181 140.526H177.984C178.8 141.389 179.782 142.076 180.872 142.545C181.963 143.014 183.137 143.255 184.324 143.255Z" fill="#F0F0F0"/>
<path d="M230.577 216.438H233.622V207.779H227.385L230.577 216.438Z" fill="#F0F0F0"/>
<path d="M233.215 81.9398L235.665 88.6413H233.215L218.176 81.9398H233.215Z" fill="#F5F5F5"/>
<path d="M235.665 81.9398V88.6413L220.632 81.9398H235.665Z" fill="#E6E6E6"/>
<path d="M174.254 81.9398L176.705 88.6413H174.254L159.221 81.9398H174.254Z" fill="#F5F5F5"/>
<path d="M176.705 81.9398V88.6413L161.672 81.9398H176.705Z" fill="#E6E6E6"/>
<path d="M246.702 77.1515H230.351V82.2511H246.702V77.1515Z" fill="#E6E6E6"/>
<path d="M149.056 82.2568L230.351 82.2568V77.1571L149.056 77.1571V82.2568Z" fill="#F5F5F5"/>
<path d="M213.84 59.43C213.84 59.43 214.005 77.1571 220.123 77.1571C226.242 77.1571 226.4 59.43 226.4 59.43H213.84Z" fill="#F0F0F0"/>
<path d="M175.901 71.3726C175.901 71.3726 176.332 77.1515 192.791 77.1515C209.25 77.1515 209.68 71.3726 209.68 71.3726H175.901Z" fill="#F0F0F0"/>
<path d="M126.988 216.438H128.08L131.21 201.015L131.776 198.309L135.172 181.499H148.292L155.384 216.438H156.482L149.254 180.86C149.23 180.738 149.165 180.628 149.069 180.55C148.973 180.471 148.852 180.428 148.728 180.429H134.736C134.613 180.429 134.493 180.471 134.398 180.55C134.303 180.629 134.238 180.738 134.216 180.86L131.216 195.621L130.65 198.321L126.988 216.438Z" fill="#F0F0F0"/>
<path d="M105.972 216.438H107.065L114.162 181.499H127.248L130.644 198.321L131.21 201.015L134.346 216.438H135.438L131.759 198.326L131.193 195.638L128.193 180.877C128.164 180.758 128.097 180.651 128.002 180.574C127.907 180.496 127.789 180.451 127.667 180.446H113.726C113.602 180.445 113.482 180.488 113.386 180.567C113.289 180.645 113.224 180.755 113.2 180.877L105.972 216.438Z" fill="#F0F0F0"/>
<path d="M150.25 176.354H112.176C111.302 176.356 110.465 176.703 109.848 177.321C109.23 177.938 108.883 178.775 108.881 179.648V179.762C108.881 180.081 109.008 180.388 109.235 180.614C109.461 180.84 109.767 180.967 110.087 180.967H152.339C152.659 180.967 152.965 180.84 153.191 180.614C153.417 180.388 153.544 180.081 153.544 179.762V179.648C153.543 178.775 153.195 177.938 152.578 177.321C151.961 176.703 151.124 176.356 150.25 176.354Z" fill="#F0F0F0"/>
<path d="M88.7771 216.438H89.8695L92.9995 201.015L93.5655 198.309L96.9615 181.499H110.047L117.162 216.438H118.26L111.032 180.86C111.008 180.738 110.943 180.628 110.847 180.55C110.751 180.471 110.63 180.428 110.506 180.429H96.5256C96.4022 180.429 96.2824 180.471 96.1872 180.55C96.092 180.629 96.0275 180.738 96.0049 180.86L93.0051 195.621L92.4391 198.321L88.7771 216.438Z" fill="#F0F0F0"/>
<path d="M67.7615 216.438H68.8596L75.9516 181.499H89.0431L92.4391 198.321L93.0051 201.015L96.1408 216.438H97.2331L93.5541 198.326L92.9881 195.638L89.994 180.86C89.9647 180.741 89.8975 180.634 89.8026 180.557C89.7077 180.479 89.5901 180.434 89.4676 180.429H75.5157C75.3916 180.428 75.271 180.471 75.1749 180.55C75.0788 180.628 75.0131 180.738 74.9894 180.86L67.7615 216.438Z" fill="#F0F0F0"/>
<path d="M112.068 176.354H73.9649C73.0917 176.356 72.2547 176.703 71.6373 177.321C71.0198 177.938 70.6723 178.775 70.6708 179.648V179.762C70.6708 180.081 70.7978 180.388 71.0239 180.614C71.25 180.84 71.5566 180.967 71.8764 180.967H114.134C114.292 180.967 114.448 180.936 114.594 180.875C114.74 180.815 114.873 180.726 114.984 180.614C115.096 180.502 115.184 180.369 115.244 180.223C115.304 180.076 115.335 179.92 115.334 179.762V179.648C115.332 178.78 114.989 177.947 114.377 177.331C113.766 176.714 112.936 176.363 112.068 176.354Z" fill="#F0F0F0"/>
<path d="M47.7308 131.652H102.435L102.435 44.0178H47.7308L47.7308 131.652Z" fill="#E6E6E6"/>
<path d="M44.1593 131.652H100.765L100.765 44.0178H44.1593L44.1593 131.652Z" fill="#F0F0F0"/>
<path d="M47.7308 138.291H102.435V131.646H47.7308V138.291Z" fill="#E6E6E6"/>
<path d="M38.205 138.291H94.8107V131.646H38.205V138.291Z" fill="#F0F0F0"/>
<path d="M95.7559 126.648V49.0213H49.1571L49.1571 126.648H95.7559Z" fill="#FAFAFA"/>
<path d="M96.1577 126.643L79.7663 49.0213H65.8994L82.2907 126.643H96.1577Z" fill="white"/>
<path d="M92.3825 117.371C92.4771 117.371 92.5678 117.334 92.6347 117.267C92.7015 117.2 92.7391 117.109 92.7391 117.015V52.2758C92.7391 52.1812 92.7015 52.0905 92.6347 52.0236C92.5678 51.9568 92.4771 51.9192 92.3825 51.9192C92.288 51.9192 92.1973 51.9568 92.1304 52.0236C92.0635 52.0905 92.0259 52.1812 92.0259 52.2758V117.015C92.0259 117.109 92.0635 117.2 92.1304 117.267C92.1973 117.334 92.288 117.371 92.3825 117.371Z" fill="#F0F0F0"/>
<path d="M79.3136 126.643L62.9222 49.0213H57.5169L73.9026 126.643H79.3136Z" fill="white"/>
<path d="M49.7967 126.648L49.7967 49.0213H49.1628L49.1628 126.648H49.7967Z" fill="#E6E6E6"/>
<path opacity="0.6" d="M42.9707 52.8644H97.6746L98.1387 50.9626H43.4348L42.9707 52.8644Z" fill="#F0F0F0"/>
<path opacity="0.6" d="M42.9707 57.2849H97.6746L98.1387 55.3888H43.4348L42.9707 57.2849Z" fill="#F0F0F0"/>
<path opacity="0.6" d="M42.9707 61.711H97.6746L98.1387 59.8092H43.4348L42.9707 61.711Z" fill="#F0F0F0"/>
<path opacity="0.6" d="M42.9707 66.1314H97.6746L98.1387 64.2354H43.4348L42.9707 66.1314Z" fill="#F0F0F0"/>
<path opacity="0.6" d="M42.9707 70.5576H97.6746L98.1387 68.6615H43.4348L42.9707 70.5576Z" fill="#F0F0F0"/>
<path opacity="0.6" d="M42.9707 74.9837H97.6746L98.1387 73.0819H43.4348L42.9707 74.9837Z" fill="#F0F0F0"/>
<path d="M141.5 241.999C202.109 241.999 251.242 239.13 251.242 235.592C251.242 232.053 202.109 229.185 141.5 229.185C80.8913 229.185 31.7582 232.053 31.7582 235.592C31.7582 239.13 80.8913 241.999 141.5 241.999Z" fill="#E0C2C4"/>
<path d="M137.606 148.705H103.029C102.541 148.705 102.146 149.101 102.146 149.588V164.01C102.146 164.497 102.541 164.893 103.029 164.893H137.606C138.094 164.893 138.489 164.497 138.489 164.01V149.588C138.489 149.101 138.094 148.705 137.606 148.705Z" fill="#B46669"/>
<path opacity="0.6" d="M137.606 148.705H103.029C102.541 148.705 102.146 149.101 102.146 149.588V164.01C102.146 164.497 102.541 164.893 103.029 164.893H137.606C138.094 164.893 138.489 164.497 138.489 164.01V149.588C138.489 149.101 138.094 148.705 137.606 148.705Z" fill="white"/>
<path opacity="0.1" d="M137.6 148.705H103.012C102.778 148.705 102.553 148.798 102.388 148.964C102.222 149.129 102.129 149.354 102.129 149.588V154.212L120.128 157.756C120.238 157.778 120.352 157.778 120.462 157.756L138.466 154.212V149.588C138.466 149.357 138.376 149.135 138.214 148.97C138.052 148.805 137.831 148.71 137.6 148.705Z" fill="black"/>
<path d="M138.359 142.785H127.797V141.013C127.796 140.281 127.504 139.579 126.986 139.062C126.469 138.544 125.767 138.253 125.035 138.251H115.6C114.868 138.253 114.166 138.544 113.648 139.062C113.131 139.579 112.839 140.281 112.838 141.013V142.785H102.282C102.051 142.785 101.829 142.877 101.666 143.04C101.502 143.204 101.41 143.425 101.41 143.656V152.379C101.411 152.58 101.482 152.775 101.61 152.93C101.737 153.086 101.915 153.193 102.112 153.233L120.15 156.782C120.261 156.799 120.374 156.799 120.484 156.782L138.523 153.233C138.721 153.193 138.899 153.086 139.028 152.931C139.156 152.775 139.228 152.58 139.23 152.379V143.656C139.23 143.425 139.139 143.204 138.975 143.04C138.812 142.877 138.59 142.785 138.359 142.785ZM114.938 141.013C114.939 140.838 115.009 140.669 115.133 140.545C115.257 140.42 115.424 140.348 115.6 140.345H125.035C125.211 140.348 125.378 140.42 125.502 140.545C125.626 140.669 125.696 140.838 125.697 141.013V142.785H114.943L114.938 141.013Z" fill="#B46669"/>
<path opacity="0.6" d="M138.359 142.785H127.797V141.013C127.796 140.281 127.504 139.579 126.986 139.062C126.469 138.544 125.767 138.253 125.035 138.251H115.6C114.868 138.253 114.166 138.544 113.648 139.062C113.131 139.579 112.839 140.281 112.838 141.013V142.785H102.282C102.051 142.785 101.829 142.877 101.666 143.04C101.502 143.204 101.41 143.425 101.41 143.656V152.379C101.411 152.58 101.482 152.775 101.61 152.93C101.737 153.086 101.915 153.193 102.112 153.233L120.15 156.782C120.261 156.799 120.374 156.799 120.484 156.782L138.523 153.233C138.721 153.193 138.899 153.086 139.028 152.931C139.156 152.775 139.228 152.58 139.23 152.379V143.656C139.23 143.425 139.139 143.204 138.975 143.04C138.812 142.877 138.59 142.785 138.359 142.785ZM114.938 141.013C114.939 140.838 115.009 140.669 115.133 140.545C115.257 140.42 115.424 140.348 115.6 140.345H125.035C125.211 140.348 125.378 140.42 125.502 140.545C125.626 140.669 125.696 140.838 125.697 141.013V142.785H114.943L114.938 141.013Z" fill="white"/>
<path d="M122.182 154.399H118.458C117.996 154.399 117.62 154.774 117.62 155.237V157.591C117.62 158.054 117.996 158.429 118.458 158.429H122.182C122.645 158.429 123.02 158.054 123.02 157.591V155.237C123.02 154.774 122.645 154.399 122.182 154.399Z" fill="#B46669"/>
<path opacity="0.3" d="M122.182 154.399H118.458C117.996 154.399 117.62 154.774 117.62 155.237V157.591C117.62 158.054 117.996 158.429 118.458 158.429H122.182C122.645 158.429 123.02 158.054 123.02 157.591V155.237C123.02 154.774 122.645 154.399 122.182 154.399Z" fill="white"/>
<path d="M137.606 44.5838H103.029C102.541 44.5838 102.146 44.9791 102.146 45.4668V59.8885C102.146 60.3761 102.541 60.7714 103.029 60.7714H137.606C138.094 60.7714 138.489 60.3761 138.489 59.8885V45.4668C138.489 44.9791 138.094 44.5838 137.606 44.5838Z" fill="#B46669"/>
<path opacity="0.6" d="M137.606 44.5838H103.029C102.541 44.5838 102.146 44.9791 102.146 45.4668V59.8885C102.146 60.3761 102.541 60.7714 103.029 60.7714H137.606C138.094 60.7714 138.489 60.3761 138.489 59.8885V45.4668C138.489 44.9791 138.094 44.5838 137.606 44.5838Z" fill="white"/>
<path opacity="0.1" d="M137.6 44.5838H103.012C102.778 44.5838 102.553 44.6769 102.388 44.8424C102.222 45.008 102.129 45.2326 102.129 45.4668V50.091L120.128 53.6342C120.238 53.6567 120.352 53.6567 120.462 53.6342L138.466 50.091V45.4668C138.466 45.2355 138.376 45.0135 138.214 44.8484C138.052 44.6833 137.831 44.5883 137.6 44.5838Z" fill="black"/>
<path d="M138.359 38.6635H127.797V36.8919C127.796 36.1598 127.504 35.4581 126.986 34.9405C126.469 34.4228 125.767 34.1313 125.035 34.1298H115.6C114.868 34.1313 114.166 34.4228 113.648 34.9405C113.131 35.4581 112.839 36.1598 112.838 36.8919V38.6635H102.282C102.051 38.6635 101.829 38.7553 101.666 38.9188C101.502 39.0822 101.41 39.3039 101.41 39.5351V48.2572C101.41 48.4588 101.48 48.6542 101.608 48.8101C101.736 48.9659 101.914 49.0726 102.112 49.1118L120.15 52.638C120.261 52.6606 120.374 52.6606 120.484 52.638L138.523 49.0892C138.719 49.0521 138.896 48.9495 139.025 48.7982C139.155 48.647 139.229 48.4562 139.236 48.2572V39.5351C139.236 39.4202 139.213 39.3064 139.169 39.2002C139.125 39.0941 139.06 38.9978 138.979 38.9168C138.897 38.8358 138.8 38.7717 138.694 38.7282C138.588 38.6847 138.474 38.6627 138.359 38.6635ZM114.938 36.8919C114.938 36.7157 115.007 36.5467 115.131 36.4216C115.255 36.2965 115.424 36.2255 115.6 36.224H125.035C125.21 36.2255 125.378 36.2957 125.502 36.4196C125.626 36.5435 125.696 36.7111 125.697 36.8862V38.6578H114.943L114.938 36.8919Z" fill="#B46669"/>
<path opacity="0.6" d="M138.359 38.6635H127.797V36.8919C127.796 36.1598 127.504 35.4581 126.986 34.9405C126.469 34.4228 125.767 34.1313 125.035 34.1298H115.6C114.868 34.1313 114.166 34.4228 113.648 34.9405C113.131 35.4581 112.839 36.1598 112.838 36.8919V38.6635H102.282C102.051 38.6635 101.829 38.7553 101.666 38.9188C101.502 39.0822 101.41 39.3039 101.41 39.5351V48.2572C101.41 48.4588 101.48 48.6542 101.608 48.8101C101.736 48.9659 101.914 49.0726 102.112 49.1118L120.15 52.638C120.261 52.6606 120.374 52.6606 120.484 52.638L138.523 49.0892C138.719 49.0521 138.896 48.9495 139.025 48.7982C139.155 48.647 139.229 48.4562 139.236 48.2572V39.5351C139.236 39.4202 139.213 39.3064 139.169 39.2002C139.125 39.0941 139.06 38.9978 138.979 38.9168C138.897 38.8358 138.8 38.7717 138.694 38.7282C138.588 38.6847 138.474 38.6627 138.359 38.6635ZM114.938 36.8919C114.938 36.7157 115.007 36.5467 115.131 36.4216C115.255 36.2965 115.424 36.2255 115.6 36.224H125.035C125.21 36.2255 125.378 36.2957 125.502 36.4196C125.626 36.5435 125.696 36.7111 125.697 36.8862V38.6578H114.943L114.938 36.8919Z" fill="white"/>
<path d="M122.182 50.2834H118.458C117.996 50.2834 117.62 50.6585 117.62 51.1211V53.4757C117.62 53.9383 117.996 54.3134 118.458 54.3134H122.182C122.645 54.3134 123.02 53.9383 123.02 53.4757V51.1211C123.02 50.6585 122.645 50.2834 122.182 50.2834Z" fill="#B46669"/>
<path opacity="0.3" d="M122.182 50.2834H118.458C117.996 50.2834 117.62 50.6585 117.62 51.1211V53.4757C117.62 53.9383 117.996 54.3134 118.458 54.3134H122.182C122.645 54.3134 123.02 53.9383 123.02 53.4757V51.1211C123.02 50.6585 122.645 50.2834 122.182 50.2834Z" fill="white"/>
<path d="M83.7454 148.705H49.1684C48.6808 148.705 48.2855 149.101 48.2855 149.588V164.01C48.2855 164.497 48.6808 164.893 49.1684 164.893H83.7454C84.233 164.893 84.6283 164.497 84.6283 164.01V149.588C84.6283 149.101 84.233 148.705 83.7454 148.705Z" fill="#B46669"/>
<path opacity="0.6" d="M83.7454 148.705H49.1684C48.6808 148.705 48.2855 149.101 48.2855 149.588V164.01C48.2855 164.497 48.6808 164.893 49.1684 164.893H83.7454C84.233 164.893 84.6283 164.497 84.6283 164.01V149.588C84.6283 149.101 84.233 148.705 83.7454 148.705Z" fill="white"/>
<path opacity="0.1" d="M83.768 148.705H49.1684C48.9342 148.705 48.7097 148.798 48.5441 148.964C48.3785 149.129 48.2855 149.354 48.2855 149.588V154.212L66.2843 157.756C66.3963 157.778 66.5118 157.778 66.6239 157.756L84.6283 154.212V149.588C84.6284 149.358 84.5385 149.137 84.3778 148.972C84.217 148.807 83.9982 148.711 83.768 148.705Z" fill="black"/>
<path d="M84.4925 142.785H73.9309V141.013C73.9294 140.281 73.6379 139.579 73.1203 139.062C72.6026 138.544 71.9009 138.253 71.1688 138.251H61.7393C61.0072 138.253 60.3055 138.544 59.7879 139.062C59.2702 139.579 58.9787 140.281 58.9772 141.013V142.785H48.4156C48.1845 142.785 47.9628 142.877 47.7993 143.04C47.6358 143.204 47.544 143.425 47.544 143.656V152.379C47.5451 152.58 47.6155 152.775 47.7433 152.93C47.8711 153.086 48.0485 153.193 48.2458 153.233L66.2843 156.782C66.3968 156.799 66.5113 156.799 66.6239 156.782L84.6623 153.233C84.8596 153.193 85.037 153.086 85.1648 152.93C85.2926 152.775 85.363 152.58 85.3641 152.379V143.656C85.3641 143.425 85.2723 143.204 85.1088 143.04C84.9454 142.877 84.7237 142.785 84.4925 142.785ZM61.0714 141.013C61.0743 140.837 61.1456 140.669 61.2702 140.544C61.3949 140.42 61.5631 140.348 61.7393 140.345H71.1688C71.3451 140.348 71.5133 140.42 71.6379 140.544C71.7625 140.669 71.8338 140.837 71.8367 141.013V142.785H61.0827L61.0714 141.013Z" fill="#B46669"/>
<path opacity="0.6" d="M84.4925 142.785H73.9309V141.013C73.9294 140.281 73.6379 139.579 73.1203 139.062C72.6026 138.544 71.9009 138.253 71.1688 138.251H61.7393C61.0072 138.253 60.3055 138.544 59.7879 139.062C59.2702 139.579 58.9787 140.281 58.9772 141.013V142.785H48.4156C48.1845 142.785 47.9628 142.877 47.7993 143.04C47.6358 143.204 47.544 143.425 47.544 143.656V152.379C47.5451 152.58 47.6155 152.775 47.7433 152.93C47.8711 153.086 48.0485 153.193 48.2458 153.233L66.2843 156.782C66.3968 156.799 66.5113 156.799 66.6239 156.782L84.6623 153.233C84.8596 153.193 85.037 153.086 85.1648 152.93C85.2926 152.775 85.363 152.58 85.3641 152.379V143.656C85.3641 143.425 85.2723 143.204 85.1088 143.04C84.9454 142.877 84.7237 142.785 84.4925 142.785ZM61.0714 141.013C61.0743 140.837 61.1456 140.669 61.2702 140.544C61.3949 140.42 61.5631 140.348 61.7393 140.345H71.1688C71.3451 140.348 71.5133 140.42 71.6379 140.544C71.7625 140.669 71.8338 140.837 71.8367 141.013V142.785H61.0827L61.0714 141.013Z" fill="white"/>
<path d="M68.3162 154.399H64.592C64.1293 154.399 63.7543 154.774 63.7543 155.237V157.591C63.7543 158.054 64.1293 158.429 64.592 158.429H68.3162C68.7789 158.429 69.1539 158.054 69.1539 157.591V155.237C69.1539 154.774 68.7789 154.399 68.3162 154.399Z" fill="#B46669"/>
<path opacity="0.3" d="M68.3162 154.399H64.592C64.1293 154.399 63.7543 154.774 63.7543 155.237V157.591C63.7543 158.054 64.1293 158.429 64.592 158.429H68.3162C68.7789 158.429 69.1539 158.054 69.1539 157.591V155.237C69.1539 154.774 68.7789 154.399 68.3162 154.399Z" fill="white"/>
<path d="M83.7454 44.5838H49.1684C48.6808 44.5838 48.2855 44.9791 48.2855 45.4668V59.8885C48.2855 60.3761 48.6808 60.7714 49.1684 60.7714H83.7454C84.233 60.7714 84.6283 60.3761 84.6283 59.8885V45.4668C84.6283 44.9791 84.233 44.5838 83.7454 44.5838Z" fill="#B46669"/>
<path opacity="0.6" d="M83.7454 44.5838H49.1684C48.6808 44.5838 48.2855 44.9791 48.2855 45.4668V59.8885C48.2855 60.3761 48.6808 60.7714 49.1684 60.7714H83.7454C84.233 60.7714 84.6283 60.3761 84.6283 59.8885V45.4668C84.6283 44.9791 84.233 44.5838 83.7454 44.5838Z" fill="white"/>
<path opacity="0.1" d="M83.768 44.5838H49.1684C48.9342 44.5838 48.7097 44.6769 48.5441 44.8424C48.3785 45.008 48.2855 45.2326 48.2855 45.4668V50.091L66.2843 53.6342C66.3963 53.6569 66.5118 53.6569 66.6239 53.6342L84.6283 50.091V45.4668C84.6284 45.2365 84.5385 45.0153 84.3778 44.8503C84.217 44.6854 83.9982 44.5897 83.768 44.5838Z" fill="black"/>
<path d="M84.4925 38.6635H73.9309V36.8919C73.9294 36.1598 73.6379 35.4582 73.1203 34.9405C72.6026 34.4228 71.9009 34.1313 71.1688 34.1299H61.7393C61.0072 34.1313 60.3055 34.4228 59.7879 34.9405C59.2702 35.4582 58.9787 36.1598 58.9772 36.8919V38.6635H48.4156C48.1845 38.6635 47.9628 38.7553 47.7993 38.9188C47.6358 39.0823 47.544 39.304 47.544 39.5352V48.2572C47.5441 48.4589 47.6141 48.6543 47.742 48.8101C47.87 48.9659 48.0481 49.0726 48.2458 49.1119L66.2843 52.638C66.3963 52.6608 66.5118 52.6608 66.6239 52.638L84.6623 49.0892C84.8601 49.0499 85.0381 48.9433 85.1661 48.7875C85.2941 48.6316 85.3641 48.4362 85.3641 48.2346V39.5352C85.3641 39.304 85.2723 39.0823 85.1088 38.9188C84.9454 38.7553 84.7237 38.6635 84.4925 38.6635ZM61.0714 36.8919C61.0729 36.7153 61.1437 36.5462 61.2687 36.4213C61.3936 36.2964 61.5626 36.2255 61.7393 36.2241H71.1688C71.3446 36.2255 71.5127 36.2956 71.6375 36.4193C71.7623 36.543 71.8338 36.7106 71.8367 36.8863V38.6579H61.0827L61.0714 36.8919Z" fill="#B46669"/>
<path opacity="0.6" d="M84.4925 38.6635H73.9309V36.8919C73.9294 36.1598 73.6379 35.4582 73.1203 34.9405C72.6026 34.4228 71.9009 34.1313 71.1688 34.1299H61.7393C61.0072 34.1313 60.3055 34.4228 59.7879 34.9405C59.2702 35.4582 58.9787 36.1598 58.9772 36.8919V38.6635H48.4156C48.1845 38.6635 47.9628 38.7553 47.7993 38.9188C47.6358 39.0823 47.544 39.304 47.544 39.5352V48.2572C47.5441 48.4589 47.6141 48.6543 47.742 48.8101C47.87 48.9659 48.0481 49.0726 48.2458 49.1119L66.2843 52.638C66.3963 52.6608 66.5118 52.6608 66.6239 52.638L84.6623 49.0892C84.8601 49.0499 85.0381 48.9433 85.1661 48.7875C85.2941 48.6316 85.3641 48.4362 85.3641 48.2346V39.5352C85.3641 39.304 85.2723 39.0823 85.1088 38.9188C84.9454 38.7553 84.7237 38.6635 84.4925 38.6635ZM61.0714 36.8919C61.0729 36.7153 61.1437 36.5462 61.2687 36.4213C61.3936 36.2964 61.5626 36.2255 61.7393 36.2241H71.1688C71.3446 36.2255 71.5127 36.2956 71.6375 36.4193C71.7623 36.543 71.8338 36.7106 71.8367 36.8863V38.6579H61.0827L61.0714 36.8919Z" fill="white"/>
<path d="M68.3162 50.2834H64.592C64.1293 50.2834 63.7543 50.6585 63.7543 51.1211V53.4757C63.7543 53.9383 64.1293 54.3134 64.592 54.3134H68.3162C68.7789 54.3134 69.1539 53.9383 69.1539 53.4757V51.1211C69.1539 50.6585 68.7789 50.2834 68.3162 50.2834Z" fill="#B46669"/>
<path opacity="0.3" d="M68.3162 50.2834H64.592C64.1293 50.2834 63.7543 50.6585 63.7543 51.1211V53.4757C63.7543 53.9383 64.1293 54.3134 64.592 54.3134H68.3162C68.7789 54.3134 69.1539 53.9383 69.1539 53.4757V51.1211C69.1539 50.6585 68.7789 50.2834 68.3162 50.2834Z" fill="white"/>
<path d="M79.24 112.832H49.1684C48.9327 112.832 48.7067 112.738 48.5401 112.572C48.3734 112.405 48.2798 112.179 48.2798 111.943V97.5275C48.2807 97.4086 48.3057 97.2911 48.3534 97.1822C48.3764 97.1314 48.4028 97.0822 48.4326 97.0351C48.4641 96.9866 48.5022 96.9428 48.5458 96.9049C48.7107 96.7391 48.9346 96.6454 49.1684 96.6445H77.6325C77.3957 98.6199 77.3181 100.611 77.4005 102.599C77.4005 102.921 77.4005 103.244 77.4514 103.561C77.491 104.155 77.5363 104.755 77.6042 105.35C77.8956 107.893 78.4436 110.4 79.24 112.832Z" fill="#B46669"/>
<path opacity="0.6" d="M79.24 112.832H49.1684C48.9327 112.832 48.7067 112.738 48.5401 112.572C48.3734 112.405 48.2798 112.179 48.2798 111.943V97.5275C48.2807 97.4086 48.3057 97.2911 48.3534 97.1822C48.3764 97.1314 48.4028 97.0822 48.4326 97.0351C48.4641 96.9866 48.5022 96.9428 48.5458 96.9049C48.7107 96.7391 48.9346 96.6454 49.1684 96.6445H77.6325C77.3957 98.6199 77.3181 100.611 77.4005 102.599C77.4005 102.921 77.4005 103.244 77.4514 103.561C77.491 104.155 77.5363 104.755 77.6042 105.35C77.8956 107.893 78.4436 110.4 79.24 112.832Z" fill="white"/>
<path opacity="0.1" d="M77.6326 96.6445C77.3958 98.6199 77.3182 100.611 77.4005 102.599C77.4005 102.921 77.4005 103.244 77.4514 103.561L69.1539 105.191L66.6182 105.689C66.5087 105.717 66.3938 105.717 66.2843 105.689L63.7542 105.197L48.2855 102.152V97.5218C48.2872 97.4054 48.3103 97.2903 48.3534 97.1822C48.3764 97.1314 48.4029 97.0822 48.4326 97.0351C48.4641 96.9866 48.5022 96.9428 48.5458 96.9049C48.7107 96.7391 48.9346 96.6454 49.1684 96.6445H77.6326Z" fill="black"/>
<path d="M78.8155 90.7241H73.9366V88.9526C73.9336 88.22 73.6409 87.5183 73.1223 87.0008C72.6037 86.4833 71.9015 86.192 71.1688 86.1905H61.7393C61.0067 86.1905 60.3042 86.4815 59.7862 86.9995C59.2682 87.5175 58.9772 88.22 58.9772 88.9526V90.7241H48.4156C48.3012 90.7241 48.1878 90.7467 48.0821 90.7905C47.9763 90.8343 47.8802 90.8985 47.7993 90.9794C47.7184 91.0604 47.6542 91.1565 47.6104 91.2622C47.5666 91.368 47.544 91.4813 47.544 91.5958V100.312C47.5441 100.515 47.6147 100.712 47.7437 100.869C47.8727 101.026 48.0522 101.133 48.2515 101.173H48.2855L63.7542 104.223L66.2843 104.716C66.3944 104.738 66.508 104.738 66.6182 104.716L69.1539 104.218L77.4005 102.593C77.3182 100.605 77.3958 98.6142 77.6326 96.6389C77.8676 94.6388 78.2632 92.6608 78.8155 90.7241ZM61.0714 88.9526C61.0744 88.7769 61.1458 88.6093 61.2706 88.4856C61.3954 88.3619 61.5636 88.2918 61.7393 88.2904H71.1688C71.344 88.2918 71.5116 88.3621 71.6355 88.4859C71.7593 88.6098 71.8296 88.7774 71.8311 88.9526V90.7241H61.0771L61.0714 88.9526Z" fill="#B46669"/>
<path opacity="0.6" d="M78.8155 90.7241H73.9366V88.9526C73.9336 88.22 73.6409 87.5183 73.1223 87.0008C72.6037 86.4833 71.9015 86.192 71.1688 86.1905H61.7393C61.0067 86.1905 60.3042 86.4815 59.7862 86.9995C59.2682 87.5175 58.9772 88.22 58.9772 88.9526V90.7241H48.4156C48.3012 90.7241 48.1878 90.7467 48.0821 90.7905C47.9763 90.8343 47.8802 90.8985 47.7993 90.9794C47.7184 91.0604 47.6542 91.1565 47.6104 91.2622C47.5666 91.368 47.544 91.4813 47.544 91.5958V100.312C47.5441 100.515 47.6147 100.712 47.7437 100.869C47.8727 101.026 48.0522 101.133 48.2515 101.173H48.2855L63.7542 104.223L66.2843 104.716C66.3944 104.738 66.508 104.738 66.6182 104.716L69.1539 104.218L77.4005 102.593C77.3182 100.605 77.3958 98.6142 77.6326 96.6389C77.8676 94.6388 78.2632 92.6608 78.8155 90.7241ZM61.0714 88.9526C61.0744 88.7769 61.1458 88.6093 61.2706 88.4856C61.3954 88.3619 61.5636 88.2918 61.7393 88.2904H71.1688C71.344 88.2918 71.5116 88.3621 71.6355 88.4859C71.7593 88.6098 71.8296 88.7774 71.8311 88.9526V90.7241H61.0771L61.0714 88.9526Z" fill="white"/>
<path d="M68.3162 102.338H64.592C64.1293 102.338 63.7543 102.714 63.7543 103.176V105.531C63.7543 105.993 64.1293 106.368 64.592 106.368H68.3162C68.7789 106.368 69.1539 105.993 69.1539 105.531V103.176C69.1539 102.714 68.7789 102.338 68.3162 102.338Z" fill="#B46669"/>
<path opacity="0.3" d="M68.3162 102.338H64.592C64.1293 102.338 63.7543 102.714 63.7543 103.176V105.531C63.7543 105.993 64.1293 106.368 64.592 106.368H68.3162C68.7789 106.368 69.1539 105.993 69.1539 105.531V103.176C69.1539 102.714 68.7789 102.338 68.3162 102.338Z" fill="white"/>
<path d="M156.89 164.887H191.467C191.954 164.887 192.349 164.492 192.349 164.004V149.582C192.349 149.095 191.954 148.7 191.467 148.7H156.89C156.402 148.7 156.007 149.095 156.007 149.582V164.004C156.007 164.492 156.402 164.887 156.89 164.887Z" fill="#B46669"/>
<path opacity="0.6" d="M156.89 164.887H191.467C191.954 164.887 192.349 164.492 192.349 164.004V149.582C192.349 149.095 191.954 148.7 191.467 148.7H156.89C156.402 148.7 156.007 149.095 156.007 149.582V164.004C156.007 164.492 156.402 164.887 156.89 164.887Z" fill="white"/>
<path opacity="0.1" d="M156.895 148.705H191.466C191.701 148.705 191.925 148.798 192.091 148.964C192.256 149.129 192.349 149.354 192.349 149.588V154.212L174.328 157.756C174.218 157.778 174.104 157.778 173.994 157.756L155.99 154.212V149.588C155.99 149.47 156.013 149.354 156.059 149.245C156.105 149.136 156.172 149.038 156.256 148.956C156.341 148.873 156.441 148.809 156.55 148.766C156.66 148.723 156.777 148.702 156.895 148.705Z" fill="black"/>
<path d="M156.142 142.785H166.704V141.013C166.706 140.281 166.997 139.579 167.515 139.062C168.032 138.544 168.734 138.253 169.466 138.251H178.901C179.633 138.253 180.335 138.544 180.853 139.062C181.37 139.579 181.662 140.281 181.663 141.013V142.785H192.219C192.334 142.785 192.447 142.807 192.553 142.851C192.659 142.895 192.755 142.959 192.836 143.04C192.917 143.121 192.981 143.217 193.025 143.323C193.068 143.429 193.091 143.542 193.091 143.656V152.379C193.09 152.58 193.019 152.775 192.892 152.93C192.764 153.086 192.586 153.193 192.389 153.233L174.328 156.782C174.215 156.799 174.101 156.799 173.988 156.782L155.95 153.233C155.753 153.193 155.575 153.086 155.447 152.93C155.32 152.775 155.249 152.58 155.248 152.379V143.656C155.248 143.54 155.271 143.425 155.317 143.318C155.362 143.21 155.428 143.113 155.511 143.032C155.595 142.951 155.694 142.887 155.802 142.845C155.91 142.802 156.026 142.782 156.142 142.785ZM179.564 141.013C179.562 140.838 179.492 140.669 179.368 140.545C179.245 140.42 179.077 140.348 178.901 140.345H169.466C169.29 140.348 169.122 140.42 168.997 140.544C168.872 140.669 168.801 140.837 168.798 141.013V142.785H179.552L179.564 141.013Z" fill="#B46669"/>
<path opacity="0.6" d="M156.142 142.785H166.704V141.013C166.706 140.281 166.997 139.579 167.515 139.062C168.032 138.544 168.734 138.253 169.466 138.251H178.901C179.633 138.253 180.335 138.544 180.853 139.062C181.37 139.579 181.662 140.281 181.663 141.013V142.785H192.219C192.334 142.785 192.447 142.807 192.553 142.851C192.659 142.895 192.755 142.959 192.836 143.04C192.917 143.121 192.981 143.217 193.025 143.323C193.068 143.429 193.091 143.542 193.091 143.656V152.379C193.09 152.58 193.019 152.775 192.892 152.93C192.764 153.086 192.586 153.193 192.389 153.233L174.328 156.782C174.215 156.799 174.101 156.799 173.988 156.782L155.95 153.233C155.753 153.193 155.575 153.086 155.447 152.93C155.32 152.775 155.249 152.58 155.248 152.379V143.656C155.248 143.54 155.271 143.425 155.317 143.318C155.362 143.21 155.428 143.113 155.511 143.032C155.595 142.951 155.694 142.887 155.802 142.845C155.91 142.802 156.026 142.782 156.142 142.785ZM179.564 141.013C179.562 140.838 179.492 140.669 179.368 140.545C179.245 140.42 179.077 140.348 178.901 140.345H169.466C169.29 140.348 169.122 140.42 168.997 140.544C168.872 140.669 168.801 140.837 168.798 141.013V142.785H179.552L179.564 141.013Z" fill="white"/>
<path d="M172.319 158.429H176.043C176.506 158.429 176.881 158.054 176.881 157.591V155.237C176.881 154.774 176.506 154.399 176.043 154.399H172.319C171.856 154.399 171.481 154.774 171.481 155.237V157.591C171.481 158.054 171.856 158.429 172.319 158.429Z" fill="#B46669"/>
<path opacity="0.3" d="M172.319 158.429H176.043C176.506 158.429 176.881 158.054 176.881 157.591V155.237C176.881 154.774 176.506 154.399 176.043 154.399H172.319C171.856 154.399 171.481 154.774 171.481 155.237V157.591C171.481 158.054 171.856 158.429 172.319 158.429Z" fill="white"/>
<path d="M156.89 60.7658L191.467 60.7658C191.954 60.7658 192.349 60.3705 192.349 59.8828V45.4611C192.349 44.9735 191.954 44.5782 191.467 44.5782H156.89C156.402 44.5782 156.007 44.9735 156.007 45.4611V59.8828C156.007 60.3705 156.402 60.7658 156.89 60.7658Z" fill="#B46669"/>
<path opacity="0.6" d="M156.89 60.7658L191.467 60.7658C191.954 60.7658 192.349 60.3705 192.349 59.8828V45.4611C192.349 44.9735 191.954 44.5782 191.467 44.5782H156.89C156.402 44.5782 156.007 44.9735 156.007 45.4611V59.8828C156.007 60.3705 156.402 60.7658 156.89 60.7658Z" fill="white"/>
<path opacity="0.1" d="M156.895 44.5838H191.466C191.701 44.5838 191.925 44.6769 192.091 44.8424C192.256 45.008 192.349 45.2326 192.349 45.4668V50.091L174.328 53.6342C174.218 53.6567 174.104 53.6567 173.994 53.6342L156.012 50.091V45.4668C156.012 45.2326 156.105 45.008 156.271 44.8424C156.436 44.6769 156.661 44.5838 156.895 44.5838Z" fill="black"/>
<path d="M156.142 38.6635H166.704V36.8919C166.706 36.1598 166.997 35.4581 167.515 34.9405C168.032 34.4228 168.734 34.1313 169.466 34.1298H178.901C179.266 34.1276 179.627 34.1973 179.964 34.3351C180.302 34.4728 180.609 34.6758 180.867 34.9324C181.126 35.1891 181.332 35.4943 181.472 35.8305C181.613 36.1668 181.685 36.5275 181.686 36.8919V38.6635H192.242C192.473 38.6635 192.695 38.7553 192.858 38.9188C193.022 39.0822 193.114 39.3039 193.114 39.5351V48.2572C193.114 48.4588 193.044 48.6542 192.916 48.8101C192.788 48.9659 192.61 49.0725 192.412 49.1118L174.328 52.638C174.216 52.6607 174.1 52.6607 173.988 52.638L155.95 49.0892C155.752 49.0499 155.574 48.9433 155.446 48.7874C155.318 48.6316 155.248 48.4362 155.248 48.2345V39.5351C155.248 39.4187 155.271 39.3035 155.317 39.1962C155.362 39.089 155.428 38.9919 155.511 38.9106C155.595 38.8294 155.694 38.7657 155.802 38.7232C155.91 38.6808 156.026 38.6604 156.142 38.6635ZM179.564 36.8919C179.564 36.7157 179.494 36.5467 179.37 36.4216C179.246 36.2965 179.077 36.2255 178.901 36.224H169.466C169.29 36.2255 169.122 36.2955 168.997 36.4192C168.873 36.543 168.801 36.7105 168.798 36.8862V38.6578H179.552L179.564 36.8919Z" fill="#B46669"/>
<path opacity="0.6" d="M156.142 38.6635H166.704V36.8919C166.706 36.1598 166.997 35.4581 167.515 34.9405C168.032 34.4228 168.734 34.1313 169.466 34.1298H178.901C179.266 34.1276 179.627 34.1973 179.964 34.3351C180.302 34.4728 180.609 34.6758 180.867 34.9324C181.126 35.1891 181.332 35.4943 181.472 35.8305C181.613 36.1668 181.685 36.5275 181.686 36.8919V38.6635H192.242C192.473 38.6635 192.695 38.7553 192.858 38.9188C193.022 39.0822 193.114 39.3039 193.114 39.5351V48.2572C193.114 48.4588 193.044 48.6542 192.916 48.8101C192.788 48.9659 192.61 49.0725 192.412 49.1118L174.328 52.638C174.216 52.6607 174.1 52.6607 173.988 52.638L155.95 49.0892C155.752 49.0499 155.574 48.9433 155.446 48.7874C155.318 48.6316 155.248 48.4362 155.248 48.2345V39.5351C155.248 39.4187 155.271 39.3035 155.317 39.1962C155.362 39.089 155.428 38.9919 155.511 38.9106C155.595 38.8294 155.694 38.7657 155.802 38.7232C155.91 38.6808 156.026 38.6604 156.142 38.6635ZM179.564 36.8919C179.564 36.7157 179.494 36.5467 179.37 36.4216C179.246 36.2965 179.077 36.2255 178.901 36.224H169.466C169.29 36.2255 169.122 36.2955 168.997 36.4192C168.873 36.543 168.801 36.7105 168.798 36.8862V38.6578H179.552L179.564 36.8919Z" fill="white"/>
<path d="M172.319 54.3077H176.043C176.506 54.3077 176.881 53.9327 176.881 53.47V51.1155C176.881 50.6528 176.506 50.2778 176.043 50.2778H172.319C171.856 50.2778 171.481 50.6528 171.481 51.1155V53.47C171.481 53.9327 171.856 54.3077 172.319 54.3077Z" fill="#B46669"/>
<path opacity="0.3" d="M172.319 54.3077H176.043C176.506 54.3077 176.881 53.9327 176.881 53.47V51.1155C176.881 50.6528 176.506 50.2778 176.043 50.2778H172.319C171.856 50.2778 171.481 50.6528 171.481 51.1155V53.47C171.481 53.9327 171.856 54.3077 172.319 54.3077Z" fill="white"/>
<path d="M161.418 112.832H191.472C191.707 112.831 191.931 112.736 192.097 112.57C192.262 112.403 192.355 112.178 192.355 111.943V97.5275C192.354 97.4086 192.329 97.2911 192.282 97.1822C192.261 97.1303 192.234 97.0809 192.202 97.0351C192.171 96.9866 192.133 96.9428 192.089 96.9049C192.008 96.8223 191.911 96.7567 191.804 96.712C191.697 96.6673 191.582 96.6444 191.466 96.6445H163.008C163.245 98.6199 163.322 100.611 163.24 102.599C163.24 102.921 163.24 103.244 163.189 103.561C163.155 104.155 163.104 104.755 163.036 105.35C162.75 107.892 162.208 110.399 161.418 112.832Z" fill="#B46669"/>
<path opacity="0.6" d="M161.418 112.832H191.472C191.707 112.831 191.931 112.736 192.097 112.57C192.262 112.403 192.355 112.178 192.355 111.943V97.5275C192.354 97.4086 192.329 97.2911 192.282 97.1822C192.261 97.1303 192.234 97.0809 192.202 97.0351C192.171 96.9866 192.133 96.9428 192.089 96.9049C192.008 96.8223 191.911 96.7567 191.804 96.712C191.697 96.6673 191.582 96.6444 191.466 96.6445H163.008C163.245 98.6199 163.322 100.611 163.24 102.599C163.24 102.921 163.24 103.244 163.189 103.561C163.155 104.155 163.104 104.755 163.036 105.35C162.75 107.892 162.208 110.399 161.418 112.832Z" fill="white"/>
<path opacity="0.1" d="M163.008 96.6445C163.245 98.6199 163.322 100.611 163.24 102.599C163.24 102.921 163.24 103.244 163.189 103.561L171.498 105.191L174.034 105.689C174.143 105.717 174.258 105.717 174.368 105.689L176.898 105.197L192.366 102.152V97.5218C192.365 97.4054 192.342 97.2903 192.299 97.1822C192.278 97.1303 192.251 97.0809 192.219 97.0351C192.188 96.9866 192.15 96.9428 192.106 96.9049C192.025 96.8223 191.928 96.7567 191.821 96.712C191.714 96.6673 191.599 96.6444 191.483 96.6445H163.008Z" fill="black"/>
<path d="M161.819 90.7241H166.704V88.9526C166.705 88.2205 166.997 87.5188 167.515 87.0011C168.032 86.4835 168.734 86.192 169.466 86.1905H178.896C179.629 86.1905 180.332 86.4813 180.851 86.9991C181.37 87.517 181.662 88.2195 181.663 88.9526V90.7241H192.219C192.45 90.7241 192.672 90.816 192.836 90.9795C192.999 91.1429 193.091 91.3646 193.091 91.5958V100.312C193.091 100.515 193.021 100.711 192.893 100.867C192.766 101.024 192.587 101.132 192.389 101.173H192.349L176.881 104.223L174.328 104.71C174.218 104.733 174.104 104.733 173.994 104.71L171.458 104.212L163.212 102.588C163.372 98.5756 162.895 94.5636 161.797 90.7015L161.819 90.7241ZM179.564 88.9526C179.561 88.7769 179.489 88.6093 179.364 88.4856C179.24 88.3619 179.071 88.2918 178.896 88.2904H169.466C169.291 88.2918 169.123 88.3621 168.999 88.4859C168.876 88.6098 168.805 88.7774 168.804 88.9526V90.7241H179.558L179.564 88.9526Z" fill="#B46669"/>
<path opacity="0.6" d="M161.819 90.7241H166.704V88.9526C166.705 88.2205 166.997 87.5188 167.515 87.0011C168.032 86.4835 168.734 86.192 169.466 86.1905H178.896C179.629 86.1905 180.332 86.4813 180.851 86.9991C181.37 87.517 181.662 88.2195 181.663 88.9526V90.7241H192.219C192.45 90.7241 192.672 90.816 192.836 90.9795C192.999 91.1429 193.091 91.3646 193.091 91.5958V100.312C193.091 100.515 193.021 100.711 192.893 100.867C192.766 101.024 192.587 101.132 192.389 101.173H192.349L176.881 104.223L174.328 104.71C174.218 104.733 174.104 104.733 173.994 104.71L171.458 104.212L163.212 102.588C163.372 98.5756 162.895 94.5636 161.797 90.7015L161.819 90.7241ZM179.564 88.9526C179.561 88.7769 179.489 88.6093 179.364 88.4856C179.24 88.3619 179.071 88.2918 178.896 88.2904H169.466C169.291 88.2918 169.123 88.3621 168.999 88.4859C168.876 88.6098 168.805 88.7774 168.804 88.9526V90.7241H179.558L179.564 88.9526Z" fill="white"/>
<path d="M172.319 106.374H176.043C176.506 106.374 176.881 105.999 176.881 105.536V103.182C176.881 102.719 176.506 102.344 176.043 102.344H172.319C171.856 102.344 171.481 102.719 171.481 103.182V105.536C171.481 105.999 171.856 106.374 172.319 106.374Z" fill="#B46669"/>
<path opacity="0.3" d="M172.319 106.374H176.043C176.506 106.374 176.881 105.999 176.881 105.536V103.182C176.881 102.719 176.506 102.344 176.043 102.344H172.319C171.856 102.344 171.481 102.719 171.481 103.182V105.536C171.481 105.999 171.856 106.374 172.319 106.374Z" fill="white"/>
<path d="M146.99 93.1296H97.3067C96.6065 93.1296 96.0389 93.6973 96.0389 94.3975V115.119C96.0389 115.819 96.6065 116.387 97.3067 116.387H146.99C147.69 116.387 148.258 115.819 148.258 115.119V94.3975C148.258 93.6973 147.69 93.1296 146.99 93.1296Z" fill="#B46669"/>
<path d="M128.923 89.428H115.368C114.34 89.4265 113.355 89.0175 112.628 88.2908C111.901 87.564 111.492 86.5787 111.491 85.5509V82.07C111.492 81.0422 111.901 80.0569 112.628 79.3301C113.355 78.6034 114.34 78.1944 115.368 78.1929H128.923C129.952 78.1929 130.938 78.6014 131.665 79.3285C132.392 80.0556 132.801 81.0417 132.801 82.07V85.5339C132.803 86.0445 132.704 86.5505 132.51 87.0228C132.316 87.4952 132.031 87.9246 131.671 88.2864C131.311 88.6483 130.883 88.9354 130.411 89.1313C129.94 89.3272 129.434 89.428 128.923 89.428ZM115.368 81.0399C115.095 81.0428 114.834 81.1521 114.641 81.3445C114.447 81.5369 114.336 81.7972 114.332 82.07V85.5339C114.332 85.8116 114.442 86.078 114.639 86.2743C114.835 86.4707 115.101 86.581 115.379 86.581H128.935C129.212 86.581 129.479 86.4707 129.675 86.2743C129.872 86.078 129.982 85.8116 129.982 85.5339V82.07C129.982 81.7923 129.872 81.526 129.675 81.3296C129.479 81.1332 129.212 81.0229 128.935 81.0229L115.368 81.0399Z" fill="#B46669"/>
<path opacity="0.2" d="M146.985 93.1297H97.3124C97.1454 93.1289 96.9799 93.1612 96.8255 93.2245C96.671 93.2879 96.5306 93.3812 96.4122 93.499C96.2939 93.6168 96.2 93.7568 96.1359 93.911C96.0719 94.0652 96.0389 94.2305 96.0389 94.3975V101.048L121.905 106.142C122.064 106.176 122.228 106.176 122.386 106.142L148.258 101.048V94.3975C148.258 94.2305 148.225 94.0652 148.161 93.911C148.097 93.7568 148.003 93.6168 147.885 93.499C147.766 93.3812 147.626 93.2879 147.471 93.2245C147.317 93.1612 147.152 93.1289 146.985 93.1297Z" fill="black"/>
<path d="M148.292 99.616L122.375 104.71C122.214 104.738 122.049 104.738 121.888 104.71L95.971 99.616C95.6862 99.5598 95.4297 99.4068 95.245 99.1829C95.0603 98.959 94.9589 98.678 94.9578 98.3878V85.8792C94.9578 85.7149 94.9902 85.5523 95.053 85.4005C95.1159 85.2488 95.208 85.1109 95.3242 84.9947C95.4403 84.8786 95.5782 84.7864 95.73 84.7236C95.8818 84.6607 96.0444 84.6284 96.2087 84.6284H148.066C148.23 84.6284 148.393 84.6607 148.544 84.7236C148.696 84.7864 148.834 84.8786 148.95 84.9947C149.066 85.1109 149.158 85.2488 149.221 85.4005C149.284 85.5523 149.316 85.7149 149.316 85.8792V98.4104C149.311 98.6987 149.206 98.9761 149.019 99.1958C148.832 99.4155 148.576 99.5639 148.292 99.616Z" fill="#B46669"/>
<path d="M124.831 101.32H119.471C118.809 101.32 118.271 101.857 118.271 102.52V105.91C118.271 106.573 118.809 107.11 119.471 107.11H124.831C125.494 107.11 126.031 106.573 126.031 105.91V102.52C126.031 101.857 125.494 101.32 124.831 101.32Z" fill="#B46669"/>
<path opacity="0.4" d="M124.831 101.32H119.471C118.809 101.32 118.271 101.857 118.271 102.52V105.91C118.271 106.573 118.809 107.11 119.471 107.11H124.831C125.494 107.11 126.031 106.573 126.031 105.91V102.52C126.031 101.857 125.494 101.32 124.831 101.32Z" fill="black"/>
<path d="M215.589 105.961C216.24 107.302 216.721 108.57 217.287 109.895C217.853 111.219 218.267 112.538 218.708 113.891C219.603 116.633 220.264 119.447 220.683 122.301C220.74 122.658 220.768 123.043 220.808 123.433L220.865 123.999C220.865 124.101 220.865 124.175 220.865 124.294V124.661C220.884 125.52 220.81 126.378 220.644 127.22C220.363 128.684 219.964 130.122 219.45 131.521C218.483 134.181 217.278 136.748 215.85 139.191L212.974 137.974C213.614 135.393 214.259 132.761 214.746 130.22C214.984 129.002 215.152 127.772 215.25 126.535C215.283 126.029 215.272 125.522 215.216 125.018L215.154 124.661L215.074 124.209C215.012 123.909 214.972 123.609 214.899 123.303C214.335 120.805 213.605 118.347 212.714 115.945C212.284 114.717 211.809 113.494 211.333 112.266C210.858 111.038 210.331 109.804 209.844 108.672L215.589 105.961Z" fill="#7F3E3B"/>
<path d="M213.099 137.221L210.892 139.372L215.708 141.636C215.708 141.636 216.874 139.598 216.07 137.753L213.099 137.221Z" fill="#7F3E3B"/>
<path d="M209.114 142.581L213.178 144.245L215.708 141.613L210.892 139.372L209.114 142.581Z" fill="#7F3E3B"/>
<path opacity="0.2" d="M126.676 140.26C134.686 139.363 142.249 136.112 148.41 130.917C154.572 125.721 159.054 118.816 161.291 111.074C163.528 103.331 163.419 95.0991 160.978 87.4184C158.537 79.7377 153.874 72.9533 147.577 67.9229C141.281 62.8925 133.634 59.842 125.604 59.1571C117.574 58.4722 109.521 60.1836 102.463 64.075C95.406 67.9664 89.6608 73.863 85.9542 81.0193C82.2477 88.1756 80.7463 96.2703 81.6398 104.28C82.2333 109.6 83.8692 114.751 86.4539 119.439C89.0387 124.127 92.5217 128.259 96.704 131.6C100.886 134.942 105.686 137.426 110.829 138.912C115.971 140.398 121.357 140.856 126.676 140.26Z" fill="#B46669"/>
<path opacity="0.1" d="M97.0237 67.6596L159.001 117.162C159.267 116.596 159.516 116.03 159.759 115.464C161.312 111.768 162.304 107.861 162.702 103.872L109.17 61.128C104.777 62.5931 100.668 64.8025 97.0237 67.6596Z" fill="white"/>
<path opacity="0.1" d="M82.7266 89.3544L140.991 135.908C146.527 133.021 151.325 128.9 155.016 123.863L91.3864 73.014C87.2857 77.7252 84.3228 83.3159 82.7266 89.3544Z" fill="white"/>
<path d="M222.534 145.53C222.46 144.5 222.123 143.506 221.555 142.643C221.143 142.009 220.565 141.498 219.885 141.166L216.02 139.27C213.45 137.996 210.863 136.757 208.277 135.517C205.69 134.278 203.086 133.061 200.494 131.833C197.902 130.604 195.287 129.41 192.666 128.239C187.437 125.869 182.173 123.563 176.875 121.322C174.226 120.19 171.572 119.103 168.894 118.039C168.113 117.731 167.477 117.138 167.117 116.379C166.756 115.621 166.698 114.753 166.953 113.953C170.537 102.654 169.721 90.4193 164.668 79.6969C159.616 68.9745 150.7 60.556 139.706 56.1265C128.712 51.6971 116.45 51.5837 105.375 55.8089C94.301 60.0342 85.231 68.2863 79.9812 78.9134C74.7314 89.5405 73.6891 101.758 77.0631 113.121C80.437 124.484 87.9781 134.153 98.1768 140.193C108.376 146.233 120.479 148.198 132.065 145.695C143.651 143.192 153.864 136.405 160.659 126.693C161.14 126.003 161.866 125.521 162.688 125.346C163.511 125.171 164.37 125.314 165.091 125.748C167.566 127.22 170.053 128.667 172.551 130.089C177.543 132.935 182.573 135.708 187.64 138.41C190.17 139.779 192.734 141.098 195.253 142.44C197.772 143.781 200.347 145.088 202.911 146.402C205.475 147.715 208.005 148.999 210.603 150.267L214.457 152.18C215.135 152.521 215.892 152.67 216.648 152.611C217.676 152.538 218.669 152.2 219.529 151.631C220.554 151.001 221.381 150.094 221.913 149.015C222.444 147.935 222.66 146.727 222.534 145.53ZM105.729 133.01C99.1491 129.763 93.68 124.638 90.0131 118.283C86.3463 111.928 84.6464 104.628 85.1284 97.3068C85.6105 89.9855 88.2528 82.9716 92.7212 77.1521C97.1897 71.3326 103.284 66.9689 110.232 64.6128C117.181 62.2568 124.672 62.0142 131.758 63.9159C138.845 65.8175 145.208 69.7779 150.044 75.2962C154.879 80.8144 157.97 87.6428 158.924 94.9175C159.879 102.192 158.655 109.587 155.407 116.166C153.251 120.534 150.256 124.435 146.593 127.645C142.929 130.856 138.67 133.313 134.057 134.877C129.443 136.441 124.567 137.082 119.707 136.761C114.846 136.441 110.097 135.166 105.729 133.01Z" fill="#B46669"/>
<path d="M194.246 88.4658C194.246 88.7997 194.07 89.0714 193.849 89.0714C193.629 89.0714 193.453 88.7997 193.453 88.4658C193.453 88.1319 193.629 87.8545 193.849 87.8545C194.07 87.8545 194.246 88.1262 194.246 88.4658Z" fill="#263238"/>
<path d="M194.098 89.0714C193.701 90.0967 193.163 91.0623 192.502 91.941C192.731 92.1048 192.993 92.2165 193.27 92.2684C193.547 92.3202 193.831 92.3108 194.104 92.241L194.098 89.0714Z" fill="#630F0F"/>
<path d="M195.434 86.598C195.475 86.5968 195.515 86.5829 195.548 86.5582C195.581 86.5334 195.605 86.4991 195.617 86.4599C195.63 86.4207 195.63 86.3786 195.617 86.3395C195.605 86.3003 195.58 86.2661 195.547 86.2414C195.297 86.054 195.006 85.9285 194.698 85.8754C194.39 85.8222 194.074 85.8429 193.776 85.9358C193.749 85.9431 193.724 85.9559 193.703 85.9734C193.681 85.9909 193.664 86.0127 193.651 86.0374C193.639 86.0621 193.631 86.0892 193.63 86.1168C193.629 86.1445 193.633 86.1722 193.643 86.198C193.653 86.2239 193.668 86.2474 193.688 86.2669C193.707 86.2865 193.731 86.3018 193.757 86.3118C193.783 86.3217 193.81 86.3261 193.838 86.3247C193.866 86.3234 193.893 86.3162 193.917 86.3037C194.155 86.233 194.406 86.2192 194.65 86.2635C194.893 86.3077 195.123 86.4087 195.321 86.5584C195.353 86.5845 195.393 86.5985 195.434 86.598Z" fill="#263238"/>
<path d="M205.696 90.9901C205.096 94.0352 204.502 99.6103 206.63 101.637C206.63 101.637 205.798 104.721 200.149 104.721C193.923 104.721 197.177 101.637 197.177 101.637C200.573 100.827 200.483 98.3085 199.889 95.9766L205.696 90.9901Z" fill="#7F3E3B"/>
<path d="M207.722 99.7292C208.192 99.882 207.581 102.678 207.581 102.678C207.581 102.678 206.805 104.631 197.172 103.952C196.43 103.895 196.713 101.212 197.421 100.822C199.702 99.5764 206.205 99.2311 207.722 99.7292Z" fill="#263238"/>
<path d="M227.289 216.67C227.809 216.62 228.568 215.663 228.783 215.312C228.792 215.297 228.798 215.279 228.798 215.261C228.798 215.243 228.792 215.225 228.783 215.21C228.774 215.193 228.759 215.18 228.742 215.172C228.725 215.164 228.705 215.161 228.687 215.165C228.63 215.165 227.26 215.425 226.926 215.957C226.891 216.013 226.868 216.076 226.858 216.141C226.848 216.206 226.852 216.273 226.87 216.337C226.943 216.586 227.085 216.653 227.198 216.67H227.289ZM228.483 215.408C228.115 215.918 227.509 216.512 227.221 216.472C227.192 216.472 227.108 216.472 227.057 216.28C227.046 216.243 227.043 216.204 227.049 216.166C227.055 216.128 227.069 216.091 227.091 216.059C227.481 215.71 227.965 215.484 228.483 215.408Z" fill="#B46669"/>
<path d="M228.426 215.408C228.528 215.4 228.628 215.383 228.726 215.357C228.743 215.352 228.758 215.342 228.77 215.329C228.782 215.317 228.79 215.301 228.794 215.284C228.797 215.266 228.796 215.248 228.79 215.231C228.784 215.214 228.774 215.199 228.76 215.188C228.726 215.154 227.809 214.372 227.187 214.435C227.112 214.44 227.039 214.46 226.972 214.495C226.906 214.531 226.848 214.579 226.802 214.639C226.749 214.69 226.715 214.758 226.708 214.832C226.701 214.906 226.72 214.98 226.762 215.04C226.966 215.363 227.86 215.465 228.426 215.408ZM228.472 215.21C227.906 215.278 227.079 215.165 226.921 214.933C226.921 214.933 226.875 214.859 226.955 214.757C226.987 214.72 227.025 214.689 227.069 214.667C227.113 214.645 227.16 214.631 227.209 214.627C227.679 214.692 228.118 214.895 228.472 215.21Z" fill="#B46669"/>
<path d="M188.376 231.556C188.805 231.555 189.233 231.517 189.655 231.443C189.674 231.438 189.692 231.428 189.705 231.414C189.719 231.4 189.729 231.383 189.735 231.364C189.738 231.344 189.735 231.323 189.726 231.305C189.717 231.286 189.702 231.271 189.684 231.262C189.621 231.222 188.172 230.396 187.476 230.583C187.346 230.616 187.234 230.699 187.165 230.815C187.121 230.878 187.097 230.953 187.097 231.03C187.097 231.107 187.121 231.182 187.165 231.245C187.346 231.494 187.844 231.556 188.376 231.556ZM189.338 231.296C188.563 231.403 187.51 231.398 187.318 231.132C187.289 231.098 187.267 231.036 187.318 230.911C187.338 230.876 187.366 230.846 187.399 230.823C187.433 230.799 187.47 230.783 187.51 230.775C187.957 230.656 188.829 231.036 189.338 231.296Z" fill="#B46669"/>
<path d="M189.61 231.443C189.63 231.449 189.652 231.449 189.672 231.443C189.685 231.432 189.696 231.418 189.702 231.402C189.709 231.387 189.713 231.37 189.712 231.352C189.712 231.307 189.593 230.187 189.067 229.751C188.989 229.686 188.898 229.637 188.801 229.608C188.704 229.579 188.602 229.57 188.501 229.581C188.229 229.609 188.155 229.745 188.133 229.858C188.059 230.328 189.055 231.228 189.553 231.454L189.61 231.443ZM188.597 229.745C188.723 229.749 188.845 229.794 188.942 229.875C189.256 230.234 189.454 230.68 189.508 231.154C188.993 230.849 188.32 230.141 188.376 229.858C188.376 229.858 188.376 229.768 188.569 229.751L188.597 229.745Z" fill="#B46669"/>
<path d="M194.206 231.347H190.052L189.633 221.714H193.793L194.206 231.347Z" fill="#7F3E3B"/>
<path d="M232.417 212.267L229.173 214.865L220.921 209.137L224.17 206.539L232.417 212.267Z" fill="#7F3E3B"/>
<path d="M228.579 214.701L231.896 211.412C231.955 211.355 232.032 211.319 232.114 211.311C232.197 211.303 232.279 211.323 232.349 211.367L235.535 213.416C235.613 213.466 235.677 213.533 235.725 213.612C235.772 213.69 235.801 213.779 235.81 213.871C235.818 213.962 235.805 214.055 235.772 214.141C235.739 214.227 235.687 214.304 235.62 214.367C234.443 215.499 233.815 215.986 232.354 217.429C231.46 218.323 229.27 220.983 228.03 222.212C226.791 223.44 225.409 222.376 225.811 221.759C227.594 219.008 228.2 216.738 228.279 215.357C228.296 215.109 228.403 214.876 228.579 214.701Z" fill="#263238"/>
<path d="M190.074 230.866H194.602C194.684 230.865 194.764 230.893 194.828 230.945C194.892 230.996 194.936 231.068 194.953 231.149L195.774 234.845C195.794 234.934 195.795 235.026 195.774 235.115C195.754 235.204 195.713 235.287 195.656 235.358C195.599 235.429 195.526 235.485 195.444 235.524C195.361 235.563 195.271 235.582 195.179 235.581C193.538 235.581 191.172 235.462 189.112 235.462C186.706 235.462 184.629 235.592 181.805 235.592C180.107 235.592 179.626 233.866 180.339 233.707C183.593 233 186.248 232.92 189.055 231.188C189.358 230.988 189.711 230.876 190.074 230.866Z" fill="#263238"/>
<path d="M214.825 102.882C218.431 104.58 219.919 116.217 219.919 116.217L211.627 119.471C210.34 116.32 209.298 113.075 208.509 109.764C207.348 104.512 211.118 101.116 214.825 102.882Z" fill="#B46669"/>
<path opacity="0.3" d="M214.825 102.882C218.431 104.58 219.919 116.217 219.919 116.217L211.627 119.471C210.34 116.32 209.298 113.075 208.509 109.764C207.348 104.512 211.118 101.116 214.825 102.882Z" fill="white"/>
<path opacity="0.2" d="M209.454 106.295C209.171 106.158 208.875 106.049 208.571 105.972C208.24 107.213 208.229 108.518 208.537 109.764C209.323 113.075 210.363 116.321 211.65 119.471L214.384 118.402C213.88 115.362 212.335 107.676 209.454 106.295Z" fill="black"/>
<path d="M190.782 102.791C190.782 102.791 186.355 107.789 190.533 138.732H212.776C212.929 135.336 210.784 118.662 214.078 102.576C211.618 102.103 209.13 101.789 206.63 101.637C203.481 101.455 200.326 101.455 197.177 101.637C195.019 101.854 192.88 102.24 190.782 102.791Z" fill="#B46669"/>
<path opacity="0.3" d="M190.782 102.791C190.782 102.791 186.355 107.789 190.533 138.732H212.776C212.929 135.336 210.784 118.662 214.078 102.576C211.618 102.103 209.13 101.789 206.63 101.637C203.481 101.455 200.326 101.455 197.177 101.637C195.019 101.854 192.88 102.24 190.782 102.791Z" fill="white"/>
<path opacity="0.2" d="M195.27 109.425C194.263 106.402 191.84 105.434 189.372 107.229C188.874 110.161 188.523 114.887 188.925 122.381L193.266 122.341C193.266 122.341 196.759 113.924 195.27 109.425Z" fill="black"/>
<path d="M194.455 108.185C194.274 109.702 194.025 111.077 193.747 112.509C193.47 113.941 193.148 115.339 192.78 116.749C192.053 119.629 191.064 122.437 189.825 125.137C189.502 125.833 189.129 126.518 188.733 127.203C188.529 127.548 188.325 127.893 188.093 128.233C187.792 128.705 187.437 129.14 187.035 129.529C186.254 130.253 185.328 130.803 184.318 131.142C183.498 131.429 182.65 131.629 181.788 131.736C180.25 131.927 178.695 131.946 177.152 131.793C176.398 131.733 175.662 131.637 174.945 131.504C174.209 131.374 173.513 131.238 172.755 131.04L173.122 127.939C175.706 127.83 178.271 127.451 180.775 126.807C181.284 126.656 181.779 126.459 182.252 126.218C182.563 126.075 182.835 125.86 183.044 125.59C182.999 125.629 183.412 124.944 183.656 124.458C183.899 123.971 184.171 123.326 184.403 122.76C184.878 121.594 185.286 120.36 185.659 119.098C186.033 117.836 186.361 116.551 186.667 115.249C186.972 113.947 187.233 112.634 187.516 111.287C187.799 109.94 188.003 108.604 188.206 107.353L194.455 108.185Z" fill="#7F3E3B"/>
<path d="M196.34 105.842C197.511 109.64 192.757 120.96 192.757 120.96L182.744 118.441C183.357 114.863 184.389 111.37 185.818 108.032C189.044 100.969 194.93 101.263 196.34 105.842Z" fill="#B46669"/>
<path opacity="0.3" d="M196.34 105.842C197.511 109.64 192.757 120.96 192.757 120.96L182.744 118.441C183.357 114.863 184.389 111.37 185.818 108.032C189.044 100.969 194.93 101.263 196.34 105.842Z" fill="white"/>
<path d="M173.264 127.956L168.555 127.837L170.819 132.733C170.819 132.733 172.732 132.987 174.305 130.401L175.964 128.425L174.056 128.04C173.795 127.99 173.53 127.961 173.264 127.956Z" fill="#7F3E3B"/>
<path d="M165.583 128.748L168.283 132.806L170.824 132.733L168.555 127.837L165.583 128.748Z" fill="#7F3E3B"/>
<path opacity="0.2" d="M189.638 221.719L189.848 226.683H194.008L193.793 221.719H189.638Z" fill="black"/>
<path opacity="0.2" d="M224.17 206.539L220.921 209.137L225.177 212.092L228.426 209.494L224.17 206.539Z" fill="black"/>
<path d="M205.458 87.73C205.209 91.8505 205.277 94.273 203.194 96.3898C200.07 99.5707 194.981 97.6916 193.996 93.5598C193.108 89.8582 193.668 83.7454 197.698 82.0983C198.587 81.7307 199.555 81.5971 200.51 81.7101C201.465 81.8231 202.375 82.179 203.153 82.7438C203.931 83.3087 204.552 84.0636 204.955 84.9365C205.359 85.8094 205.532 86.7712 205.458 87.73Z" fill="#7F3E3B"/>
<path d="M208.786 83.9038C208.786 83.9038 210.954 84.5491 210.275 87.0225C209.25 90.7807 206.839 95.105 203.726 95.3766C199.849 95.7219 198.1 91.7203 197.591 87.5828C195.27 85.9924 193.549 84.5038 194.104 82.8511C194.953 80.3041 198.032 78.108 202.934 78.674C207.835 79.24 210.275 82.4096 208.786 83.9038Z" fill="#263238"/>
<path d="M199.951 88.4319C199.876 89.4538 199.466 90.4225 198.785 91.1883C197.879 92.1844 196.928 91.5618 196.77 90.3506C196.628 89.2526 196.923 87.413 198.032 86.864C199.141 86.315 200.024 87.198 199.951 88.4319Z" fill="#7F3E3B"/>
<path d="M198.423 138.732C198.423 138.732 197.019 166.761 199.753 178.635C204.083 197.438 223.117 212.505 223.117 212.505L229.23 207.609C229.23 207.609 213.569 195.955 212.159 180.299C210.897 166.24 212.765 150.092 212.765 138.732H198.423Z" fill="#B46669"/>
<path opacity="0.2" d="M198.423 138.732C198.423 138.732 197.019 166.761 199.753 178.635C204.083 197.438 223.117 212.505 223.117 212.505L229.23 207.609C229.23 207.609 213.569 195.955 212.159 180.299C210.897 166.24 212.765 150.092 212.765 138.732H198.423Z" fill="black"/>
<path opacity="0.2" d="M200.511 147.035C199.945 145.943 198.842 149.198 198.072 153.375C198.072 159.137 198.174 165.691 198.677 171.243C202.521 164.14 201.706 149.299 200.511 147.035Z" fill="black"/>
<path d="M220.344 211.299L222.664 213.099L229.722 207.377L227.606 205.458L220.344 211.299Z" fill="#905254"/>
<path opacity="0.4" d="M220.344 211.299L222.664 213.099L229.722 207.377L227.606 205.458L220.344 211.299Z" fill="#FAFAFA"/>
<path d="M190.533 138.732C190.533 138.732 184.273 165.278 183.831 177.956C183.339 192.18 188.297 225.721 188.297 225.721H195.344C195.344 225.721 196.21 191.919 196.527 178.964C196.866 164.842 205.152 138.732 205.152 138.732H190.533Z" fill="#B46669"/>
<path opacity="0.2" d="M190.533 138.732C190.533 138.732 184.273 165.278 183.831 177.956C183.339 192.18 188.297 225.721 188.297 225.721H195.344C195.344 225.721 196.21 191.919 196.527 178.964C196.866 164.842 205.152 138.732 205.152 138.732H190.533Z" fill="black"/>
<path d="M186.944 222.913C186.91 222.913 187.34 225.84 187.34 225.84H195.91L196.142 223.23L186.944 222.913Z" fill="#905254"/>
<path opacity="0.4" d="M186.944 222.913C186.91 222.913 187.34 225.84 187.34 225.84H195.91L196.142 223.23L186.944 222.913Z" fill="#FAFAFA"/>
</svg>
