<svg width="24" height="25" viewBox="0 0 24 25" fill="none" xmlns="http://www.w3.org/2000/svg">
<g clip-path="url(#clip0_462_1800)">
<path d="M6.201 21.5H1.84725V7.4795H6.201V21.5ZM4.0215 5.567C2.6295 5.567 1.5 4.4135 1.5 3.0215C1.5 2.35276 1.76566 1.7114 2.23853 1.23853C2.7114 0.765657 3.35276 0.5 4.0215 0.5C4.69024 0.5 5.3316 0.765657 5.80447 1.23853C6.27734 1.7114 6.543 2.35276 6.543 3.0215C6.543 4.4135 5.4135 5.567 4.0215 5.567ZM22.4955 21.5H18.1515V14.675C18.1515 13.0483 18.1185 10.9625 15.888 10.9625C13.6245 10.9625 13.2772 12.7295 13.2772 14.558V21.5H8.928V7.4795H13.1033V9.392H13.164C13.7452 8.29025 15.165 7.12775 17.283 7.12775C21.6893 7.12775 22.4993 10.0295 22.4993 13.7983V21.5H22.4955Z" fill="#0A66C2"/>
</g>
<defs>
<clipPath id="clip0_462_1800">
<rect width="24" height="24" fill="white" transform="translate(0 0.5)"/>
</clipPath>
</defs>
</svg>
