<svg width="17" height="16" viewBox="0 0 17 16" fill="none" xmlns="http://www.w3.org/2000/svg">
<path d="M8.49968 14C7.65763 13.2817 6.87714 12.4943 6.16634 11.646C5.09968 10.372 3.83301 8.47466 3.83301 6.66666C3.83255 5.7433 4.10601 4.84055 4.6188 4.07267C5.13159 3.30479 5.86066 2.7063 6.71372 2.35292C7.56679 1.99955 8.50551 1.90718 9.41109 2.08752C10.3167 2.26785 11.1484 2.71278 11.801 3.36599C12.2355 3.79856 12.5799 4.31301 12.8143 4.87957C13.0486 5.44613 13.1683 6.05354 13.1663 6.66666C13.1663 8.47466 11.8997 10.372 10.833 11.646C10.1222 12.4943 9.34171 13.2817 8.49968 14ZM8.49968 4.66666C7.96924 4.66666 7.46053 4.87737 7.08546 5.25244C6.71039 5.62752 6.49968 6.13622 6.49968 6.66666C6.49968 7.19709 6.71039 7.7058 7.08546 8.08087C7.46053 8.45594 7.96924 8.66666 8.49968 8.66666C9.03011 8.66666 9.53882 8.45594 9.91389 8.08087C10.289 7.7058 10.4997 7.19709 10.4997 6.66666C10.4997 6.13622 10.289 5.62752 9.91389 5.25244C9.53882 4.87737 9.03011 4.66666 8.49968 4.66666Z" fill="white"/>
</svg>
