<svg width="33" height="33" viewBox="0 0 33 33" fill="none" xmlns="http://www.w3.org/2000/svg">
<path d="M32.321 8.02604C32.321 6.78098 31.3023 5.7623 30.0572 5.7623H2.94294C1.69788 5.7623 0.679199 6.78098 0.679199 8.02604V24.974C0.679199 26.2191 1.69788 27.2378 2.94294 27.2378H30.0572C31.3023 27.2378 32.321 26.2191 32.321 24.974V8.02604Z" fill="#C3C6C8"/>
<path d="M16.5001 14.2102L0.679199 24.3311V24.974C0.679199 26.219 1.69788 27.2377 2.94294 27.2377H30.0572C31.3023 27.2377 32.321 26.219 32.321 24.974V24.3311L16.5001 14.2102Z" fill="#E8E8E8"/>
<path d="M16.5001 18.7899L32.321 8.66885V8.02595C32.321 6.78089 31.3023 5.76221 30.0572 5.76221H2.94294C1.69788 5.76221 0.679199 6.78089 0.679199 8.02595V8.66885L16.5001 18.7899Z" fill="#E8E8E8"/>
<path d="M32.1994 7.29785L16.5001 17.3411L0.800807 7.29785C0.722391 7.52676 0.679199 7.77152 0.679199 8.02605V8.66895L16.5001 18.7899L32.321 8.66886V8.02596C32.321 7.77152 32.2779 7.52676 32.1994 7.29785Z" fill="#005CB9"/>
<path d="M30.0571 5H2.94286C1.32021 5 0 6.32021 0 7.94286V24.8909C0 26.5135 1.32021 27.8337 2.94286 27.8337H30.0571C31.6799 27.8337 33 26.5135 33 24.8909V7.94286C33 6.32012 31.6799 5 30.0571 5ZM1.35824 9.82639L11.6603 16.4169L1.35824 23.0073V9.82639ZM31.6418 24.8909C31.6418 25.7646 30.9308 26.4755 30.0571 26.4755H2.94286C2.06915 26.4755 1.35824 25.7646 1.35824 24.8909V24.6198L12.9205 17.223L16.134 19.2788C16.2455 19.3501 16.3727 19.3858 16.5 19.3858C16.6272 19.3858 16.7544 19.3501 16.866 19.2788L20.0793 17.2231L31.6417 24.6198V24.8909H31.6418ZM31.6418 23.0072L21.3397 16.4168L31.6418 9.8263V23.0072ZM31.6418 8.21397L16.5 17.9004L1.35824 8.21397V7.94286C1.35824 7.06915 2.06915 6.35824 2.94286 6.35824H30.0571C30.9308 6.35824 31.6418 7.06915 31.6418 7.94286V8.21397Z" fill="#071C2C"/>
</svg>
