<svg width="16" height="16" viewBox="0 0 16 16" fill="none" xmlns="http://www.w3.org/2000/svg">
<path fill-rule="evenodd" clip-rule="evenodd" d="M8.01293 2C6.50727 2 5.13527 2.49733 4.3236 2.90367C4.25027 2.94033 4.18193 2.97633 4.11827 3.011C3.99227 3.07967 3.88493 3.14367 3.7996 3.2L4.72293 4.55933L5.1576 4.73233C6.85627 5.58933 9.13426 5.58933 10.8333 4.73233L11.3266 4.47633L12.1999 3.2C12.019 3.082 11.8309 2.97546 11.6366 2.881C10.8293 2.479 9.49026 2 8.01293 2ZM5.86527 3.53867C5.5383 3.47748 5.21537 3.39644 4.89827 3.296C5.6586 2.95833 6.79193 2.6 8.0126 2.6C8.85826 2.6 9.65793 2.772 10.3193 2.99C9.54426 3.099 8.71726 3.284 7.92926 3.51167C7.30926 3.691 6.5846 3.67167 5.86527 3.53867ZM11.1853 5.22667L11.1036 5.268C9.2346 6.21067 6.75593 6.21067 4.88693 5.268L4.8096 5.22867C2.00227 8.309 -0.141066 13.999 8.01293 13.999C16.1663 13.999 13.9706 8.20267 11.1853 5.22667ZM7.66627 8C7.48945 8 7.31988 8.07024 7.19486 8.19526C7.06984 8.32029 6.9996 8.48986 6.9996 8.66667C6.9996 8.84348 7.06984 9.01305 7.19486 9.13807C7.31988 9.2631 7.48945 9.33333 7.66627 9.33333V8ZM8.33293 7.33333V7H7.66627V7.33333C7.31264 7.33333 6.9735 7.47381 6.72346 7.72386C6.47341 7.97391 6.33293 8.31305 6.33293 8.66667C6.33293 9.02029 6.47341 9.35943 6.72346 9.60948C6.9735 9.85952 7.31264 10 7.66627 10V11.3333C7.37627 11.3333 7.12927 11.1483 7.0376 10.889C7.00816 10.8056 6.94681 10.7374 6.86704 10.6992C6.78728 10.6611 6.69563 10.6562 6.61227 10.6857C6.5289 10.7151 6.46064 10.7765 6.42251 10.8562C6.38438 10.936 6.37949 11.0276 6.40893 11.111C6.50088 11.371 6.67116 11.5961 6.89633 11.7553C7.1215 11.9145 7.39049 12 7.66627 12V12.3333H8.33293V12C8.68655 12 9.02569 11.8595 9.27574 11.6095C9.52579 11.3594 9.66626 11.0203 9.66626 10.6667C9.66626 10.313 9.52579 9.97391 9.27574 9.72386C9.02569 9.47381 8.68655 9.33333 8.33293 9.33333V8C8.62293 8 8.86993 8.185 8.96193 8.44433C8.97558 8.48676 8.9976 8.52602 9.02669 8.55979C9.05578 8.59356 9.09134 8.62115 9.13128 8.64094C9.17122 8.66073 9.21472 8.6723 9.2592 8.67498C9.30369 8.67766 9.34827 8.67139 9.39029 8.65654C9.43232 8.6417 9.47094 8.61857 9.50387 8.58854C9.5368 8.5585 9.56337 8.52217 9.58202 8.48169C9.60066 8.4412 9.611 8.39739 9.61241 8.35285C9.61383 8.3083 9.6063 8.26392 9.59026 8.22233C9.49832 7.96234 9.32804 7.73725 9.10286 7.57804C8.87769 7.41883 8.6087 7.33334 8.33293 7.33333ZM8.33293 10V11.3333C8.50974 11.3333 8.67931 11.2631 8.80434 11.1381C8.92936 11.013 8.9996 10.8435 8.9996 10.6667C8.9996 10.4899 8.92936 10.3203 8.80434 10.1953C8.67931 10.0702 8.50974 10 8.33293 10Z" fill="#C4C4C4"/>
</svg>
