<svg width="32" height="32" viewBox="0 0 32 32" fill="none" xmlns="http://www.w3.org/2000/svg">
<path d="M15.9997 29.3333C17.4663 29.3333 18.6663 28.1333 18.6663 26.6667H13.333C13.333 27.3739 13.614 28.0522 14.1141 28.5523C14.6142 29.0524 15.2924 29.3333 15.9997 29.3333ZM23.9997 21.3333V14.6667C23.9997 10.5733 21.813 7.14668 17.9997 6.24001V5.33334C17.9997 4.22668 17.1063 3.33334 15.9997 3.33334C14.893 3.33334 13.9997 4.22668 13.9997 5.33334V6.24001C10.173 7.14668 7.99967 10.56 7.99967 14.6667V21.3333L5.33301 24V25.3333H26.6663V24L23.9997 21.3333Z" fill="white"/>
<rect x="15" y="1" width="16" height="16" rx="8" fill="#E1473D"/>
<path d="M25.3906 13H20.4004V11.9502L22.1924 10.1387C22.723 9.59505 23.0697 9.21908 23.2324 9.01074C23.3952 8.79915 23.5124 8.60384 23.584 8.4248C23.6556 8.24577 23.6914 8.06022 23.6914 7.86816C23.6914 7.58171 23.6117 7.36849 23.4521 7.22852C23.2959 7.08854 23.0859 7.01855 22.8223 7.01855C22.5456 7.01855 22.277 7.08203 22.0166 7.20898C21.7562 7.33594 21.4844 7.5166 21.2012 7.75098L20.3809 6.7793C20.7324 6.47982 21.0238 6.26823 21.2549 6.14453C21.486 6.02083 21.7383 5.92643 22.0117 5.86133C22.2852 5.79297 22.5911 5.75879 22.9297 5.75879C23.3757 5.75879 23.7695 5.84017 24.1113 6.00293C24.4531 6.16569 24.7184 6.39355 24.9072 6.68652C25.096 6.97949 25.1904 7.31478 25.1904 7.69238C25.1904 8.02116 25.1318 8.3304 25.0146 8.62012C24.9007 8.90658 24.7217 9.20117 24.4775 9.50391C24.2367 9.80664 23.8102 10.238 23.1982 10.7979L22.2803 11.6621V11.7305H25.3906V13Z" fill="white"/>
</svg>
