<svg width="144" height="144" viewBox="0 0 144 144" fill="none" xmlns="http://www.w3.org/2000/svg">
<g clip-path="url(#clip0_606_4221)">
<path d="M114.776 15.3731V20.761H30.1396V15.3731C30.1396 8.505 35.7042 2.93878 42.5712 2.93878H102.345C109.209 2.93878 114.776 8.50472 114.776 15.3731Z" fill="#3F5968"/>
<path d="M43.0209 122.496H114.776V128.627C114.776 135.495 109.209 141.061 102.345 141.061H42.5712C35.7042 141.062 30.1396 135.496 30.1396 128.627V122.496H43.0209V122.496Z" fill="#3F5968"/>
<path d="M114.776 20.7596H30.1396V122.494H114.776V20.7596Z" fill="white"/>
<path d="M101.934 0H42.1608C33.6857 0 26.7905 6.89653 26.7905 15.3731V20.761V122.496V128.627C26.7905 137.104 33.6857 144 42.1608 144H101.934C110.41 144 117.305 137.104 117.305 128.627V122.496V20.761V15.3731C117.305 6.89653 110.41 0 101.934 0ZM32.6681 23.6998H111.427V119.557H32.6681V23.6998ZM32.6681 15.3731C32.6681 10.1374 36.9265 5.87756 42.1608 5.87756H101.934C107.169 5.87756 111.427 10.1374 111.427 15.3731V17.8223H32.6681V15.3731ZM111.427 128.627C111.427 133.863 107.169 138.122 101.934 138.122H42.1608C36.9262 138.122 32.6681 133.863 32.6681 128.627V125.435H111.427V128.627H111.427Z" fill="black"/>
<path d="M71.6173 137.536C74.7917 137.536 77.3744 134.953 77.3744 131.778C77.3744 128.603 74.7917 126.02 71.6173 126.02C68.4428 126.02 65.8604 128.603 65.8604 131.778C65.8604 134.953 68.4428 137.536 71.6173 137.536ZM71.6173 131.658C71.6839 131.658 71.7379 131.712 71.7379 131.778C71.7379 131.844 71.6836 131.898 71.6173 131.898C71.5509 131.898 71.4969 131.844 71.4969 131.778C71.4969 131.712 71.5506 131.658 71.6173 131.658Z" fill="black"/>
<path d="M45.2266 68.7656L44.7812 72.8906L48.9531 71.707L49.3867 75.1641L45.707 75.4102L48.1328 78.668L45.0859 80.2852L43.4102 76.9688L41.9688 80.2617L38.7812 78.668L41.1953 75.4102L37.5273 75.1172L38.0547 71.707L42.1328 72.8906L41.6758 68.7656H45.2266Z" fill="black"/>
<path d="M64.2266 68.7656L63.7812 72.8906L67.9531 71.707L68.3867 75.1641L64.707 75.4102L67.1328 78.668L64.0859 80.2852L62.4102 76.9688L60.9688 80.2617L57.7812 78.668L60.1953 75.4102L56.5273 75.1172L57.0547 71.707L61.1328 72.8906L60.6758 68.7656H64.2266Z" fill="black"/>
<path d="M83.2266 68.7656L82.7812 72.8906L86.9531 71.707L87.3867 75.1641L83.707 75.4102L86.1328 78.668L83.0859 80.2852L81.4102 76.9688L79.9688 80.2617L76.7812 78.668L79.1953 75.4102L75.5273 75.1172L76.0547 71.707L80.1328 72.8906L79.6758 68.7656H83.2266Z" fill="black"/>
<path d="M102.227 68.7656L101.781 72.8906L105.953 71.707L106.387 75.1641L102.707 75.4102L105.133 78.668L102.086 80.2852L100.41 76.9688L98.9688 80.2617L95.7812 78.668L98.1953 75.4102L94.5273 75.1172L95.0547 71.707L99.1328 72.8906L98.6758 68.7656H102.227Z" fill="black"/>
</g>
<defs>
<clipPath id="clip0_606_4221">
<rect width="144" height="144" fill="white"/>
</clipPath>
</defs>
</svg>
