<svg width="15" height="15" viewBox="0 0 15 15" fill="none" xmlns="http://www.w3.org/2000/svg">
<path d="M14.2167 3.43387L14.1972 2.97582L13.7412 2.92898C11.9894 2.74907 10.4834 2.09535 9.52842 1.57862C8.48252 1.01267 7.84852 0.481707 7.8427 0.476807L7.50031 0.1875L7.1577 0.476389C7.1514 0.481691 6.51741 1.01267 5.47152 1.57861C4.51658 2.09533 3.01059 2.74906 1.25878 2.92897L0.802701 2.9758L0.783229 3.43385C0.779742 3.51586 0.70648 5.46943 1.45896 7.83502C1.90299 9.23098 2.54423 10.4817 3.36487 11.5527C4.39535 12.8975 5.70972 13.9575 7.27148 14.7034L7.49996 14.8125L7.72844 14.7034C9.2902 13.9575 10.6046 12.8975 11.6351 11.5527C12.4557 10.4818 13.0969 9.23097 13.541 7.83504C14.2934 5.46946 14.2202 3.51589 14.2167 3.43387ZM7.49996 13.6339C6.19706 12.9718 5.09433 12.0612 4.21931 10.9244C3.47394 9.95599 2.88882 8.81973 2.48016 7.54723C1.98069 5.99187 1.86867 4.60477 1.846 3.92365C2.54866 3.81932 3.25902 3.64376 3.96408 3.39994C4.65332 3.16158 5.33933 2.85767 6.00301 2.49667C6.67643 2.13039 7.18887 1.78054 7.49994 1.55178C7.81102 1.78053 8.32347 2.13039 8.99689 2.49667C9.66058 2.85768 10.3466 3.16158 11.0358 3.39994C11.7411 3.64384 12.4516 3.8194 13.1545 3.92373C13.1327 4.59817 13.0229 5.96573 12.5304 7.51365C12.1237 8.79243 11.5393 9.9344 10.7934 10.9078C9.91624 12.0524 8.80919 12.9686 7.49996 13.6339Z" fill="#F8CC32"/>
<path d="M10.3895 5.088L9.64974 5.82776L6.89274 8.58478L5.49546 7.1875L5.30546 6.9975L4.93057 7.37239V7.37241L4.55566 7.74732L6.89274 10.0844L11.1393 5.83781L10.3895 5.088Z" fill="#F8CC32"/>
</svg>
