<svg width="24" height="24" viewBox="0 0 24 24" fill="none" xmlns="http://www.w3.org/2000/svg">
<path d="M18.9519 18.3499L13.758 13.156C14.564 12.114 14.9999 10.84 14.9999 9.49997C14.9999 7.89598 14.374 6.39199 13.242 5.25799C12.11 4.124 10.602 3.5 8.99997 3.5C7.39798 3.5 5.88999 4.126 4.75799 5.25799C3.624 6.38999 3 7.89598 3 9.49997C3 11.102 3.626 12.61 4.75799 13.742C5.88999 14.876 7.39598 15.4999 8.99997 15.4999C10.34 15.4999 11.612 15.064 12.654 14.26L17.8479 19.4519C17.8632 19.4672 17.8812 19.4793 17.9012 19.4875C17.9211 19.4958 17.9424 19.5 17.9639 19.5C17.9855 19.5 18.0068 19.4958 18.0267 19.4875C18.0466 19.4793 18.0647 19.4672 18.0799 19.4519L18.9519 18.5819C18.9672 18.5667 18.9793 18.5486 18.9875 18.5287C18.9958 18.5088 19 18.4875 19 18.4659C19 18.4444 18.9958 18.4231 18.9875 18.4032C18.9793 18.3833 18.9672 18.3652 18.9519 18.3499ZM12.168 12.668C11.32 13.514 10.196 13.98 8.99997 13.98C7.80398 13.98 6.67998 13.514 5.83199 12.668C4.98599 11.82 4.51999 10.696 4.51999 9.49997C4.51999 8.30398 4.98599 7.17798 5.83199 6.33199C6.67998 5.48599 7.80398 5.01999 8.99997 5.01999C10.196 5.01999 11.322 5.48399 12.168 6.33199C13.014 7.17998 13.48 8.30398 13.48 9.49997C13.48 10.696 13.014 11.822 12.168 12.668Z" fill="#A7A7A7"/>
</svg>
