<svg width="38" height="36" viewBox="0 0 38 36" fill="none" xmlns="http://www.w3.org/2000/svg">
<path d="M2.9554 0.356238L36.0654 16.1931C36.3996 16.3531 36.6818 16.6043 36.8793 16.9178C37.0768 17.2313 37.1816 17.5943 37.1816 17.9649C37.1816 18.3354 37.0768 18.6984 36.8793 19.0119C36.6818 19.3254 36.3996 19.5767 36.0654 19.7367L2.9554 35.5735C2.61584 35.7363 2.23665 35.798 1.86299 35.7514C1.48934 35.7047 1.13697 35.5516 0.847851 35.3104C0.558735 35.0691 0.345059 34.7498 0.232271 34.3905C0.119484 34.0313 0.11234 33.6472 0.21169 33.2839L3.52426 21.1399C3.56481 20.9911 3.64827 20.8575 3.76424 20.7558C3.88021 20.6541 4.02356 20.5887 4.1764 20.568L20.2207 18.3884C20.2876 18.379 20.3509 18.3525 20.4046 18.3115C20.4583 18.2705 20.5005 18.2163 20.5271 18.1542L20.5554 18.0552C20.5678 17.9675 20.5502 17.8782 20.5054 17.8017C20.4606 17.7253 20.3913 17.6662 20.3087 17.6341L20.2223 17.6105L4.19369 15.4325C4.04112 15.4114 3.89812 15.346 3.78245 15.2443C3.66679 15.1426 3.58356 15.0091 3.54312 14.8605L0.21169 2.64581C0.11234 2.28259 0.119484 1.89848 0.232271 1.53921C0.345059 1.17994 0.558735 0.860661 0.847851 0.6194C1.13697 0.378139 1.48934 0.225063 1.86299 0.178407C2.23665 0.13175 2.61584 0.193478 2.9554 0.356238Z" fill="#2C4EA6"/>
</svg>
