<svg width="32" height="32" viewBox="0 0 32 32" fill="none" xmlns="http://www.w3.org/2000/svg">
<path d="M15.9998 2.66666C8.64784 2.66666 2.6665 8.64799 2.6665 16C2.6665 23.352 8.64784 29.3333 15.9998 29.3333C23.3518 29.3333 29.3332 23.352 29.3332 16C29.3332 8.64799 23.3518 2.66666 15.9998 2.66666ZM15.9998 26.6667C10.1185 26.6667 5.33317 21.8813 5.33317 16C5.33317 10.1187 10.1185 5.33332 15.9998 5.33332C21.8812 5.33332 26.6665 10.1187 26.6665 16C26.6665 21.8813 21.8812 26.6667 15.9998 26.6667Z" fill="#C4C4C4"/>
<path d="M19.7724 19.7704C19.285 20.2562 18.7094 20.6445 18.0764 20.9144C16.9368 21.3956 15.6654 21.4658 14.4798 21.1131C13.2941 20.7605 12.2678 20.0068 11.5764 18.9811L9.36572 20.4731C9.9423 21.324 10.6759 22.0571 11.5271 22.6331C12.3933 23.2189 13.3665 23.628 14.3911 23.8371C15.4535 24.0538 16.5487 24.0538 17.6111 23.8371C18.6355 23.6277 19.6087 23.2186 20.4751 22.6331C20.8924 22.3504 21.2911 22.0224 21.6564 21.6584C22.0191 21.2971 22.3497 20.8971 22.6351 20.4731L20.4244 18.9811C20.2328 19.2644 20.0144 19.5288 19.7724 19.7704Z" fill="#C4C4C4"/>
<path d="M11.3335 16C12.4381 16 13.3335 15.1046 13.3335 14C13.3335 12.8954 12.4381 12 11.3335 12C10.2289 12 9.3335 12.8954 9.3335 14C9.3335 15.1046 10.2289 16 11.3335 16Z" fill="#C4C4C4"/>
<path d="M20.6572 15.9813C21.7566 15.9813 22.6478 15.0901 22.6478 13.9907C22.6478 12.8913 21.7566 12 20.6572 12C19.5578 12 18.6665 12.8913 18.6665 13.9907C18.6665 15.0901 19.5578 15.9813 20.6572 15.9813Z" fill="#C4C4C4"/>
</svg>
