<svg width="42" height="42" viewBox="0 0 42 42" fill="none" xmlns="http://www.w3.org/2000/svg">
<path d="M26.0068 14.6448L26.2433 15.1862L26.8316 15.2402L36.676 16.1453C36.6761 16.1454 36.6763 16.1454 36.6764 16.1454C36.8183 16.1586 36.9533 16.213 37.0646 16.302C37.1759 16.3909 37.2588 16.5104 37.303 16.6458C37.3929 16.9243 37.3094 17.2276 37.0904 17.4207C37.0903 17.4208 37.0902 17.4209 37.09 17.421L29.1627 24.3791L28.6934 24.791L28.8576 25.3935L31.8813 36.4926C31.8814 36.4931 31.8815 36.4936 31.8817 36.494C31.92 36.6377 31.9136 36.7896 31.8633 36.9296C31.8128 37.07 31.7205 37.1915 31.5989 37.2779C31.4773 37.3643 31.3321 37.4114 31.1829 37.4128C31.034 37.4142 30.8882 37.3701 30.7651 37.2864C30.7649 37.2862 30.7646 37.286 30.7644 37.2859L21.4315 30.8956L20.8815 30.5189L20.3222 30.8818L10.8323 37.04L10.8312 37.0407C10.7088 37.1204 10.5652 37.1614 10.4192 37.1585C10.2731 37.1556 10.1313 37.1088 10.0121 37.0243C9.89299 36.9398 9.80199 36.8214 9.75095 36.6845C9.69991 36.5476 9.69119 36.3986 9.72592 36.2567L9.72608 36.256L12.4399 25.1351L12.5733 24.5884L12.1752 24.1907L4.98066 17.0011L4.9806 17.0011C4.88154 16.9021 4.8131 16.7767 4.78345 16.6399C4.75381 16.503 4.76421 16.3605 4.81342 16.2294C4.86264 16.0984 4.94857 15.9842 5.06095 15.9007L4.46443 15.0981L5.06095 15.9007C5.17333 15.8172 5.30739 15.7678 5.4471 15.7585L5.44734 15.7585L15.3117 15.0975L15.9012 15.058L16.151 14.5226L20.5324 5.13394L20.5337 5.13118C20.5925 5.00414 20.6869 4.89684 20.8053 4.82223C20.9238 4.74761 21.0613 4.70887 21.2012 4.71068C21.3412 4.71249 21.4777 4.75478 21.5942 4.83243C21.7107 4.91009 21.8022 5.0198 21.8577 5.14832L21.8594 5.15218L26.0068 14.6448Z" fill="white" stroke="#F9B54C" stroke-width="2"/>
</svg>
