<svg width="65" height="65" viewBox="0 0 65 65" fill="none" xmlns="http://www.w3.org/2000/svg">
<path d="M32.4996 63.6735C49.7163 63.6735 63.6731 49.7166 63.6731 32.5C63.6731 15.2834 49.7163 1.32654 32.4996 1.32654C15.283 1.32654 1.32617 15.2834 1.32617 32.5C1.32617 49.7166 15.283 63.6735 32.4996 63.6735Z" fill="#ECF0F1"/>
<path d="M30.1123 47.5782C29.4333 47.5782 28.7543 47.3191 28.2364 46.8011L16.0322 34.597L19.7842 30.845L30.1123 41.1731L51.7601 19.5254L55.5121 23.2774L31.9883 46.8011C31.4702 47.3192 30.7914 47.5782 30.1123 47.5782Z" fill="#56ACE0"/>
<path d="M55.4809 9.51907C49.3426 3.38051 41.1811 0 32.5 0C23.8189 0 15.6574 3.38051 9.51907 9.51907C3.38076 15.6576 0 23.8189 0 32.5C0 41.1811 3.38051 49.3426 9.51907 55.4809C15.6576 61.6192 23.8189 65 32.5 65C41.1811 65 49.3426 61.6195 55.4809 55.4809C61.6192 49.3424 65 41.1811 65 32.5C65 23.8189 61.6195 15.6574 55.4809 9.51907ZM32.5 62.3469C16.0424 62.3469 2.65307 48.9576 2.65307 32.5C2.65307 16.0424 16.0424 2.65307 32.5 2.65307C48.9576 2.65307 62.3469 16.0424 62.3469 32.5C62.3469 48.9576 48.9576 62.3469 32.5 62.3469Z" fill="#194F82"/>
<path d="M59.3293 28.0554C59.2095 27.3326 58.5262 26.844 57.8037 26.9639C57.081 27.0837 56.5923 27.7668 56.7122 28.4894C56.93 29.8032 57.0405 31.1525 57.0405 32.5C57.0405 46.0318 46.0315 57.0408 32.4997 57.0408C18.9679 57.0408 7.95873 46.0318 7.95873 32.5C7.95873 18.9682 18.9677 7.95922 32.4995 7.95922C38.7394 7.95922 44.6901 10.3129 49.2557 14.5867C49.7906 15.0871 50.63 15.0596 51.1307 14.5247C51.6312 13.9899 51.6036 13.1505 51.0688 12.6498C46.0099 7.91428 39.4152 5.30615 32.4995 5.30615C17.5047 5.30615 5.30566 17.5052 5.30566 32.5C5.30566 47.4948 17.5047 59.6939 32.4995 59.6939C47.4944 59.6939 59.6934 47.4948 59.6934 32.5C59.6934 31.0076 59.571 29.5122 59.3293 28.0554Z" fill="#194F82"/>
<path d="M30.4067 39.098L21.0166 29.7079C20.4986 29.1899 19.6585 29.1899 19.1405 29.7079L15.3885 33.4598C14.8705 33.9778 14.8705 34.8179 15.3885 35.336L27.5926 47.5401C28.3442 48.2917 29.3437 48.7056 30.4065 48.7056C31.4695 48.7056 32.4689 48.2917 33.2204 47.5401L56.7442 24.0163C56.9929 23.7676 57.1327 23.4302 57.1327 23.0784C57.1327 22.7266 56.9929 22.3892 56.7442 22.1405L52.9922 18.3885C52.4743 17.8705 51.6341 17.8705 51.1163 18.3885L30.4067 39.098ZM52.0544 21.2021L53.9304 23.0781L31.3446 45.6639C31.094 45.9145 30.7609 46.0525 30.4067 46.0525C30.0523 46.0525 29.7192 45.9145 29.4687 45.6639L18.2026 34.3979L20.0786 32.5219L29.4687 41.912C29.9867 42.43 30.8267 42.43 31.3448 41.912L52.0544 21.2021Z" fill="#194F82"/>
</svg>
