<svg width="65" height="65" viewBox="0 0 65 65" fill="none" xmlns="http://www.w3.org/2000/svg">
<path d="M6.21973 31.5155L18.4228 36.9748L47.9242 16.0369C48.6628 15.5123 49.6797 15.6194 50.2899 16.2831C50.9 16.9467 50.9428 17.9636 50.3649 18.6595L28.0353 45.881L27.4465 55.4721L33.6551 47.615C34.1902 46.9405 35.143 46.7372 35.9031 47.1333L46.447 52.6247L60.3092 7.16286L6.21973 31.5155Z" fill="#56ACE0"/>
<path d="M64.3873 2.53857C63.8522 2.06765 63.0921 1.94976 62.4606 2.24963L1.05974 29.8777C0.406841 30.1667 0 30.809 0 31.5263C0 32.2434 0.417438 32.8857 1.05974 33.1748L17.8871 40.7108C18.4651 40.9677 19.1502 40.9035 19.664 40.5288L39.0282 26.8056L24.8771 44.0504C24.6308 44.3394 24.4918 44.7033 24.4702 45.0888L23.4855 61.017C23.432 61.8092 23.9029 62.5263 24.6416 62.8047C25.4338 63.0936 26.3221 62.7833 26.6968 62.2374L35.5495 51.0406L46.6928 56.8531C47.1637 57.0993 47.7312 57.1207 48.2235 56.9173C48.7265 56.714 49.0905 56.2858 49.2511 55.7826L64.9223 4.412C65.1258 3.73741 64.9225 3.0095 64.3873 2.53857ZM46.4466 52.6353L35.9027 47.1439C35.1319 46.7478 34.19 46.9511 33.6547 47.6256L27.4461 55.4827L28.0349 45.8916L50.3751 18.6809C50.9531 17.9744 50.9103 16.9683 50.3001 16.3044C49.6899 15.6408 48.673 15.5336 47.9344 16.0582L18.4223 36.996L6.19783 31.5367L60.2982 7.17361L46.4466 52.6353Z" fill="#194F82"/>
</svg>
