<svg width="123" height="87" viewBox="0 0 123 87" fill="none" xmlns="http://www.w3.org/2000/svg">
<circle cx="60.7199" cy="28.6728" r="27.8007" fill="#092C86"/>
<path d="M58.5602 9.69L46.0532 10.025C45.6065 10.037 45.869 10.36 46.0532 10.695C47.691 13.6729 51.1007 19.8296 51.6367 20.6336C52.1727 21.4376 52.865 21.3036 53.2 20.6336L58.5602 11.03C59.0068 10.2483 58.8952 9.80167 58.5602 9.69Z" fill="#F8CC32"/>
<path d="M51.234 24.4426C51.5247 23.1887 52.1357 22.867 52.4182 22.867C52.9542 22.867 53.3116 24.0581 53.4232 24.6537L57.6667 45.5358C58.1133 46.9652 57.1083 47.397 56.55 47.4342C53.6093 47.397 47.3038 47.3449 45.6064 47.4342C43.909 47.5236 44.0802 45.6103 44.378 44.6425L51.1205 24.8572C51.1667 24.7217 51.2016 24.5821 51.234 24.4426Z" fill="#F8CC32"/>
<path d="M67.4936 11.4767C69.0123 10.0473 70.5087 9.83884 71.067 9.91329C71.3585 9.91329 71.2965 10.5248 71.1802 11.0452C71.1157 11.334 71.0576 11.6282 70.9577 11.9067C70.3194 13.6858 67.0354 19.6301 65.0955 23.0422C64.9087 23.3708 64.6375 23.6392 64.4107 23.9416C64.0071 24.4797 64.187 24.9204 64.3669 25.1003C68.052 29.2321 75.7571 43.3024 76.6505 45.7591C77.3652 47.7245 76.3527 47.2481 75.7571 46.7642C69.7642 41.9252 57.5997 32.1355 56.885 31.6888C56.1703 31.2421 55.7683 30.3116 55.6567 29.9021L54.4816 24.454C54.4461 24.2896 54.3934 24.1288 54.3434 23.9682C53.8239 22.3013 54.9813 21.0601 55.6567 20.6335C58.9695 18.1768 65.9749 12.906 67.4936 11.4767Z" fill="#F8CC32"/>
<path d="M16.1472 86.7414H10.3813L6.64506 79.5146L5.13247 80.4196V86.7414H0V67.8405H5.13247V76.0499C5.39103 75.5413 5.91247 74.7355 6.69677 73.6323L10.6657 67.8405H16.2507L10.2908 76.3084L16.1472 86.7414Z" fill="black"/>
<path d="M31.7481 79.3853C31.7481 81.7813 31.1017 83.6516 29.8089 84.9961C28.5247 86.332 26.7234 87 24.4049 87C22.1813 87 20.4101 86.3148 19.0914 84.9444C17.7814 83.574 17.1264 81.721 17.1264 79.3853C17.1264 76.9979 17.7685 75.1449 19.0527 73.8262C20.3455 72.4989 22.1554 71.8353 24.4825 71.8353C25.9218 71.8353 27.1931 72.1412 28.2963 72.7532C29.3995 73.3651 30.2484 74.2442 30.8431 75.3905C31.4464 76.5282 31.7481 77.8598 31.7481 79.3853ZM22.2588 79.3853C22.2588 80.6437 22.4269 81.6046 22.763 82.2683C23.0992 82.9233 23.6637 83.2508 24.4566 83.2508C25.2409 83.2508 25.7925 82.9233 26.1114 82.2683C26.4389 81.6046 26.6027 80.6437 26.6027 79.3853C26.6027 78.1356 26.4389 77.1918 26.1114 76.5541C25.7839 75.9163 25.2237 75.5974 24.4308 75.5974C23.6551 75.5974 23.0992 75.9163 22.763 76.5541C22.4269 77.1832 22.2588 78.127 22.2588 79.3853Z" fill="black"/>
<path d="M43.742 86.7414V78.7518C43.742 77.7779 43.5998 77.0453 43.3154 76.5541C43.0396 76.0542 42.5914 75.8042 41.9708 75.8042C41.1176 75.8042 40.5013 76.1447 40.1221 76.8255C39.7429 77.5064 39.5533 78.6743 39.5533 80.3291V86.7414H34.4984V72.0938H38.3122L38.9457 73.9038H39.243C39.6739 73.2143 40.2686 72.6972 41.0271 72.3524C41.7942 72.0077 42.6733 71.8353 43.6644 71.8353C45.2847 71.8353 46.5431 72.305 47.4394 73.2444C48.3444 74.1839 48.7969 75.5069 48.7969 77.2134V86.7414H43.742Z" fill="black"/>
<path d="M59.2653 83.0052C59.9462 83.0052 60.7606 82.8371 61.7087 82.501V86.1855C61.0278 86.4786 60.3771 86.6854 59.7565 86.8061C59.1446 86.9353 58.4249 87 57.5975 87C55.8997 87 54.6758 86.5863 53.926 85.7589C53.1761 84.9229 52.8012 83.643 52.8012 81.9192V75.8818H51.03V73.8262L53.2795 72.2361L54.5853 69.1592H57.8949V72.0938H61.4889V75.8818H57.8949V81.5831C57.8949 82.5312 58.3517 83.0052 59.2653 83.0052Z" fill="black"/>
<path d="M72.9657 71.8353C73.4052 71.8353 73.8232 71.8698 74.2197 71.9387L74.5041 71.9904L74.0516 76.7609C73.6379 76.6575 73.0648 76.6058 72.3322 76.6058C71.229 76.6058 70.4275 76.86 69.9276 77.3685C69.4277 77.8684 69.1777 78.5924 69.1777 79.5405V86.7414H64.1228V72.0938H67.8849L68.6735 74.4338H68.9192C69.3415 73.6581 69.9276 73.0333 70.6774 72.5593C71.4359 72.0766 72.1986 71.8353 72.9657 71.8353Z" fill="black"/>
<path d="M85.968 86.7414L84.9984 84.8022H84.8949C84.2141 85.6468 83.5203 86.2243 82.8135 86.5346C82.1068 86.8448 81.1932 87 80.0727 87C78.6937 87 77.6078 86.5863 76.8149 85.7589C76.0219 84.9315 75.6255 83.768 75.6255 82.2683C75.6255 80.7083 76.1684 79.5491 77.2544 78.7906C78.3404 78.0236 79.9133 77.5926 81.9732 77.4978L84.4166 77.4202V77.2134C84.4166 76.0068 83.8219 75.4034 82.6325 75.4034C81.5638 75.4034 80.2063 75.7654 78.5602 76.4894L77.0993 73.154C78.8058 72.2748 80.9605 71.8353 83.5633 71.8353C85.4422 71.8353 86.8945 72.3007 87.9201 73.2315C88.9544 74.1623 89.4715 75.4638 89.4715 77.1358V86.7414H85.968ZM82.2188 83.4318C82.8307 83.4318 83.3522 83.2379 83.7831 82.8501C84.2227 82.4622 84.4425 81.958 84.4425 81.3375V80.1998L83.2789 80.2515C81.6155 80.3118 80.7838 80.9238 80.7838 82.0873C80.7838 82.9836 81.2621 83.4318 82.2188 83.4318Z" fill="black"/>
<path d="M99.4357 87C97.0397 87 95.2211 86.3536 93.98 85.0608C92.7475 83.768 92.1313 81.9106 92.1313 79.4887C92.1313 77.0582 92.7992 75.1751 94.1351 73.8391C95.4711 72.5032 97.3715 71.8353 99.8365 71.8353C101.534 71.8353 103.133 72.2059 104.633 72.9471L103.146 76.6833C102.534 76.4162 101.97 76.205 101.452 76.0499C100.935 75.8861 100.397 75.8042 99.8365 75.8042C99.0177 75.8042 98.3842 76.1231 97.936 76.7609C97.4878 77.3987 97.2638 78.2994 97.2638 79.4629C97.2638 81.8072 98.1299 82.9793 99.8623 82.9793C101.345 82.9793 102.767 82.5484 104.129 81.6865V85.7072C102.827 86.569 101.263 87 99.4357 87Z" fill="black"/>
<path d="M111.792 78.5062C112.404 77.5323 112.925 76.7738 113.356 76.2308L116.64 72.0938H122.276L117.196 78.3252L122.599 86.7414H116.821L113.614 81.4926L111.973 82.7466V86.7414H106.892V66.6252H111.973V74.5373C111.973 75.8904 111.878 77.2134 111.688 78.5062H111.792Z" fill="black"/>
</svg>
