<svg width="24" height="24" viewBox="0 0 24 24" fill="none" xmlns="http://www.w3.org/2000/svg">
<path d="M19.2004 7.19998H4.20039V6.59998L17.4004 5.54398V6.59998H19.2004V4.79998C19.2004 3.47998 18.1312 2.55358 16.8256 2.73958L4.77639 4.46038C3.46959 4.64758 2.40039 5.87998 2.40039 7.19998V19.2C2.40039 19.8365 2.65325 20.447 3.10333 20.897C3.55342 21.3471 4.16387 21.6 4.80039 21.6H19.2004C19.8369 21.6 20.4474 21.3471 20.8974 20.897C21.3475 20.447 21.6004 19.8365 21.6004 19.2V9.59998C21.6004 8.96346 21.3475 8.35301 20.8974 7.90293C20.4474 7.45284 19.8369 7.19998 19.2004 7.19998ZM17.4004 15.6072C17.1639 15.6071 16.9298 15.5605 16.7114 15.4699C16.4929 15.3793 16.2945 15.2466 16.1273 15.0794C15.9602 14.9121 15.8276 14.7136 15.7372 14.4951C15.6468 14.2766 15.6003 14.0424 15.6004 13.806C15.6005 13.5695 15.6471 13.3354 15.7377 13.117C15.8282 12.8985 15.9609 12.7001 16.1282 12.5329C16.2955 12.3658 16.494 12.2332 16.7125 12.1428C16.931 12.0524 17.1651 12.0059 17.4016 12.006C17.8791 12.0061 18.3371 12.196 18.6746 12.5338C19.0122 12.8716 19.2017 13.3296 19.2016 13.8072C19.2014 14.2847 19.0116 14.7427 18.6738 15.0802C18.336 15.4178 17.8779 15.6073 17.4004 15.6072Z" fill="#CCCCCC"/>
</svg>
