<svg width="24" height="24" viewBox="0 0 24 24" fill="none" xmlns="http://www.w3.org/2000/svg">
<path fill-rule="evenodd" clip-rule="evenodd" d="M6.8 7.8V6.6C6.8 5.64522 7.17928 4.72955 7.85442 4.05442C8.52955 3.37928 9.44522 3 10.4 3H12.8C13.7548 3 14.6705 3.37928 15.3456 4.05442C16.0207 4.72955 16.4 5.64522 16.4 6.6V7.8H18.8C19.4365 7.8 20.047 8.05286 20.4971 8.50294C20.9471 8.95303 21.2 9.56348 21.2 10.2V14.484C18.1275 15.6225 14.8766 16.2036 11.6 16.2C8.3234 16.2036 5.07244 15.6225 2 14.484V10.2C2 9.56348 2.25286 8.95303 2.70294 8.50294C3.15303 8.05286 3.76348 7.8 4.4 7.8H6.8ZM9.2 6.6C9.2 6.28174 9.32643 5.97652 9.55147 5.75147C9.77652 5.52643 10.0817 5.4 10.4 5.4H12.8C13.1183 5.4 13.4235 5.52643 13.6485 5.75147C13.8736 5.97652 14 6.28174 14 6.6V7.8H9.2V6.6ZM10.4 12.6C10.4 12.2817 10.5264 11.9765 10.7515 11.7515C10.9765 11.5264 11.2817 11.4 11.6 11.4H11.612C11.9303 11.4 12.2355 11.5264 12.4605 11.7515C12.6856 11.9765 12.812 12.2817 12.812 12.6C12.812 12.9183 12.6856 13.2235 12.4605 13.4485C12.2355 13.6736 11.9303 13.8 11.612 13.8H11.6C11.2817 13.8 10.9765 13.6736 10.7515 13.4485C10.5264 13.2235 10.4 12.9183 10.4 12.6Z" fill="#2C4EA6"/>
<path d="M2.40039 16.4304V19.2C2.40039 19.8365 2.65325 20.447 3.10333 20.8971C3.55342 21.3472 4.16387 21.6 4.80039 21.6H19.2004C19.8369 21.6 20.4474 21.3472 20.8974 20.8971C21.3475 20.447 21.6004 19.8365 21.6004 19.2V16.4304C18.5072 17.4729 15.2645 18.0031 12.0004 18C8.64519 18 5.41599 17.448 2.40039 16.4304Z" fill="#2C4EA6"/>
</svg>
