<svg width="24" height="24" viewBox="0 0 24 24" fill="none" xmlns="http://www.w3.org/2000/svg">
<path fill-rule="evenodd" clip-rule="evenodd" d="M7.20039 7.20002V6.00002C7.20039 5.04525 7.57968 4.12957 8.25481 3.45444C8.92994 2.77931 9.84561 2.40002 10.8004 2.40002H13.2004C14.1552 2.40002 15.0708 2.77931 15.746 3.45444C16.4211 4.12957 16.8004 5.04525 16.8004 6.00002V7.20002H19.2004C19.8369 7.20002 20.4474 7.45288 20.8974 7.90297C21.3475 8.35306 21.6004 8.96351 21.6004 9.60002V13.884C18.5279 15.0225 15.277 15.6036 12.0004 15.6C8.72379 15.6037 5.47283 15.0226 2.40039 13.884V9.60002C2.40039 8.96351 2.65325 8.35306 3.10333 7.90297C3.55342 7.45288 4.16387 7.20002 4.80039 7.20002H7.20039ZM9.60039 6.00002C9.60039 5.68176 9.72682 5.37654 9.95186 5.1515C10.1769 4.92645 10.4821 4.80002 10.8004 4.80002H13.2004C13.5187 4.80002 13.8239 4.92645 14.0489 5.1515C14.274 5.37654 14.4004 5.68176 14.4004 6.00002V7.20002H9.60039V6.00002ZM10.8004 12C10.8004 11.6818 10.9268 11.3765 11.1519 11.1515C11.3769 10.9265 11.6821 10.8 12.0004 10.8H12.0124C12.3307 10.8 12.6359 10.9265 12.8609 11.1515C13.086 11.3765 13.2124 11.6818 13.2124 12C13.2124 12.3183 13.086 12.6235 12.8609 12.8486C12.6359 13.0736 12.3307 13.2 12.0124 13.2H12.0004C11.6821 13.2 11.3769 13.0736 11.1519 12.8486C10.9268 12.6235 10.8004 12.3183 10.8004 12Z" fill="#CCCCCC"/>
<path d="M2.40039 16.4304V19.2C2.40039 19.8365 2.65325 20.447 3.10333 20.8971C3.55342 21.3472 4.16387 21.6 4.80039 21.6H19.2004C19.8369 21.6 20.4474 21.3472 20.8974 20.8971C21.3475 20.447 21.6004 19.8365 21.6004 19.2V16.4304C18.5072 17.4729 15.2645 18.0031 12.0004 18C8.64519 18 5.41599 17.448 2.40039 16.4304Z" fill="#CCCCCC"/>
</svg>
